# MagicaVoxel @ Ephtracy

# group
g env_grass

# material
mtllib env_grass.mtl
usemtl palette

# normals
vn -1 0 0
vn 1 0 0
vn 0 0 1
vn 0 0 -1
vn 0 -1 0
vn 0 1 0

# texcoords
vt 0.623047 0.5
vt 0.630859 0.5
vt 0.767578 0.5
vt 0.771484 0.5
vt 0.791016 0.5

# verts
v -10 0 10
v -10 0 -10
v -10 1 10
v -10 1 -10
v -9 1 -1
v -9 1 -2
v -9 2 -1
v -9 2 -2
v -7 1 -6
v -7 1 -8
v -7 2 -6
v -7 2 -8
v -5 1 8
v -5 1 6
v -5 2 8
v -5 2 6
v -2 1 -6
v -2 1 -7
v -2 2 -6
v -2 2 -7
v 0 1 -1
v 0 1 -2
v 0 2 -1
v 0 2 -2
v 1 1 4
v 1 1 3
v 1 3 4
v 1 3 3
v 3 1 10
v 3 1 9
v 3 2 10
v 3 2 9
v 4 1 4
v 4 1 3
v 4 2 4
v 4 2 3
v 5 1 1
v 5 1 -0
v 5 2 1
v 5 2 -0
v 6 1 -8
v 6 1 -9
v 6 2 -8
v 6 2 -9
v 9 1 -3
v 9 1 -4
v 9 2 -3
v 9 2 -4
v -8 1 -1
v -8 1 -2
v -8 2 -1
v -8 2 -2
v -6 1 -6
v -6 1 -8
v -6 2 -6
v -6 2 -8
v -4 1 8
v -4 1 6
v -4 2 8
v -4 2 6
v -1 1 -6
v -1 1 -7
v -1 2 -6
v -1 2 -7
v 1 1 -1
v 1 1 -2
v 1 2 -1
v 1 2 -2
v 2 1 4
v 2 1 3
v 2 3 4
v 2 3 3
v 4 1 10
v 4 1 9
v 4 2 10
v 4 2 9
v 5 1 4
v 5 1 3
v 5 2 4
v 5 2 3
v 6 1 1
v 6 1 -0
v 6 2 1
v 6 2 -0
v 7 1 -8
v 7 1 -9
v 7 2 -8
v 7 2 -9
v 10 0 10
v 10 0 -10
v 10 1 10
v 10 1 -3
v 10 1 -4
v 10 1 -10
v 10 2 -3
v 10 2 -4
v -10 0 10
v -10 1 10
v 3 1 10
v 3 2 10
v 4 1 10
v 4 2 10
v 10 0 10
v 10 1 10
v -5 1 8
v -5 2 8
v -4 1 8
v -4 2 8
v 1 1 4
v 1 3 4
v 2 1 4
v 2 3 4
v 4 1 4
v 4 2 4
v 5 1 4
v 5 2 4
v 5 1 1
v 5 2 1
v 6 1 1
v 6 2 1
v -9 1 -1
v -9 2 -1
v -8 1 -1
v -8 2 -1
v 0 1 -1
v 0 2 -1
v 1 1 -1
v 1 2 -1
v 9 1 -3
v 9 2 -3
v 10 1 -3
v 10 2 -3
v -7 1 -6
v -7 2 -6
v -6 1 -6
v -6 2 -6
v -2 1 -6
v -2 2 -6
v -1 1 -6
v -1 2 -6
v 6 1 -8
v 6 2 -8
v 7 1 -8
v 7 2 -8
v 3 1 9
v 3 2 9
v 4 1 9
v 4 2 9
v -5 1 6
v -5 2 6
v -4 1 6
v -4 2 6
v 1 1 3
v 1 3 3
v 2 1 3
v 2 3 3
v 4 1 3
v 4 2 3
v 5 1 3
v 5 2 3
v 5 1 -0
v 5 2 -0
v 6 1 -0
v 6 2 -0
v -9 1 -2
v -9 2 -2
v -8 1 -2
v -8 2 -2
v 0 1 -2
v 0 2 -2
v 1 1 -2
v 1 2 -2
v 9 1 -4
v 9 2 -4
v 10 1 -4
v 10 2 -4
v -2 1 -7
v -2 2 -7
v -1 1 -7
v -1 2 -7
v -7 1 -8
v -7 2 -8
v -6 1 -8
v -6 2 -8
v 6 1 -9
v 6 2 -9
v 7 1 -9
v 7 2 -9
v -10 0 -10
v -10 1 -10
v -5 0 -10
v -5 1 -10
v -4 0 -10
v -4 1 -10
v 1 0 -10
v 1 1 -10
v 3 0 -10
v 3 1 -10
v 7 0 -10
v 7 1 -10
v 8 0 -10
v 8 1 -10
v 10 0 -10
v 10 1 -10
v -10 0 10
v 10 0 10
v 2 0 9
v 5 0 9
v 6 0 9
v 7 0 9
v -8 0 8
v -7 0 8
v 6 0 8
v 7 0 8
v -8 0 7
v -7 0 7
v -3 0 7
v -2 0 7
v 0 0 7
v 1 0 7
v 7 0 7
v 8 0 7
v -3 0 6
v -2 0 6
v 0 0 6
v 1 0 6
v 2 0 6
v 5 0 6
v 7 0 6
v 8 0 6
v -6 0 4
v -5 0 4
v -3 0 4
v 0 0 4
v 2 0 4
v 3 0 4
v 5 0 4
v 7 0 4
v -6 0 3
v -5 0 3
v -2 0 3
v -1 0 3
v 2 0 3
v 3 0 3
v 8 0 3
v 9 0 3
v -6 0 2
v -4 0 2
v -2 0 2
v -1 0 2
v 8 0 2
v 9 0 2
v -9 0 1
v -8 0 1
v -3 0 1
v -1 0 1
v 6 0 1
v 7 0 1
v -9 0 -0
v -8 0 -0
v 1 0 -0
v 2 0 -0
v 6 0 -0
v 7 0 -0
v -6 0 -1
v -4 0 -1
v 1 0 -1
v 2 0 -1
v -3 0 -2
v -2 0 -2
v -1 0 -2
v -3 0 -3
v -2 0 -3
v -8 0 -4
v -7 0 -4
v -3 0 -4
v -2 0 -4
v 1 0 -4
v 2 0 -4
v -8 0 -5
v -7 0 -5
v -6 0 -5
v -5 0 -5
v 1 0 -5
v 2 0 -5
v 6 0 -5
v 7 0 -5
v -6 0 -6
v -5 0 -6
v 6 0 -6
v 7 0 -6
v -9 0 -7
v -8 0 -7
v -2 0 -7
v -1 0 -7
v -9 0 -8
v -8 0 -8
v -2 0 -8
v -1 0 -8
v 1 0 -8
v 3 0 -8
v -5 0 -9
v -4 0 -9
v 7 0 -9
v 8 0 -9
v -10 0 -10
v -5 0 -10
v -4 0 -10
v 1 0 -10
v 3 0 -10
v 7 0 -10
v 8 0 -10
v 10 0 -10
v -10 1 10
v 3 1 10
v 4 1 10
v 10 1 10
v 2 1 9
v 3 1 9
v 4 1 9
v 5 1 9
v 6 1 9
v 7 1 9
v -8 1 8
v -7 1 8
v -5 1 8
v -4 1 8
v 6 1 8
v 7 1 8
v -8 1 7
v -7 1 7
v -3 1 7
v -2 1 7
v 0 1 7
v 1 1 7
v 7 1 7
v 8 1 7
v -5 1 6
v -4 1 6
v -3 1 6
v -2 1 6
v 0 1 6
v 1 1 6
v 2 1 6
v 5 1 6
v 7 1 6
v 8 1 6
v -6 1 4
v -5 1 4
v -3 1 4
v 0 1 4
v 1 1 4
v 2 1 4
v 3 1 4
v 4 1 4
v 5 1 4
v 7 1 4
v -6 1 3
v -5 1 3
v -2 1 3
v -1 1 3
v 1 1 3
v 2 1 3
v 3 1 3
v 4 1 3
v 5 1 3
v 8 1 3
v 9 1 3
v -6 1 2
v -4 1 2
v -2 1 2
v -1 1 2
v 8 1 2
v 9 1 2
v -9 1 1
v -8 1 1
v -3 1 1
v -1 1 1
v 5 1 1
v 6 1 1
v 7 1 1
v -9 1 -0
v -8 1 -0
v 1 1 -0
v 2 1 -0
v 5 1 -0
v 6 1 -0
v 7 1 -0
v -9 1 -1
v -8 1 -1
v -6 1 -1
v -4 1 -1
v 0 1 -1
v 1 1 -1
v 2 1 -1
v -9 1 -2
v -8 1 -2
v -3 1 -2
v -2 1 -2
v -1 1 -2
v 0 1 -2
v 1 1 -2
v -3 1 -3
v -2 1 -3
v 9 1 -3
v 10 1 -3
v -8 1 -4
v -7 1 -4
v -3 1 -4
v -2 1 -4
v 1 1 -4
v 2 1 -4
v 9 1 -4
v 10 1 -4
v -8 1 -5
v -7 1 -5
v -6 1 -5
v -5 1 -5
v 1 1 -5
v 2 1 -5
v 6 1 -5
v 7 1 -5
v -7 1 -6
v -6 1 -6
v -5 1 -6
v -2 1 -6
v -1 1 -6
v 6 1 -6
v 7 1 -6
v -9 1 -7
v -8 1 -7
v -2 1 -7
v -1 1 -7
v -9 1 -8
v -8 1 -8
v -7 1 -8
v -6 1 -8
v -2 1 -8
v -1 1 -8
v 1 1 -8
v 3 1 -8
v 6 1 -8
v 7 1 -8
v -5 1 -9
v -4 1 -9
v 6 1 -9
v 7 1 -9
v 8 1 -9
v -10 1 -10
v -5 1 -10
v -4 1 -10
v 1 1 -10
v 3 1 -10
v 7 1 -10
v 8 1 -10
v 10 1 -10
v 3 2 10
v 4 2 10
v 3 2 9
v 4 2 9
v -5 2 8
v -4 2 8
v -5 2 6
v -4 2 6
v 4 2 4
v 5 2 4
v 4 2 3
v 5 2 3
v 5 2 1
v 6 2 1
v 5 2 -0
v 6 2 -0
v -9 2 -1
v -8 2 -1
v 0 2 -1
v 1 2 -1
v -9 2 -2
v -8 2 -2
v 0 2 -2
v 1 2 -2
v 9 2 -3
v 10 2 -3
v 9 2 -4
v 10 2 -4
v -7 2 -6
v -6 2 -6
v -2 2 -6
v -1 2 -6
v -2 2 -7
v -1 2 -7
v -7 2 -8
v -6 2 -8
v 6 2 -8
v 7 2 -8
v 6 2 -9
v 7 2 -9
v 1 3 4
v 2 3 4
v 1 3 3
v 2 3 3

# faces
f 3/4/1 2/4/1 1/4/1
f 4/4/1 2/4/1 3/4/1
f 7/4/1 6/4/1 5/4/1
f 8/4/1 6/4/1 7/4/1
f 11/4/1 10/4/1 9/4/1
f 12/4/1 10/4/1 11/4/1
f 15/4/1 14/4/1 13/4/1
f 16/4/1 14/4/1 15/4/1
f 19/4/1 18/4/1 17/4/1
f 20/4/1 18/4/1 19/4/1
f 23/4/1 22/4/1 21/4/1
f 24/4/1 22/4/1 23/4/1
f 27/4/1 26/4/1 25/4/1
f 28/4/1 26/4/1 27/4/1
f 31/4/1 30/4/1 29/4/1
f 32/4/1 30/4/1 31/4/1
f 35/4/1 34/4/1 33/4/1
f 36/4/1 34/4/1 35/4/1
f 39/4/1 38/4/1 37/4/1
f 40/4/1 38/4/1 39/4/1
f 43/4/1 42/4/1 41/4/1
f 44/4/1 42/4/1 43/4/1
f 47/4/1 46/4/1 45/4/1
f 48/4/1 46/4/1 47/4/1
f 49/4/2 50/4/2 51/4/2
f 51/4/2 50/4/2 52/4/2
f 53/4/2 54/4/2 55/4/2
f 55/4/2 54/4/2 56/4/2
f 57/4/2 58/4/2 59/4/2
f 59/4/2 58/4/2 60/4/2
f 61/4/2 62/4/2 63/4/2
f 63/4/2 62/4/2 64/4/2
f 65/4/2 66/4/2 67/4/2
f 67/4/2 66/4/2 68/4/2
f 69/4/2 70/4/2 71/4/2
f 71/4/2 70/4/2 72/4/2
f 73/4/2 74/4/2 75/4/2
f 75/4/2 74/4/2 76/4/2
f 77/4/2 78/4/2 79/4/2
f 79/4/2 78/4/2 80/4/2
f 81/4/2 82/4/2 83/4/2
f 83/4/2 82/4/2 84/4/2
f 85/4/2 86/4/2 87/4/2
f 87/4/2 86/4/2 88/4/2
f 89/4/2 90/4/2 91/4/2
f 91/4/2 90/4/2 92/4/2
f 92/4/2 90/4/2 93/4/2
f 93/4/2 90/4/2 94/4/2
f 92/4/2 93/4/2 95/4/2
f 95/4/2 93/4/2 96/4/2
f 99/4/3 98/4/3 97/4/3
f 101/4/3 99/4/3 97/4/3
f 101/4/3 100/4/3 99/4/3
f 102/4/3 100/4/3 101/4/3
f 103/4/3 101/4/3 97/4/3
f 104/4/3 101/4/3 103/4/3
f 107/4/3 106/4/3 105/4/3
f 108/4/3 106/4/3 107/4/3
f 111/4/3 110/4/3 109/4/3
f 112/4/3 110/4/3 111/4/3
f 115/4/3 114/4/3 113/4/3
f 116/4/3 114/4/3 115/4/3
f 119/4/3 118/4/3 117/4/3
f 120/4/3 118/4/3 119/4/3
f 123/4/3 122/4/3 121/4/3
f 124/4/3 122/4/3 123/4/3
f 127/4/3 126/4/3 125/4/3
f 128/4/3 126/4/3 127/4/3
f 131/4/3 130/4/3 129/4/3
f 132/4/3 130/4/3 131/4/3
f 135/4/3 134/4/3 133/4/3
f 136/4/3 134/4/3 135/4/3
f 139/4/3 138/4/3 137/4/3
f 140/4/3 138/4/3 139/4/3
f 143/4/3 142/4/3 141/4/3
f 144/4/3 142/4/3 143/4/3
f 145/4/4 146/4/4 147/4/4
f 147/4/4 146/4/4 148/4/4
f 149/4/4 150/4/4 151/4/4
f 151/4/4 150/4/4 152/4/4
f 153/4/4 154/4/4 155/4/4
f 155/4/4 154/4/4 156/4/4
f 157/4/4 158/4/4 159/4/4
f 159/4/4 158/4/4 160/4/4
f 161/4/4 162/4/4 163/4/4
f 163/4/4 162/4/4 164/4/4
f 165/4/4 166/4/4 167/4/4
f 167/4/4 166/4/4 168/4/4
f 169/4/4 170/4/4 171/4/4
f 171/4/4 170/4/4 172/4/4
f 173/4/4 174/4/4 175/4/4
f 175/4/4 174/4/4 176/4/4
f 177/4/4 178/4/4 179/4/4
f 179/4/4 178/4/4 180/4/4
f 181/4/4 182/4/4 183/4/4
f 183/4/4 182/4/4 184/4/4
f 185/4/4 186/4/4 187/4/4
f 187/4/4 186/4/4 188/4/4
f 189/4/4 190/4/4 191/4/4
f 191/4/4 190/4/4 192/4/4
f 191/5/4 192/5/4 193/5/4
f 193/5/4 192/5/4 194/5/4
f 193/4/4 194/4/4 195/4/4
f 195/4/4 194/4/4 196/4/4
f 195/1/4 196/1/4 197/1/4
f 197/1/4 196/1/4 198/1/4
f 197/4/4 198/4/4 199/4/4
f 199/4/4 198/4/4 200/4/4
f 199/5/4 200/5/4 201/5/4
f 201/5/4 200/5/4 202/5/4
f 201/4/4 202/4/4 203/4/4
f 203/4/4 202/4/4 204/4/4
f 207/4/5 206/4/5 205/4/5
f 208/4/5 206/4/5 207/4/5
f 209/4/5 206/4/5 208/4/5
f 210/4/5 206/4/5 209/4/5
f 211/4/5 207/4/5 205/4/5
f 212/4/5 207/4/5 211/4/5
f 213/4/5 209/4/5 208/4/5
f 213/5/5 210/5/5 209/5/5
f 214/4/5 206/4/5 210/4/5
f 214/5/5 210/5/5 213/5/5
f 215/5/5 212/5/5 211/5/5
f 215/4/5 211/4/5 205/4/5
f 216/4/5 207/4/5 212/4/5
f 216/5/5 212/5/5 215/5/5
f 217/4/5 207/4/5 216/4/5
f 218/4/5 207/4/5 217/4/5
f 219/4/5 207/4/5 218/4/5
f 220/4/5 207/4/5 219/4/5
f 221/4/5 206/4/5 214/4/5
f 221/4/5 214/4/5 213/4/5
f 222/4/5 206/4/5 221/4/5
f 223/4/5 216/4/5 215/4/5
f 223/4/5 217/4/5 216/4/5
f 223/5/5 218/5/5 217/5/5
f 224/4/5 219/4/5 218/4/5
f 224/5/5 218/5/5 223/5/5
f 225/5/5 220/5/5 219/5/5
f 225/4/5 219/4/5 224/4/5
f 226/4/5 207/4/5 220/4/5
f 226/5/5 220/5/5 225/5/5
f 227/2/5 208/2/5 207/2/5
f 227/4/5 207/4/5 226/4/5
f 228/4/5 213/4/5 208/4/5
f 228/2/5 208/2/5 227/2/5
f 228/4/5 221/4/5 213/4/5
f 229/5/5 222/5/5 221/5/5
f 229/4/5 221/4/5 228/4/5
f 230/4/5 206/4/5 222/4/5
f 230/5/5 222/5/5 229/5/5
f 231/4/5 223/4/5 215/4/5
f 232/4/5 223/4/5 231/4/5
f 233/2/5 225/2/5 224/2/5
f 233/4/5 223/4/5 232/4/5
f 233/2/5 224/2/5 223/2/5
f 234/4/5 227/4/5 226/4/5
f 234/2/5 225/2/5 233/2/5
f 234/4/5 226/4/5 225/4/5
f 234/4/5 228/4/5 227/4/5
f 235/4/5 228/4/5 234/4/5
f 236/4/5 228/4/5 235/4/5
f 237/1/5 229/1/5 228/1/5
f 237/4/5 228/4/5 236/4/5
f 238/4/5 230/4/5 229/4/5
f 238/1/5 229/1/5 237/1/5
f 239/5/5 232/5/5 231/5/5
f 239/4/5 231/4/5 215/4/5
f 240/4/5 233/4/5 232/4/5
f 240/5/5 232/5/5 239/5/5
f 240/4/5 234/4/5 233/4/5
f 240/4/5 235/4/5 234/4/5
f 241/4/5 235/4/5 240/4/5
f 242/4/5 235/4/5 241/4/5
f 243/5/5 236/5/5 235/5/5
f 243/4/5 235/4/5 242/4/5
f 244/4/5 237/4/5 236/4/5
f 244/5/5 236/5/5 243/5/5
f 244/4/5 238/4/5 237/4/5
f 245/4/5 230/4/5 238/4/5
f 245/4/5 238/4/5 244/4/5
f 245/4/5 206/4/5 230/4/5
f 246/4/5 206/4/5 245/4/5
f 247/4/5 239/4/5 215/4/5
f 247/4/5 241/4/5 240/4/5
f 247/4/5 240/4/5 239/4/5
f 248/4/5 241/4/5 247/4/5
f 249/5/5 242/5/5 241/5/5
f 249/4/5 241/4/5 248/4/5
f 250/4/5 243/4/5 242/4/5
f 250/5/5 242/5/5 249/5/5
f 250/4/5 244/4/5 243/4/5
f 250/4/5 245/4/5 244/4/5
f 251/5/5 246/5/5 245/5/5
f 251/4/5 245/4/5 250/4/5
f 252/4/5 206/4/5 246/4/5
f 252/5/5 246/5/5 251/5/5
f 253/4/5 215/4/5 205/4/5
f 253/4/5 247/4/5 215/4/5
f 254/4/5 247/4/5 253/4/5
f 255/4/5 251/4/5 250/4/5
f 255/4/5 249/4/5 248/4/5
f 255/4/5 252/4/5 251/4/5
f 255/4/5 250/4/5 249/4/5
f 256/4/5 252/4/5 255/4/5
f 257/4/5 252/4/5 256/4/5
f 258/4/5 252/4/5 257/4/5
f 259/5/5 254/5/5 253/5/5
f 259/4/5 253/4/5 205/4/5
f 260/4/5 247/4/5 254/4/5
f 260/5/5 254/5/5 259/5/5
f 261/4/5 257/4/5 256/4/5
f 262/4/5 257/4/5 261/4/5
f 263/5/5 258/5/5 257/5/5
f 263/4/5 257/4/5 262/4/5
f 264/4/5 252/4/5 258/4/5
f 264/5/5 258/5/5 263/5/5
f 265/1/5 248/1/5 247/1/5
f 265/4/5 247/4/5 260/4/5
f 265/4/5 260/4/5 259/4/5
f 266/4/5 255/4/5 248/4/5
f 266/1/5 248/1/5 265/1/5
f 267/5/5 262/5/5 261/5/5
f 267/4/5 261/4/5 256/4/5
f 268/4/5 263/4/5 262/4/5
f 268/5/5 262/5/5 267/5/5
f 268/4/5 264/4/5 263/4/5
f 269/4/5 255/4/5 266/4/5
f 269/2/5 256/2/5 255/2/5
f 269/4/5 266/4/5 265/4/5
f 270/2/5 256/2/5 269/2/5
f 271/4/5 267/4/5 256/4/5
f 271/2/5 256/2/5 270/2/5
f 271/4/5 268/4/5 267/4/5
f 272/3/5 270/3/5 269/3/5
f 272/4/5 269/4/5 265/4/5
f 273/4/5 271/4/5 270/4/5
f 273/3/5 270/3/5 272/3/5
f 274/4/5 265/4/5 259/4/5
f 274/4/5 272/4/5 265/4/5
f 275/4/5 272/4/5 274/4/5
f 276/5/5 273/5/5 272/5/5
f 276/4/5 272/4/5 275/4/5
f 277/4/5 271/4/5 273/4/5
f 277/5/5 273/5/5 276/5/5
f 278/4/5 268/4/5 271/4/5
f 278/4/5 271/4/5 277/4/5
f 279/4/5 264/4/5 268/4/5
f 279/4/5 268/4/5 278/4/5
f 280/5/5 275/5/5 274/5/5
f 280/4/5 274/4/5 259/4/5
f 281/4/5 277/4/5 276/4/5
f 281/5/5 275/5/5 280/5/5
f 281/4/5 278/4/5 277/4/5
f 281/4/5 276/4/5 275/4/5
f 282/4/5 278/4/5 281/4/5
f 283/4/5 278/4/5 282/4/5
f 284/5/5 279/5/5 278/5/5
f 284/4/5 278/4/5 283/4/5
f 285/4/5 264/4/5 279/4/5
f 285/5/5 279/5/5 284/5/5
f 286/4/5 264/4/5 285/4/5
f 287/4/5 252/4/5 264/4/5
f 287/4/5 264/4/5 286/4/5
f 288/3/5 283/3/5 282/3/5
f 288/4/5 281/4/5 280/4/5
f 288/4/5 282/4/5 281/4/5
f 289/4/5 286/4/5 285/4/5
f 289/3/5 283/3/5 288/3/5
f 289/4/5 284/4/5 283/4/5
f 289/4/5 285/4/5 284/4/5
f 290/5/5 287/5/5 286/5/5
f 290/4/5 286/4/5 289/4/5
f 291/4/5 252/4/5 287/4/5
f 291/5/5 287/5/5 290/5/5
f 292/4/5 259/4/5 205/4/5
f 292/4/5 280/4/5 259/4/5
f 292/4/5 291/4/5 290/4/5
f 292/4/5 289/4/5 288/4/5
f 292/4/5 288/4/5 280/4/5
f 292/4/5 290/4/5 289/4/5
f 293/4/5 291/4/5 292/4/5
f 294/4/5 291/4/5 293/4/5
f 295/4/5 291/4/5 294/4/5
f 296/4/5 292/4/5 205/4/5
f 296/5/5 293/5/5 292/5/5
f 297/4/5 294/4/5 293/4/5
f 297/5/5 293/5/5 296/5/5
f 298/5/5 295/5/5 294/5/5
f 298/4/5 294/4/5 297/4/5
f 299/4/5 291/4/5 295/4/5
f 299/5/5 295/5/5 298/5/5
f 300/4/5 291/4/5 299/4/5
f 301/4/5 291/4/5 300/4/5
f 302/4/5 298/4/5 297/4/5
f 302/4/5 297/4/5 296/4/5
f 302/4/5 299/4/5 298/4/5
f 302/4/5 300/4/5 299/4/5
f 303/4/5 300/4/5 302/4/5
f 304/4/5 252/4/5 291/4/5
f 304/4/5 291/4/5 301/4/5
f 305/4/5 252/4/5 304/4/5
f 306/4/5 296/4/5 205/4/5
f 306/4/5 302/4/5 296/4/5
f 307/5/5 303/5/5 302/5/5
f 307/4/5 302/4/5 306/4/5
f 308/4/5 300/4/5 303/4/5
f 308/5/5 303/5/5 307/5/5
f 309/1/5 301/1/5 300/1/5
f 309/4/5 300/4/5 308/4/5
f 310/4/5 304/4/5 301/4/5
f 310/1/5 301/1/5 309/1/5
f 311/5/5 305/5/5 304/5/5
f 311/4/5 304/4/5 310/4/5
f 312/4/5 252/4/5 305/4/5
f 312/5/5 305/5/5 311/5/5
f 313/4/5 206/4/5 252/4/5
f 313/4/5 252/4/5 312/4/5
f 314/4/6 315/4/6 318/4/6
f 318/4/6 315/4/6 319/4/6
f 316/4/6 317/4/6 320/4/6
f 320/4/6 317/4/6 321/4/6
f 321/4/6 317/4/6 322/4/6
f 322/4/6 317/4/6 323/4/6
f 314/4/6 318/4/6 324/4/6
f 324/4/6 318/4/6 325/4/6
f 325/4/6 318/4/6 326/4/6
f 326/4/6 318/4/6 327/4/6
f 321/4/6 322/4/6 328/4/6
f 322/5/6 323/5/6 328/5/6
f 323/4/6 317/4/6 329/4/6
f 328/5/6 323/5/6 329/5/6
f 314/4/6 324/4/6 330/4/6
f 324/5/6 325/5/6 330/5/6
f 325/4/6 326/4/6 331/4/6
f 330/5/6 325/5/6 331/5/6
f 327/4/6 318/4/6 332/4/6
f 332/4/6 318/4/6 333/4/6
f 333/4/6 318/4/6 334/4/6
f 334/4/6 318/4/6 335/4/6
f 329/4/6 317/4/6 336/4/6
f 328/4/6 329/4/6 336/4/6
f 336/4/6 317/4/6 337/4/6
f 331/4/6 326/4/6 338/4/6
f 330/4/6 331/4/6 338/4/6
f 327/4/6 332/4/6 339/4/6
f 332/5/6 333/5/6 340/5/6
f 339/4/6 332/4/6 340/4/6
f 333/4/6 334/4/6 341/4/6
f 340/5/6 333/5/6 341/5/6
f 334/5/6 335/5/6 342/5/6
f 341/4/6 334/4/6 342/4/6
f 335/4/6 318/4/6 343/4/6
f 342/5/6 335/5/6 343/5/6
f 318/2/6 319/2/6 344/2/6
f 343/4/6 318/4/6 344/4/6
f 319/2/6 320/2/6 344/2/6
f 320/2/6 321/2/6 344/2/6
f 321/4/6 328/4/6 345/4/6
f 344/2/6 321/2/6 345/2/6
f 328/4/6 336/4/6 345/4/6
f 336/5/6 337/5/6 346/5/6
f 345/4/6 336/4/6 346/4/6
f 337/4/6 317/4/6 347/4/6
f 346/5/6 337/5/6 347/5/6
f 339/4/6 340/4/6 348/4/6
f 330/4/6 338/4/6 348/4/6
f 338/4/6 339/4/6 348/4/6
f 348/4/6 340/4/6 349/4/6
f 341/2/6 342/2/6 350/2/6
f 349/4/6 340/4/6 350/4/6
f 340/2/6 341/2/6 350/2/6
f 342/4/6 343/4/6 351/4/6
f 350/2/6 342/2/6 351/2/6
f 343/4/6 344/4/6 351/4/6
f 344/4/6 345/4/6 351/4/6
f 351/4/6 345/4/6 352/4/6
f 352/4/6 345/4/6 353/4/6
f 353/4/6 345/4/6 354/4/6
f 354/4/6 345/4/6 355/4/6
f 345/1/6 346/1/6 356/1/6
f 355/4/6 345/4/6 356/4/6
f 346/4/6 347/4/6 357/4/6
f 356/1/6 346/1/6 357/1/6
f 348/5/6 349/5/6 358/5/6
f 330/4/6 348/4/6 358/4/6
f 349/4/6 350/4/6 359/4/6
f 358/5/6 349/5/6 359/5/6
f 350/4/6 351/4/6 359/4/6
f 351/4/6 352/4/6 359/4/6
f 359/4/6 352/4/6 360/4/6
f 360/4/6 352/4/6 361/4/6
f 361/4/6 352/4/6 362/4/6
f 353/5/6 354/5/6 363/5/6
f 354/4/6 355/4/6 364/4/6
f 363/5/6 354/5/6 364/5/6
f 364/4/6 355/4/6 365/4/6
f 356/4/6 357/4/6 366/4/6
f 357/4/6 347/4/6 367/4/6
f 347/4/6 317/4/6 367/4/6
f 366/4/6 357/4/6 367/4/6
f 367/4/6 317/4/6 368/4/6
f 330/4/6 358/4/6 369/4/6
f 358/4/6 359/4/6 369/4/6
f 359/4/6 360/4/6 369/4/6
f 369/4/6 360/4/6 370/4/6
f 360/5/6 361/5/6 371/5/6
f 370/4/6 360/4/6 371/4/6
f 365/4/6 366/4/6 372/4/6
f 371/5/6 361/5/6 372/5/6
f 362/4/6 363/4/6 372/4/6
f 364/4/6 365/4/6 372/4/6
f 363/4/6 364/4/6 372/4/6
f 361/4/6 362/4/6 372/4/6
f 366/4/6 367/4/6 372/4/6
f 367/5/6 368/5/6 373/5/6
f 372/4/6 367/4/6 373/4/6
f 368/4/6 317/4/6 374/4/6
f 373/5/6 368/5/6 374/5/6
f 330/4/6 369/4/6 375/4/6
f 314/4/6 330/4/6 375/4/6
f 375/4/6 369/4/6 376/4/6
f 372/4/6 373/4/6 377/4/6
f 370/4/6 371/4/6 377/4/6
f 373/4/6 374/4/6 377/4/6
f 371/4/6 372/4/6 377/4/6
f 377/4/6 374/4/6 378/4/6
f 378/4/6 374/4/6 379/4/6
f 379/4/6 374/4/6 380/4/6
f 380/4/6 374/4/6 381/4/6
f 375/5/6 376/5/6 382/5/6
f 314/4/6 375/4/6 382/4/6
f 376/4/6 369/4/6 383/4/6
f 382/5/6 376/5/6 383/5/6
f 378/4/6 379/4/6 384/4/6
f 384/4/6 379/4/6 385/4/6
f 385/4/6 379/4/6 386/4/6
f 380/5/6 381/5/6 387/5/6
f 381/4/6 374/4/6 388/4/6
f 387/5/6 381/5/6 388/5/6
f 314/4/6 382/4/6 389/4/6
f 382/4/6 383/4/6 389/4/6
f 383/4/6 369/4/6 390/4/6
f 389/4/6 383/4/6 390/4/6
f 369/1/6 370/1/6 391/1/6
f 390/4/6 369/4/6 391/4/6
f 370/4/6 377/4/6 392/4/6
f 391/1/6 370/1/6 392/1/6
f 378/4/6 384/4/6 393/4/6
f 384/5/6 385/5/6 394/5/6
f 393/4/6 384/4/6 394/4/6
f 386/4/6 387/4/6 395/4/6
f 394/5/6 385/5/6 395/5/6
f 385/4/6 386/4/6 395/4/6
f 387/4/6 388/4/6 395/4/6
f 314/4/6 389/4/6 396/4/6
f 391/4/6 392/4/6 397/4/6
f 390/4/6 391/4/6 397/4/6
f 392/4/6 377/4/6 398/4/6
f 377/2/6 378/2/6 398/2/6
f 397/4/6 392/4/6 398/4/6
f 398/2/6 378/2/6 399/2/6
f 378/4/6 393/4/6 400/4/6
f 399/2/6 378/2/6 400/2/6
f 400/4/6 393/4/6 401/4/6
f 394/4/6 395/4/6 402/4/6
f 396/4/6 397/4/6 403/4/6
f 398/3/6 399/3/6 403/3/6
f 397/4/6 398/4/6 403/4/6
f 400/4/6 401/4/6 404/4/6
f 403/3/6 399/3/6 404/3/6
f 401/4/6 402/4/6 404/4/6
f 399/4/6 400/4/6 404/4/6
f 388/4/6 374/4/6 405/4/6
f 404/4/6 402/4/6 405/4/6
f 395/4/6 388/4/6 405/4/6
f 374/4/6 317/4/6 405/4/6
f 402/4/6 395/4/6 405/4/6
f 405/4/6 317/4/6 406/4/6
f 396/4/6 403/4/6 407/4/6
f 407/4/6 403/4/6 408/4/6
f 403/5/6 404/5/6 409/5/6
f 408/4/6 403/4/6 409/4/6
f 404/4/6 405/4/6 410/4/6
f 409/5/6 404/5/6 410/5/6
f 410/4/6 405/4/6 411/4/6
f 411/4/6 405/4/6 412/4/6
f 412/4/6 405/4/6 413/4/6
f 407/5/6 408/5/6 415/5/6
f 396/4/6 407/4/6 415/4/6
f 408/4/6 409/4/6 416/4/6
f 415/5/6 408/5/6 416/5/6
f 409/4/6 410/4/6 416/4/6
f 410/4/6 411/4/6 416/4/6
f 416/4/6 411/4/6 417/4/6
f 417/4/6 411/4/6 418/4/6
f 411/5/6 412/5/6 419/5/6
f 418/4/6 411/4/6 419/4/6
f 413/4/6 414/4/6 420/4/6
f 419/5/6 412/5/6 420/5/6
f 412/4/6 413/4/6 420/4/6
f 420/4/6 414/4/6 421/4/6
f 421/4/6 414/4/6 422/4/6
f 416/4/6 417/4/6 423/4/6
f 415/4/6 416/4/6 423/4/6
f 417/3/6 418/3/6 424/3/6
f 423/4/6 417/4/6 424/4/6
f 418/4/6 419/4/6 425/4/6
f 424/3/6 418/3/6 425/3/6
f 419/4/6 420/4/6 425/4/6
f 420/4/6 421/4/6 425/4/6
f 425/4/6 421/4/6 426/4/6
f 426/4/6 421/4/6 427/4/6
f 421/5/6 422/5/6 428/5/6
f 427/4/6 421/4/6 428/4/6
f 422/4/6 414/4/6 429/4/6
f 428/5/6 422/5/6 429/5/6
f 314/4/6 396/4/6 430/4/6
f 396/4/6 415/4/6 430/4/6
f 415/4/6 423/4/6 430/4/6
f 430/4/6 423/4/6 431/4/6
f 425/4/6 426/4/6 432/4/6
f 424/4/6 425/4/6 432/4/6
f 428/4/6 429/4/6 433/4/6
f 427/4/6 428/4/6 433/4/6
f 314/4/6 430/4/6 434/4/6
f 430/5/6 431/5/6 434/5/6
f 431/4/6 423/4/6 435/4/6
f 434/5/6 431/5/6 435/5/6
f 435/4/6 423/4/6 436/4/6
f 424/4/6 432/4/6 437/4/6
f 432/5/6 433/5/6 438/5/6
f 437/4/6 432/4/6 438/4/6
f 433/4/6 429/4/6 439/4/6
f 438/5/6 433/5/6 439/5/6
f 439/4/6 429/4/6 440/4/6
f 440/4/6 429/4/6 441/4/6
f 441/4/6 429/4/6 442/4/6
f 429/4/6 414/4/6 443/4/6
f 442/4/6 429/4/6 443/4/6
f 435/4/6 436/4/6 444/4/6
f 436/4/6 437/4/6 444/4/6
f 437/4/6 438/4/6 444/4/6
f 439/4/6 440/4/6 444/4/6
f 438/4/6 439/4/6 444/4/6
f 434/4/6 435/4/6 444/4/6
f 444/4/6 440/4/6 445/4/6
f 441/4/6 442/4/6 446/4/6
f 443/4/6 414/4/6 447/4/6
f 447/4/6 414/4/6 448/4/6
f 314/4/6 434/4/6 449/4/6
f 434/4/6 444/4/6 449/4/6
f 444/5/6 445/5/6 450/5/6
f 449/4/6 444/4/6 450/4/6
f 445/4/6 440/4/6 451/4/6
f 450/5/6 445/5/6 451/5/6
f 440/1/6 441/1/6 452/1/6
f 451/4/6 440/4/6 452/4/6
f 441/4/6 446/4/6 453/4/6
f 452/1/6 441/1/6 453/1/6
f 446/4/6 447/4/6 453/4/6
f 447/5/6 448/5/6 454/5/6
f 453/4/6 447/4/6 454/4/6
f 448/4/6 414/4/6 455/4/6
f 454/5/6 448/5/6 455/5/6
f 455/4/6 414/4/6 456/4/6
f 457/4/6 458/4/6 459/4/6
f 459/4/6 458/4/6 460/4/6
f 461/4/6 462/4/6 463/4/6
f 463/4/6 462/4/6 464/4/6
f 465/4/6 466/4/6 467/4/6
f 467/4/6 466/4/6 468/4/6
f 469/4/6 470/4/6 471/4/6
f 471/4/6 470/4/6 472/4/6
f 473/4/6 474/4/6 477/4/6
f 477/4/6 474/4/6 478/4/6
f 475/4/6 476/4/6 479/4/6
f 479/4/6 476/4/6 480/4/6
f 481/4/6 482/4/6 483/4/6
f 483/4/6 482/4/6 484/4/6
f 487/4/6 488/4/6 489/4/6
f 489/4/6 488/4/6 490/4/6
f 485/4/6 486/4/6 491/4/6
f 491/4/6 486/4/6 492/4/6
f 493/4/6 494/4/6 495/4/6
f 495/4/6 494/4/6 496/4/6
f 497/4/6 498/4/6 499/4/6
f 499/4/6 498/4/6 500/4/6
