# MagicaVoxel @ Ephtracy

# group
g obj_fridge

# material
mtllib obj_fridge.mtl
usemtl palette

# normals
vn -1 0 0
vn 1 0 0
vn 0 0 1
vn 0 0 -1
vn 0 -1 0
vn 0 1 0

# texcoords
vt 0.861328 0.5
vt 0.880859 0.5
vt 0.962891 0.5
vt 0.966797 0.5
vt 0.970703 0.5
vt 0.982422 0.5

# verts
v -9 0 6
v -9 0 -9
v -9 19 6
v -9 19 -9
v -7 2 6
v -7 2 5
v -7 17 6
v -7 17 5
v -6 17 6
v -6 17 5
v -6 18 6
v -6 18 5
v -4 17 6
v -4 17 5
v -4 18 6
v -4 18 5
v 5 8 8
v 5 8 6
v 5 9 7
v 5 9 6
v 5 11 7
v 5 11 6
v 5 12 8
v 5 12 6
v 8 1 6
v 8 1 5
v 8 1 -7
v 8 1 -9
v 8 2 -8
v 8 2 -9
v 8 3 -8
v 8 3 -9
v 8 4 -8
v 8 4 -9
v 8 5 -8
v 8 5 -9
v 8 6 -8
v 8 6 -9
v 8 7 -7
v 8 7 -8
v 8 7 -9
v 8 8 -8
v 8 8 -9
v 8 9 -8
v 8 9 -9
v 8 18 6
v 8 18 5
v 8 18 -8
v 8 18 -9
v -8 1 6
v -8 1 5
v -8 1 -7
v -8 1 -9
v -8 2 -8
v -8 2 -9
v -8 3 -8
v -8 3 -9
v -8 4 -8
v -8 4 -9
v -8 5 -8
v -8 5 -9
v -8 6 -8
v -8 6 -9
v -8 7 -7
v -8 7 -8
v -8 7 -9
v -8 8 -8
v -8 8 -9
v -8 9 -8
v -8 9 -9
v -8 18 6
v -8 18 5
v -8 18 -8
v -8 18 -9
v -5 17 6
v -5 17 5
v -5 18 6
v -5 18 5
v -3 17 6
v -3 17 5
v -3 18 6
v -3 18 5
v 6 8 8
v 6 8 6
v 6 9 7
v 6 9 6
v 6 11 7
v 6 11 6
v 6 12 8
v 6 12 6
v 7 2 6
v 7 2 5
v 7 17 6
v 7 17 5
v 9 0 6
v 9 0 -9
v 9 19 6
v 9 19 -9
v 5 8 8
v 5 12 8
v 6 8 8
v 6 12 8
v -9 0 6
v -9 19 6
v -8 1 6
v -8 18 6
v -7 2 6
v -7 17 6
v -6 3 6
v -6 16 6
v -6 17 6
v -6 18 6
v -5 17 6
v -5 18 6
v -4 17 6
v -4 18 6
v -3 17 6
v -3 18 6
v 5 8 6
v 5 9 6
v 5 11 6
v 5 12 6
v 6 3 6
v 6 8 6
v 6 9 6
v 6 11 6
v 6 12 6
v 6 16 6
v 7 2 6
v 7 17 6
v 8 1 6
v 8 18 6
v 9 0 6
v 9 19 6
v -8 1 5
v -8 18 5
v -7 2 5
v -7 17 5
v -6 17 5
v -6 18 5
v -5 17 5
v -5 18 5
v -4 17 5
v -4 18 5
v -3 17 5
v -3 18 5
v 7 2 5
v 7 17 5
v 8 1 5
v 8 18 5
v -8 2 -8
v -8 3 -8
v -8 4 -8
v -8 5 -8
v -8 6 -8
v -8 7 -8
v 8 2 -8
v 8 3 -8
v 8 4 -8
v 8 5 -8
v 8 6 -8
v 8 7 -8
v 5 9 7
v 5 11 7
v 6 9 7
v 6 11 7
v -8 1 -7
v -8 7 -7
v 8 1 -7
v 8 7 -7
v -8 7 -8
v -8 8 -8
v -8 9 -8
v -8 18 -8
v -7 10 -8
v -7 14 -8
v -7 15 -8
v -7 17 -8
v -5 10 -8
v -5 14 -8
v -5 15 -8
v -5 17 -8
v -4 10 -8
v -4 17 -8
v 1 10 -8
v 1 17 -8
v 2 10 -8
v 2 17 -8
v 7 10 -8
v 7 17 -8
v 8 7 -8
v 8 8 -8
v 8 9 -8
v 8 18 -8
v -9 0 -9
v -9 19 -9
v -8 1 -9
v -8 2 -9
v -8 3 -9
v -8 4 -9
v -8 5 -9
v -8 6 -9
v -8 7 -9
v -8 8 -9
v -8 9 -9
v -8 18 -9
v 8 1 -9
v 8 2 -9
v 8 3 -9
v 8 4 -9
v 8 5 -9
v 8 6 -9
v 8 7 -9
v 8 8 -9
v 8 9 -9
v 8 18 -9
v 9 0 -9
v 9 19 -9
v -9 0 6
v 9 0 6
v -9 0 -9
v 9 0 -9
v -7 2 6
v 7 2 6
v -7 2 5
v 7 2 5
v -8 2 -8
v 8 2 -8
v -8 2 -9
v 8 2 -9
v -8 4 -8
v 8 4 -8
v -8 4 -9
v 8 4 -9
v -8 6 -8
v 8 6 -8
v -8 6 -9
v 8 6 -9
v -8 7 -7
v 8 7 -7
v -8 7 -8
v 8 7 -8
v 5 8 8
v 6 8 8
v 5 8 6
v 6 8 6
v -8 8 -8
v 8 8 -8
v -8 8 -9
v 8 8 -9
v 5 11 7
v 6 11 7
v 5 11 6
v 6 11 6
v -8 18 6
v -6 18 6
v -5 18 6
v -4 18 6
v -3 18 6
v 8 18 6
v -8 18 5
v -6 18 5
v -5 18 5
v -4 18 5
v -3 18 5
v 8 18 5
v -8 18 -8
v 8 18 -8
v -8 18 -9
v 8 18 -9
v -8 1 6
v 8 1 6
v -8 1 5
v 8 1 5
v -8 1 -7
v 8 1 -7
v -8 1 -9
v 8 1 -9
v -8 3 -8
v 8 3 -8
v -8 3 -9
v 8 3 -9
v -8 5 -8
v 8 5 -8
v -8 5 -9
v 8 5 -9
v -8 7 -8
v 8 7 -8
v -8 7 -9
v 8 7 -9
v 5 9 7
v 6 9 7
v 5 9 6
v 6 9 6
v -8 9 -8
v 8 9 -8
v -8 9 -9
v 8 9 -9
v 5 12 8
v 6 12 8
v 5 12 6
v 6 12 6
v -7 17 6
v -6 17 6
v -5 17 6
v -4 17 6
v -3 17 6
v 7 17 6
v -7 17 5
v -6 17 5
v -5 17 5
v -4 17 5
v -3 17 5
v 7 17 5
v -9 19 6
v 9 19 6
v -9 19 -9
v 9 19 -9

# faces
f 3/3/1 2/3/1 1/3/1
f 4/3/1 2/3/1 3/3/1
f 7/4/1 6/4/1 5/4/1
f 8/4/1 6/4/1 7/4/1
f 11/2/1 10/2/1 9/2/1
f 12/2/1 10/2/1 11/2/1
f 15/1/1 14/1/1 13/1/1
f 16/1/1 14/1/1 15/1/1
f 19/3/1 18/3/1 17/3/1
f 20/3/1 18/3/1 19/3/1
f 21/3/1 19/3/1 17/3/1
f 23/3/1 21/3/1 17/3/1
f 23/3/1 22/3/1 21/3/1
f 24/3/1 22/3/1 23/3/1
f 29/3/1 28/3/1 27/3/1
f 30/3/1 28/3/1 29/3/1
f 31/3/1 29/3/1 27/3/1
f 33/3/1 31/3/1 27/3/1
f 33/3/1 32/3/1 31/3/1
f 34/3/1 32/3/1 33/3/1
f 35/3/1 33/3/1 27/3/1
f 37/3/1 35/3/1 27/3/1
f 37/3/1 36/3/1 35/3/1
f 38/3/1 36/3/1 37/3/1
f 39/3/1 37/3/1 27/3/1
f 40/3/1 37/3/1 39/3/1
f 42/3/1 41/3/1 40/3/1
f 43/3/1 41/3/1 42/3/1
f 46/3/1 26/3/1 25/3/1
f 47/3/1 26/3/1 46/3/1
f 48/3/1 45/3/1 44/3/1
f 49/3/1 45/3/1 48/3/1
f 52/3/2 53/3/2 54/3/2
f 54/3/2 53/3/2 55/3/2
f 52/3/2 54/3/2 56/3/2
f 52/3/2 56/3/2 58/3/2
f 56/3/2 57/3/2 58/3/2
f 58/3/2 57/3/2 59/3/2
f 52/3/2 58/3/2 60/3/2
f 52/3/2 60/3/2 62/3/2
f 60/3/2 61/3/2 62/3/2
f 62/3/2 61/3/2 63/3/2
f 52/3/2 62/3/2 64/3/2
f 64/3/2 62/3/2 65/3/2
f 65/3/2 66/3/2 67/3/2
f 67/3/2 66/3/2 68/3/2
f 50/3/2 51/3/2 71/3/2
f 71/3/2 51/3/2 72/3/2
f 69/3/2 70/3/2 73/3/2
f 73/3/2 70/3/2 74/3/2
f 75/2/2 76/2/2 77/2/2
f 77/2/2 76/2/2 78/2/2
f 79/1/2 80/1/2 81/1/2
f 81/1/2 80/1/2 82/1/2
f 83/3/2 84/3/2 85/3/2
f 85/3/2 84/3/2 86/3/2
f 83/3/2 85/3/2 87/3/2
f 83/3/2 87/3/2 89/3/2
f 87/3/2 88/3/2 89/3/2
f 89/3/2 88/3/2 90/3/2
f 91/4/2 92/4/2 93/4/2
f 93/4/2 92/4/2 94/4/2
f 95/3/2 96/3/2 97/3/2
f 97/3/2 96/3/2 98/3/2
f 101/3/3 100/3/3 99/3/3
f 102/3/3 100/3/3 101/3/3
f 105/3/3 104/3/3 103/3/3
f 106/3/3 104/3/3 105/3/3
f 109/4/3 108/4/3 107/4/3
f 110/4/3 108/4/3 109/4/3
f 111/4/3 108/4/3 110/4/3
f 112/3/3 104/3/3 106/3/3
f 113/4/3 111/4/3 110/4/3
f 113/2/3 112/2/3 111/2/3
f 114/3/3 104/3/3 112/3/3
f 114/2/3 112/2/3 113/2/3
f 115/4/3 113/4/3 110/4/3
f 116/3/3 104/3/3 114/3/3
f 117/4/3 115/4/3 110/4/3
f 117/1/3 116/1/3 115/1/3
f 118/3/3 104/3/3 116/3/3
f 118/1/3 116/1/3 117/1/3
f 119/3/3 110/3/3 109/3/3
f 120/3/3 110/3/3 119/3/3
f 121/3/3 110/3/3 120/3/3
f 122/3/3 110/3/3 121/3/3
f 123/4/3 109/4/3 107/4/3
f 123/3/3 119/3/3 109/3/3
f 124/3/3 119/3/3 123/3/3
f 125/3/3 121/3/3 120/3/3
f 126/3/3 121/3/3 125/3/3
f 127/3/3 110/3/3 122/3/3
f 128/4/3 117/4/3 110/4/3
f 128/3/3 110/3/3 127/3/3
f 129/4/3 127/4/3 126/4/3
f 129/4/3 126/4/3 125/4/3
f 129/4/3 128/4/3 127/4/3
f 129/4/3 124/4/3 123/4/3
f 129/4/3 125/4/3 124/4/3
f 129/4/3 123/4/3 107/4/3
f 130/4/3 117/4/3 128/4/3
f 130/4/3 128/4/3 129/4/3
f 131/3/3 105/3/3 103/3/3
f 132/3/3 104/3/3 118/3/3
f 133/3/3 131/3/3 103/3/3
f 133/3/3 132/3/3 131/3/3
f 134/3/3 104/3/3 132/3/3
f 134/3/3 132/3/3 133/3/3
f 137/3/3 136/3/3 135/3/3
f 138/3/3 136/3/3 137/3/3
f 139/3/3 136/3/3 138/3/3
f 140/3/3 136/3/3 139/3/3
f 143/3/3 142/3/3 141/3/3
f 144/3/3 142/3/3 143/3/3
f 147/3/3 137/3/3 135/3/3
f 148/3/3 146/3/3 145/3/3
f 149/3/3 147/3/3 135/3/3
f 149/3/3 148/3/3 147/3/3
f 150/3/3 146/3/3 148/3/3
f 150/3/3 148/3/3 149/3/3
f 157/5/3 152/5/3 151/5/3
f 158/5/3 152/5/3 157/5/3
f 159/5/3 154/5/3 153/5/3
f 160/5/3 154/5/3 159/5/3
f 161/5/3 156/5/3 155/5/3
f 162/5/3 156/5/3 161/5/3
f 163/3/4 164/3/4 165/3/4
f 165/3/4 164/3/4 166/3/4
f 167/6/4 168/6/4 169/6/4
f 169/6/4 168/6/4 170/6/4
f 173/3/4 174/3/4 175/3/4
f 175/3/4 174/3/4 176/3/4
f 176/3/4 174/3/4 177/3/4
f 177/3/4 174/3/4 178/3/4
f 173/3/4 175/3/4 179/3/4
f 175/5/4 176/5/4 179/5/4
f 176/3/4 177/3/4 180/3/4
f 179/5/4 176/5/4 180/5/4
f 177/5/4 178/5/4 181/5/4
f 180/3/4 177/3/4 181/3/4
f 178/3/4 174/3/4 182/3/4
f 181/5/4 178/5/4 182/5/4
f 180/3/4 181/3/4 183/3/4
f 179/3/4 180/3/4 183/3/4
f 181/3/4 182/3/4 183/3/4
f 173/3/4 179/3/4 183/3/4
f 182/3/4 174/3/4 184/3/4
f 183/3/4 182/3/4 184/3/4
f 173/3/4 183/3/4 185/3/4
f 183/5/4 184/5/4 185/5/4
f 184/3/4 174/3/4 186/3/4
f 185/5/4 184/5/4 186/5/4
f 173/3/4 185/3/4 187/3/4
f 185/3/4 186/3/4 187/3/4
f 186/3/4 174/3/4 188/3/4
f 187/3/4 186/3/4 188/3/4
f 173/3/4 187/3/4 189/3/4
f 187/5/4 188/5/4 189/5/4
f 188/3/4 174/3/4 190/3/4
f 189/5/4 188/5/4 190/5/4
f 171/6/4 172/6/4 191/6/4
f 191/6/4 172/6/4 192/6/4
f 173/3/4 189/3/4 193/3/4
f 189/3/4 190/3/4 193/3/4
f 190/3/4 174/3/4 194/3/4
f 193/3/4 190/3/4 194/3/4
f 195/3/4 196/3/4 197/3/4
f 197/3/4 196/3/4 198/3/4
f 198/3/4 196/3/4 199/3/4
f 199/3/4 196/3/4 200/3/4
f 200/3/4 196/3/4 201/3/4
f 201/3/4 196/3/4 202/3/4
f 202/3/4 196/3/4 203/3/4
f 203/3/4 196/3/4 204/3/4
f 204/3/4 196/3/4 205/3/4
f 205/3/4 196/3/4 206/3/4
f 195/3/4 197/3/4 207/3/4
f 198/5/4 199/5/4 208/5/4
f 208/5/4 199/5/4 209/5/4
f 200/5/4 201/5/4 210/5/4
f 210/5/4 201/5/4 211/5/4
f 202/5/4 203/5/4 212/5/4
f 212/5/4 203/5/4 213/5/4
f 204/5/4 205/5/4 214/5/4
f 214/5/4 205/5/4 215/5/4
f 206/3/4 196/3/4 216/3/4
f 214/3/4 215/3/4 217/3/4
f 215/3/4 216/3/4 217/3/4
f 212/3/4 213/3/4 217/3/4
f 195/3/4 207/3/4 217/3/4
f 213/3/4 214/3/4 217/3/4
f 210/3/4 211/3/4 217/3/4
f 211/3/4 212/3/4 217/3/4
f 208/3/4 209/3/4 217/3/4
f 209/3/4 210/3/4 217/3/4
f 207/3/4 208/3/4 217/3/4
f 216/3/4 196/3/4 218/3/4
f 217/3/4 216/3/4 218/3/4
f 221/3/5 220/3/5 219/3/5
f 222/3/5 220/3/5 221/3/5
f 225/4/5 224/4/5 223/4/5
f 226/4/5 224/4/5 225/4/5
f 229/5/5 228/5/5 227/5/5
f 230/5/5 228/5/5 229/5/5
f 233/5/5 232/5/5 231/5/5
f 234/5/5 232/5/5 233/5/5
f 237/5/5 236/5/5 235/5/5
f 238/5/5 236/5/5 237/5/5
f 241/6/5 240/6/5 239/6/5
f 242/6/5 240/6/5 241/6/5
f 245/3/5 244/3/5 243/3/5
f 246/3/5 244/3/5 245/3/5
f 249/5/5 248/5/5 247/5/5
f 250/5/5 248/5/5 249/5/5
f 253/3/5 252/3/5 251/3/5
f 254/3/5 252/3/5 253/3/5
f 261/3/5 256/3/5 255/3/5
f 262/3/5 256/3/5 261/3/5
f 263/3/5 258/3/5 257/3/5
f 264/3/5 258/3/5 263/3/5
f 265/3/5 260/3/5 259/3/5
f 266/3/5 260/3/5 265/3/5
f 269/3/5 268/3/5 267/3/5
f 270/3/5 268/3/5 269/3/5
f 271/3/6 272/3/6 273/3/6
f 273/3/6 272/3/6 274/3/6
f 275/3/6 276/3/6 277/3/6
f 277/3/6 276/3/6 278/3/6
f 279/5/6 280/5/6 281/5/6
f 281/5/6 280/5/6 282/5/6
f 283/5/6 284/5/6 285/5/6
f 285/5/6 284/5/6 286/5/6
f 287/5/6 288/5/6 289/5/6
f 289/5/6 288/5/6 290/5/6
f 291/3/6 292/3/6 293/3/6
f 293/3/6 292/3/6 294/3/6
f 295/5/6 296/5/6 297/5/6
f 297/5/6 296/5/6 298/5/6
f 299/3/6 300/3/6 301/3/6
f 301/3/6 300/3/6 302/3/6
f 303/4/6 304/4/6 309/4/6
f 309/4/6 304/4/6 310/4/6
f 305/4/6 306/4/6 311/4/6
f 311/4/6 306/4/6 312/4/6
f 307/4/6 308/4/6 313/4/6
f 313/4/6 308/4/6 314/4/6
f 315/3/6 316/3/6 317/3/6
f 317/3/6 316/3/6 318/3/6
