# MagicaVoxel @ Ephtracy

# group
g obj_tv_table

# material
mtllib obj_tv_table.mtl
usemtl palette

# normals
vn -1 0 0
vn 1 0 0
vn 0 0 1
vn 0 0 -1
vn 0 -1 0
vn 0 1 0

# texcoords
vt 0.0566406 0.5
vt 0.330078 0.5
vt 0.333984 0.5
vt 0.990234 0.5
vt 0.994141 0.5

# verts
v -9 0 -2
v -9 0 -9
v -9 7 -2
v -9 7 -9
v -7 1 -2
v -7 1 -3
v -7 6 -2
v -7 6 -3
v -7 10 -5
v -7 10 -6
v -7 18 -5
v -7 18 -6
v -4 7 -4
v -4 7 -7
v -4 8 -4
v -4 8 -7
v -2 4 -0
v -2 4 -2
v -2 5 -0
v -2 5 -2
v -1 8 -5
v -1 8 -6
v -1 10 -5
v -1 10 -6
v 1 4 -1
v 1 4 -2
v 1 5 -1
v 1 5 -2
v 8 1 -2
v 8 1 -3
v 8 6 -2
v 8 6 -3
v -8 1 -2
v -8 1 -3
v -8 6 -2
v -8 6 -3
v -1 4 -1
v -1 4 -2
v -1 5 -1
v -1 5 -2
v 1 8 -5
v 1 8 -6
v 1 10 -5
v 1 10 -6
v 2 4 -0
v 2 4 -2
v 2 5 -0
v 2 5 -2
v 4 7 -4
v 4 7 -7
v 4 8 -4
v 4 8 -7
v 7 1 -2
v 7 1 -3
v 7 6 -2
v 7 6 -3
v 7 10 -5
v 7 10 -6
v 7 18 -5
v 7 18 -6
v 9 0 -2
v 9 0 -9
v 9 7 -2
v 9 7 -9
v -2 4 -0
v -2 5 -0
v 2 4 -0
v 2 5 -0
v -9 0 -2
v -9 7 -2
v -8 1 -2
v -8 6 -2
v -7 1 -2
v -7 6 -2
v -6 2 -2
v -6 5 -2
v -2 4 -2
v -2 5 -2
v -1 4 -2
v -1 5 -2
v 1 4 -2
v 1 5 -2
v 2 4 -2
v 2 5 -2
v 6 2 -2
v 6 5 -2
v 7 1 -2
v 7 6 -2
v 8 1 -2
v 8 6 -2
v 9 0 -2
v 9 7 -2
v -8 1 -3
v -8 6 -3
v -7 1 -3
v -7 6 -3
v 7 1 -3
v 7 6 -3
v 8 1 -3
v 8 6 -3
v -4 7 -4
v -4 8 -4
v 4 7 -4
v 4 8 -4
v -7 10 -5
v -7 18 -5
v -6 11 -5
v -6 17 -5
v -1 8 -5
v -1 10 -5
v 1 8 -5
v 1 10 -5
v 5 10 -5
v 5 11 -5
v 6 10 -5
v 6 11 -5
v 6 17 -5
v 7 10 -5
v 7 18 -5
v -1 4 -1
v -1 5 -1
v 1 4 -1
v 1 5 -1
v -7 10 -6
v -7 18 -6
v -6 11 -6
v -6 17 -6
v -1 8 -6
v -1 10 -6
v 1 8 -6
v 1 10 -6
v 5 10 -6
v 5 11 -6
v 6 10 -6
v 6 11 -6
v 6 17 -6
v 7 10 -6
v 7 18 -6
v -4 7 -7
v -4 8 -7
v 4 7 -7
v 4 8 -7
v -9 0 -9
v -9 7 -9
v 9 0 -9
v 9 7 -9
v -9 0 -2
v 9 0 -2
v -9 0 -9
v 9 0 -9
v -2 4 -0
v 2 4 -0
v -1 4 -1
v 1 4 -1
v -2 4 -2
v -1 4 -2
v 1 4 -2
v 2 4 -2
v -8 6 -2
v -7 6 -2
v 7 6 -2
v 8 6 -2
v -8 6 -3
v -7 6 -3
v 7 6 -3
v 8 6 -3
v -7 10 -5
v -1 10 -5
v 1 10 -5
v 5 10 -5
v 6 10 -5
v 7 10 -5
v -7 10 -6
v -1 10 -6
v 1 10 -6
v 5 10 -6
v 6 10 -6
v 7 10 -6
v -8 1 -2
v -7 1 -2
v 7 1 -2
v 8 1 -2
v -8 1 -3
v -7 1 -3
v 7 1 -3
v 8 1 -3
v -2 5 -0
v 2 5 -0
v -1 5 -1
v 1 5 -1
v -2 5 -2
v -1 5 -2
v 1 5 -2
v 2 5 -2
v -9 7 -2
v 9 7 -2
v -4 7 -4
v 4 7 -4
v -4 7 -7
v 4 7 -7
v -9 7 -9
v 9 7 -9
v -4 8 -4
v 4 8 -4
v -1 8 -5
v 1 8 -5
v -1 8 -6
v 1 8 -6
v -4 8 -7
v 4 8 -7
v -7 18 -5
v 7 18 -5
v -7 18 -6
v 7 18 -6

# faces
f 3/2/1 2/2/1 1/2/1
f 4/2/1 2/2/1 3/2/1
f 7/3/1 6/3/1 5/3/1
f 8/3/1 6/3/1 7/3/1
f 11/4/1 10/4/1 9/4/1
f 12/4/1 10/4/1 11/4/1
f 15/4/1 14/4/1 13/4/1
f 16/4/1 14/4/1 15/4/1
f 19/2/1 18/2/1 17/2/1
f 20/2/1 18/2/1 19/2/1
f 23/4/1 22/4/1 21/4/1
f 24/4/1 22/4/1 23/4/1
f 27/2/1 26/2/1 25/2/1
f 28/2/1 26/2/1 27/2/1
f 31/2/1 30/2/1 29/2/1
f 32/2/1 30/2/1 31/2/1
f 33/2/2 34/2/2 35/2/2
f 35/2/2 34/2/2 36/2/2
f 37/2/2 38/2/2 39/2/2
f 39/2/2 38/2/2 40/2/2
f 41/4/2 42/4/2 43/4/2
f 43/4/2 42/4/2 44/4/2
f 45/2/2 46/2/2 47/2/2
f 47/2/2 46/2/2 48/2/2
f 49/4/2 50/4/2 51/4/2
f 51/4/2 50/4/2 52/4/2
f 53/3/2 54/3/2 55/3/2
f 55/3/2 54/3/2 56/3/2
f 57/4/2 58/4/2 59/4/2
f 59/4/2 58/4/2 60/4/2
f 61/2/2 62/2/2 63/2/2
f 63/2/2 62/2/2 64/2/2
f 67/2/3 66/2/3 65/2/3
f 68/2/3 66/2/3 67/2/3
f 71/2/3 70/2/3 69/2/3
f 72/2/3 70/2/3 71/2/3
f 73/2/3 71/2/3 69/2/3
f 74/2/3 70/2/3 72/2/3
f 75/3/3 74/3/3 73/3/3
f 76/3/3 74/3/3 75/3/3
f 77/2/3 76/2/3 75/2/3
f 78/3/3 74/3/3 76/3/3
f 78/2/3 76/2/3 77/2/3
f 79/2/3 77/2/3 75/2/3
f 80/3/3 74/3/3 78/3/3
f 81/2/3 79/2/3 75/2/3
f 81/2/3 80/2/3 79/2/3
f 82/3/3 74/3/3 80/3/3
f 82/2/3 80/2/3 81/2/3
f 83/2/3 81/2/3 75/2/3
f 84/3/3 74/3/3 82/3/3
f 85/3/3 75/3/3 73/3/3
f 85/2/3 84/2/3 83/2/3
f 85/2/3 83/2/3 75/2/3
f 86/3/3 74/3/3 84/3/3
f 86/2/3 84/2/3 85/2/3
f 87/2/3 73/2/3 69/2/3
f 87/3/3 85/3/3 73/3/3
f 87/3/3 86/3/3 85/3/3
f 88/3/3 74/3/3 86/3/3
f 88/3/3 86/3/3 87/3/3
f 88/2/3 70/2/3 74/2/3
f 89/2/3 87/2/3 69/2/3
f 90/2/3 70/2/3 88/2/3
f 91/2/3 89/2/3 69/2/3
f 91/2/3 90/2/3 89/2/3
f 92/2/3 70/2/3 90/2/3
f 92/2/3 90/2/3 91/2/3
f 95/2/3 94/2/3 93/2/3
f 96/2/3 94/2/3 95/2/3
f 99/2/3 98/2/3 97/2/3
f 100/2/3 98/2/3 99/2/3
f 103/4/3 102/4/3 101/4/3
f 104/4/3 102/4/3 103/4/3
f 107/4/3 106/4/3 105/4/3
f 108/4/3 106/4/3 107/4/3
f 110/4/3 107/4/3 105/4/3
f 111/4/3 110/4/3 109/4/3
f 112/4/3 107/4/3 110/4/3
f 112/4/3 110/4/3 111/4/3
f 113/4/3 107/4/3 112/4/3
f 114/5/3 108/5/3 107/5/3
f 114/4/3 107/4/3 113/4/3
f 115/1/3 114/1/3 113/1/3
f 116/5/3 108/5/3 114/5/3
f 116/1/3 114/1/3 115/1/3
f 117/4/3 106/4/3 108/4/3
f 117/5/3 108/5/3 116/5/3
f 118/4/3 116/4/3 115/4/3
f 118/4/3 117/4/3 116/4/3
f 119/4/3 106/4/3 117/4/3
f 119/4/3 117/4/3 118/4/3
f 120/2/4 121/2/4 122/2/4
f 122/2/4 121/2/4 123/2/4
f 124/4/4 125/4/4 126/4/4
f 126/4/4 125/4/4 127/4/4
f 124/4/4 126/4/4 129/4/4
f 128/4/4 129/4/4 130/4/4
f 129/4/4 126/4/4 131/4/4
f 130/4/4 129/4/4 131/4/4
f 131/4/4 126/4/4 132/4/4
f 126/5/4 127/5/4 133/5/4
f 132/4/4 126/4/4 133/4/4
f 132/1/4 133/1/4 134/1/4
f 133/5/4 127/5/4 135/5/4
f 134/1/4 133/1/4 135/1/4
f 127/4/4 125/4/4 136/4/4
f 135/5/4 127/5/4 136/5/4
f 134/4/4 135/4/4 137/4/4
f 135/4/4 136/4/4 137/4/4
f 136/4/4 125/4/4 138/4/4
f 137/4/4 136/4/4 138/4/4
f 139/4/4 140/4/4 141/4/4
f 141/4/4 140/4/4 142/4/4
f 143/2/4 144/2/4 145/2/4
f 145/2/4 144/2/4 146/2/4
f 149/2/5 148/2/5 147/2/5
f 150/2/5 148/2/5 149/2/5
f 153/2/5 152/2/5 151/2/5
f 154/2/5 152/2/5 153/2/5
f 155/2/5 153/2/5 151/2/5
f 156/2/5 153/2/5 155/2/5
f 157/2/5 152/2/5 154/2/5
f 158/2/5 152/2/5 157/2/5
f 163/2/5 160/2/5 159/2/5
f 164/2/5 160/2/5 163/2/5
f 165/2/5 162/2/5 161/2/5
f 166/2/5 162/2/5 165/2/5
f 173/4/5 168/4/5 167/4/5
f 174/4/5 168/4/5 173/4/5
f 175/4/5 170/4/5 169/4/5
f 176/1/5 171/1/5 170/1/5
f 176/4/5 170/4/5 175/4/5
f 177/4/5 172/4/5 171/4/5
f 177/1/5 171/1/5 176/1/5
f 178/4/5 172/4/5 177/4/5
f 179/2/6 180/2/6 183/2/6
f 183/2/6 180/2/6 184/2/6
f 181/2/6 182/2/6 185/2/6
f 185/2/6 182/2/6 186/2/6
f 187/2/6 188/2/6 189/2/6
f 189/2/6 188/2/6 190/2/6
f 187/2/6 189/2/6 191/2/6
f 191/2/6 189/2/6 192/2/6
f 190/2/6 188/2/6 193/2/6
f 193/2/6 188/2/6 194/2/6
f 195/2/6 196/2/6 197/2/6
f 197/2/6 196/2/6 198/2/6
f 195/2/6 197/2/6 199/2/6
f 198/2/6 196/2/6 200/2/6
f 195/2/6 199/2/6 201/2/6
f 199/2/6 200/2/6 201/2/6
f 200/2/6 196/2/6 202/2/6
f 201/2/6 200/2/6 202/2/6
f 203/4/6 204/4/6 205/4/6
f 205/4/6 204/4/6 206/4/6
f 203/4/6 205/4/6 207/4/6
f 206/4/6 204/4/6 208/4/6
f 203/4/6 207/4/6 209/4/6
f 207/4/6 208/4/6 209/4/6
f 208/4/6 204/4/6 210/4/6
f 209/4/6 208/4/6 210/4/6
f 211/4/6 212/4/6 213/4/6
f 213/4/6 212/4/6 214/4/6
