# MagicaVoxel @ Ephtracy

# group
g obj_milk

# material
mtllib obj_milk.mtl
usemtl palette

# normals
vn -1 0 0
vn 1 0 0
vn 0 0 1
vn 0 0 -1
vn 0 -1 0
vn 0 1 0

# texcoords
vt 0.0292969 0.5
vt 0.751953 0.5
vt 0.958984 0.5

# verts
v -2 5 1
v -2 5 -2
v -2 6 1
v -2 6 -2
v -1 0 1
v -1 0 -2
v -1 5 2
v -1 5 1
v -1 5 -2
v -1 5 -3
v -1 6 2
v -1 6 1
v -1 6 -2
v -1 6 -3
v -1 7 1
v -1 7 -2
v 0 7 -0
v 0 7 -1
v 0 9 -0
v 0 9 -1
v 1 7 -0
v 1 7 -1
v 1 9 -0
v 1 9 -1
v 2 0 1
v 2 0 -2
v 2 5 2
v 2 5 1
v 2 5 -2
v 2 5 -3
v 2 6 2
v 2 6 1
v 2 6 -2
v 2 6 -3
v 2 7 1
v 2 7 -2
v 3 5 1
v 3 5 -2
v 3 6 1
v 3 6 -2
v -1 5 2
v -1 6 2
v 2 5 2
v 2 6 2
v -2 5 1
v -2 6 1
v -1 0 1
v -1 5 1
v -1 6 1
v -1 7 1
v 2 0 1
v 2 5 1
v 2 6 1
v 2 7 1
v 3 5 1
v 3 6 1
v 0 7 -0
v 0 9 -0
v 1 7 -0
v 1 9 -0
v 0 7 -1
v 0 9 -1
v 1 7 -1
v 1 9 -1
v -2 5 -2
v -2 6 -2
v -1 0 -2
v -1 5 -2
v -1 6 -2
v -1 7 -2
v 2 0 -2
v 2 5 -2
v 2 6 -2
v 2 7 -2
v 3 5 -2
v 3 6 -2
v -1 5 -3
v -1 6 -3
v 2 5 -3
v 2 6 -3
v -1 0 1
v 2 0 1
v -1 0 -2
v 2 0 -2
v -1 5 2
v 2 5 2
v -2 5 1
v -1 5 1
v 2 5 1
v 3 5 1
v -2 5 -2
v -1 5 -2
v 2 5 -2
v 3 5 -2
v -1 5 -3
v 2 5 -3
v -1 6 2
v 2 6 2
v -2 6 1
v -1 6 1
v 2 6 1
v 3 6 1
v -2 6 -2
v -1 6 -2
v 2 6 -2
v 3 6 -2
v -1 6 -3
v 2 6 -3
v -1 7 1
v 2 7 1
v 0 7 -0
v 1 7 -0
v 0 7 -1
v 1 7 -1
v -1 7 -2
v 2 7 -2
v 0 9 -0
v 1 9 -0
v 0 9 -1
v 1 9 -1

# faces
f 3/2/1 2/2/1 1/2/1
f 4/2/1 2/2/1 3/2/1
f 8/3/1 6/3/1 5/3/1
f 9/3/1 6/3/1 8/3/1
f 11/2/1 8/2/1 7/2/1
f 12/2/1 8/2/1 11/2/1
f 13/2/1 10/2/1 9/2/1
f 14/2/1 10/2/1 13/2/1
f 15/1/1 13/1/1 12/1/1
f 16/1/1 13/1/1 15/1/1
f 19/1/1 18/1/1 17/1/1
f 20/1/1 18/1/1 19/1/1
f 21/1/2 22/1/2 23/1/2
f 23/1/2 22/1/2 24/1/2
f 25/3/2 26/3/2 28/3/2
f 28/3/2 26/3/2 29/3/2
f 27/2/2 28/2/2 31/2/2
f 31/2/2 28/2/2 32/2/2
f 29/2/2 30/2/2 33/2/2
f 33/2/2 30/2/2 34/2/2
f 32/1/2 33/1/2 35/1/2
f 35/1/2 33/1/2 36/1/2
f 37/2/2 38/2/2 39/2/2
f 39/2/2 38/2/2 40/2/2
f 43/2/3 42/2/3 41/2/3
f 44/2/3 42/2/3 43/2/3
f 48/2/3 46/2/3 45/2/3
f 49/2/3 46/2/3 48/2/3
f 51/3/3 48/3/3 47/3/3
f 52/3/3 48/3/3 51/3/3
f 53/1/3 50/1/3 49/1/3
f 54/1/3 50/1/3 53/1/3
f 55/2/3 53/2/3 52/2/3
f 56/2/3 53/2/3 55/2/3
f 59/1/3 58/1/3 57/1/3
f 60/1/3 58/1/3 59/1/3
f 61/1/4 62/1/4 63/1/4
f 63/1/4 62/1/4 64/1/4
f 65/2/4 66/2/4 68/2/4
f 68/2/4 66/2/4 69/2/4
f 67/3/4 68/3/4 71/3/4
f 71/3/4 68/3/4 72/3/4
f 69/1/4 70/1/4 73/1/4
f 73/1/4 70/1/4 74/1/4
f 72/2/4 73/2/4 75/2/4
f 75/2/4 73/2/4 76/2/4
f 77/2/4 78/2/4 79/2/4
f 79/2/4 78/2/4 80/2/4
f 83/3/5 82/3/5 81/3/5
f 84/3/5 82/3/5 83/3/5
f 88/2/5 86/2/5 85/2/5
f 89/2/5 86/2/5 88/2/5
f 91/2/5 88/2/5 87/2/5
f 92/2/5 88/2/5 91/2/5
f 93/2/5 90/2/5 89/2/5
f 94/2/5 90/2/5 93/2/5
f 95/2/5 93/2/5 92/2/5
f 96/2/5 93/2/5 95/2/5
f 97/2/6 98/2/6 100/2/6
f 100/2/6 98/2/6 101/2/6
f 99/2/6 100/2/6 103/2/6
f 103/2/6 100/2/6 104/2/6
f 101/2/6 102/2/6 105/2/6
f 105/2/6 102/2/6 106/2/6
f 104/2/6 105/2/6 107/2/6
f 107/2/6 105/2/6 108/2/6
f 109/1/6 110/1/6 111/1/6
f 111/1/6 110/1/6 112/1/6
f 109/1/6 111/1/6 113/1/6
f 112/1/6 110/1/6 114/1/6
f 109/1/6 113/1/6 115/1/6
f 113/1/6 114/1/6 115/1/6
f 114/1/6 110/1/6 116/1/6
f 115/1/6 114/1/6 116/1/6
f 117/1/6 118/1/6 119/1/6
f 119/1/6 118/1/6 120/1/6
