# MagicaVoxel @ Ephtracy

# group
g obj_plant_flower

# material
mtllib obj_plant_flower.mtl
usemtl palette

# normals
vn -1 0 0
vn 1 0 0
vn 0 0 1
vn 0 0 -1
vn 0 -1 0
vn 0 1 0

# texcoords
vt 0.224609 0.5
vt 0.373047 0.5
vt 0.478516 0.5
vt 0.494141 0.5
vt 0.642578 0.5
vt 0.669922 0.5
vt 0.958984 0.5

# verts
v -3 1 1
v -3 1 -2
v -3 5 1
v -3 5 -2
v -3 12 -0
v -3 12 -1
v -3 13 -0
v -3 13 -1
v -2 0 1
v -2 0 -2
v -2 1 2
v -2 1 1
v -2 1 -2
v -2 1 -3
v -2 5 2
v -2 5 1
v -2 5 -2
v -2 5 -3
v -2 11 -0
v -2 11 -1
v -2 12 1
v -2 12 -0
v -2 12 -1
v -2 12 -2
v -2 13 1
v -2 13 -0
v -2 13 -1
v -2 13 -2
v -1 3 -0
v -1 3 -1
v -1 11 1
v -1 11 -0
v -1 11 -1
v -1 11 -2
v -1 12 2
v -1 12 1
v -1 12 -0
v -1 12 -1
v -1 12 -2
v -1 12 -3
v -1 13 2
v -1 13 1
v -1 13 -2
v -1 13 -3
v 1 3 1
v 1 3 -2
v 1 5 1
v 1 5 -2
v 1 7 1
v 1 7 -0
v 1 7 -1
v 1 7 -2
v 1 8 1
v 1 8 -0
v 1 8 -1
v 1 8 -2
v -2 3 1
v -2 3 -2
v -2 5 1
v -2 5 -2
v 0 3 -0
v 0 3 -1
v 0 7 -0
v 0 7 -1
v 0 8 -0
v 0 8 -1
v 0 11 1
v 0 11 -0
v 0 11 -1
v 0 11 -2
v 0 12 2
v 0 12 1
v 0 12 -0
v 0 12 -1
v 0 12 -2
v 0 12 -3
v 0 13 2
v 0 13 1
v 0 13 -2
v 0 13 -3
v 1 0 1
v 1 0 -2
v 1 1 2
v 1 1 1
v 1 1 -2
v 1 1 -3
v 1 5 2
v 1 5 1
v 1 5 -2
v 1 5 -3
v 1 11 -0
v 1 11 -1
v 1 12 1
v 1 12 -0
v 1 12 -1
v 1 12 -2
v 1 13 1
v 1 13 -0
v 1 13 -1
v 1 13 -2
v 2 1 1
v 2 1 -2
v 2 5 1
v 2 5 -2
v 2 12 -0
v 2 12 -1
v 2 13 -0
v 2 13 -1
v 3 7 1
v 3 7 -0
v 3 7 -1
v 3 7 -2
v 3 8 1
v 3 8 -0
v 3 8 -1
v 3 8 -2
v 4 7 -0
v 4 7 -1
v 4 8 -0
v 4 8 -1
v -2 1 2
v -2 5 2
v -1 12 2
v -1 13 2
v 0 12 2
v 0 13 2
v 1 1 2
v 1 5 2
v -3 1 1
v -3 5 1
v -2 0 1
v -2 1 1
v -2 5 1
v -2 12 1
v -2 13 1
v -1 11 1
v -1 12 1
v -1 13 1
v 0 11 1
v 0 12 1
v 0 13 1
v 1 0 1
v 1 1 1
v 1 5 1
v 1 7 1
v 1 8 1
v 1 12 1
v 1 13 1
v 2 1 1
v 2 5 1
v 3 7 1
v 3 8 1
v -3 12 -0
v -3 13 -0
v -2 11 -0
v -2 12 -0
v -2 13 -0
v -1 3 -0
v -1 11 -0
v -1 12 -0
v 0 3 -0
v 0 7 -0
v 0 8 -0
v 0 11 -0
v 0 12 -0
v 1 7 -0
v 1 8 -0
v 1 11 -0
v 1 12 -0
v 1 13 -0
v 2 12 -0
v 2 13 -0
v 3 7 -0
v 3 8 -0
v 4 7 -0
v 4 8 -0
v -2 3 -2
v -2 5 -2
v 1 3 -2
v 1 5 -2
v -2 3 1
v -2 5 1
v 1 3 1
v 1 5 1
v -3 12 -1
v -3 13 -1
v -2 11 -1
v -2 12 -1
v -2 13 -1
v -1 3 -1
v -1 11 -1
v -1 12 -1
v 0 3 -1
v 0 7 -1
v 0 8 -1
v 0 11 -1
v 0 12 -1
v 1 7 -1
v 1 8 -1
v 1 11 -1
v 1 12 -1
v 1 13 -1
v 2 12 -1
v 2 13 -1
v 3 7 -1
v 3 8 -1
v 4 7 -1
v 4 8 -1
v -3 1 -2
v -3 5 -2
v -2 0 -2
v -2 1 -2
v -2 5 -2
v -2 12 -2
v -2 13 -2
v -1 11 -2
v -1 12 -2
v -1 13 -2
v 0 11 -2
v 0 12 -2
v 0 13 -2
v 1 0 -2
v 1 1 -2
v 1 5 -2
v 1 7 -2
v 1 8 -2
v 1 12 -2
v 1 13 -2
v 2 1 -2
v 2 5 -2
v 3 7 -2
v 3 8 -2
v -2 1 -3
v -2 5 -3
v -1 12 -3
v -1 13 -3
v 0 12 -3
v 0 13 -3
v 1 1 -3
v 1 5 -3
v -2 0 1
v 1 0 1
v -2 0 -2
v 1 0 -2
v -2 1 2
v 1 1 2
v -3 1 1
v -2 1 1
v 1 1 1
v 2 1 1
v -3 1 -2
v -2 1 -2
v 1 1 -2
v 2 1 -2
v -2 1 -3
v 1 1 -3
v 1 7 1
v 3 7 1
v 0 7 -0
v 1 7 -0
v 3 7 -0
v 4 7 -0
v 0 7 -1
v 1 7 -1
v 3 7 -1
v 4 7 -1
v 1 7 -2
v 3 7 -2
v -1 11 1
v 0 11 1
v -2 11 -0
v -1 11 -0
v 0 11 -0
v 1 11 -0
v -2 11 -1
v -1 11 -1
v 0 11 -1
v 1 11 -1
v -1 11 -2
v 0 11 -2
v -1 12 2
v 0 12 2
v -2 12 1
v -1 12 1
v 0 12 1
v 1 12 1
v -3 12 -0
v -2 12 -0
v -1 12 -0
v 0 12 -0
v 1 12 -0
v 2 12 -0
v -3 12 -1
v -2 12 -1
v -1 12 -1
v 0 12 -1
v 1 12 -1
v 2 12 -1
v -2 12 -2
v -1 12 -2
v 0 12 -2
v 1 12 -2
v -1 12 -3
v 0 12 -3
v -2 3 1
v 1 3 1
v -1 3 -0
v 0 3 -0
v -1 3 -1
v 0 3 -1
v -2 3 -2
v 1 3 -2
v -2 5 2
v 1 5 2
v -3 5 1
v -2 5 1
v 1 5 1
v 2 5 1
v -3 5 -2
v -2 5 -2
v 1 5 -2
v 2 5 -2
v -2 5 -3
v 1 5 -3
v 1 8 1
v 3 8 1
v 0 8 -0
v 1 8 -0
v 3 8 -0
v 4 8 -0
v 0 8 -1
v 1 8 -1
v 3 8 -1
v 4 8 -1
v 1 8 -2
v 3 8 -2
v -1 13 2
v 0 13 2
v -2 13 1
v -1 13 1
v 0 13 1
v 1 13 1
v -3 13 -0
v -2 13 -0
v -1 13 -0
v 0 13 -0
v 1 13 -0
v 2 13 -0
v -3 13 -1
v -2 13 -1
v -1 13 -1
v 0 13 -1
v 1 13 -1
v 2 13 -1
v -2 13 -2
v -1 13 -2
v 0 13 -2
v 1 13 -2
v -1 13 -3
v 0 13 -3

# faces
f 3/6/1 2/6/1 1/6/1
f 4/6/1 2/6/1 3/6/1
f 7/7/1 6/7/1 5/7/1
f 8/7/1 6/7/1 7/7/1
f 12/6/1 10/6/1 9/6/1
f 13/6/1 10/6/1 12/6/1
f 15/6/1 12/6/1 11/6/1
f 16/6/1 12/6/1 15/6/1
f 17/6/1 14/6/1 13/6/1
f 18/6/1 14/6/1 17/6/1
f 22/7/1 20/7/1 19/7/1
f 23/7/1 20/7/1 22/7/1
f 25/7/1 22/7/1 21/7/1
f 26/7/1 22/7/1 25/7/1
f 27/7/1 24/7/1 23/7/1
f 28/7/1 24/7/1 27/7/1
f 32/5/1 30/5/1 29/5/1
f 33/5/1 30/5/1 32/5/1
f 36/7/1 32/7/1 31/7/1
f 37/7/1 32/7/1 36/7/1
f 38/7/1 34/7/1 33/7/1
f 39/7/1 34/7/1 38/7/1
f 41/7/1 36/7/1 35/7/1
f 42/7/1 36/7/1 41/7/1
f 43/7/1 40/7/1 39/7/1
f 44/7/1 40/7/1 43/7/1
f 47/6/1 46/6/1 45/6/1
f 48/6/1 46/6/1 47/6/1
f 53/5/1 50/5/1 49/5/1
f 54/5/1 50/5/1 53/5/1
f 55/5/1 52/5/1 51/5/1
f 56/5/1 52/5/1 55/5/1
f 57/6/2 58/6/2 59/6/2
f 59/6/2 58/6/2 60/6/2
f 61/5/2 62/5/2 63/5/2
f 63/5/2 62/5/2 64/5/2
f 65/5/2 66/5/2 68/5/2
f 68/5/2 66/5/2 69/5/2
f 67/7/2 68/7/2 72/7/2
f 72/7/2 68/7/2 73/7/2
f 69/7/2 70/7/2 74/7/2
f 74/7/2 70/7/2 75/7/2
f 71/7/2 72/7/2 77/7/2
f 77/7/2 72/7/2 78/7/2
f 75/7/2 76/7/2 79/7/2
f 79/7/2 76/7/2 80/7/2
f 81/6/2 82/6/2 84/6/2
f 84/6/2 82/6/2 85/6/2
f 83/6/2 84/6/2 87/6/2
f 87/6/2 84/6/2 88/6/2
f 85/6/2 86/6/2 89/6/2
f 89/6/2 86/6/2 90/6/2
f 91/7/2 92/7/2 94/7/2
f 94/7/2 92/7/2 95/7/2
f 93/7/2 94/7/2 97/7/2
f 97/7/2 94/7/2 98/7/2
f 95/7/2 96/7/2 99/7/2
f 99/7/2 96/7/2 100/7/2
f 101/6/2 102/6/2 103/6/2
f 103/6/2 102/6/2 104/6/2
f 105/7/2 106/7/2 107/7/2
f 107/7/2 106/7/2 108/7/2
f 109/5/2 110/5/2 113/5/2
f 113/5/2 110/5/2 114/5/2
f 111/5/2 112/5/2 115/5/2
f 115/5/2 112/5/2 116/5/2
f 117/5/2 118/5/2 119/5/2
f 119/5/2 118/5/2 120/5/2
f 125/7/3 124/7/3 123/7/3
f 126/7/3 124/7/3 125/7/3
f 127/6/3 122/6/3 121/6/3
f 128/6/3 122/6/3 127/6/3
f 132/6/3 130/6/3 129/6/3
f 133/6/3 130/6/3 132/6/3
f 137/7/3 135/7/3 134/7/3
f 138/7/3 135/7/3 137/7/3
f 139/7/3 137/7/3 136/7/3
f 140/7/3 137/7/3 139/7/3
f 142/6/3 132/6/3 131/6/3
f 143/6/3 132/6/3 142/6/3
f 147/7/3 141/7/3 140/7/3
f 148/7/3 141/7/3 147/7/3
f 149/6/3 144/6/3 143/6/3
f 150/6/3 144/6/3 149/6/3
f 151/5/3 146/5/3 145/5/3
f 152/5/3 146/5/3 151/5/3
f 156/7/3 154/7/3 153/7/3
f 157/7/3 154/7/3 156/7/3
f 159/7/3 156/7/3 155/7/3
f 160/7/3 156/7/3 159/7/3
f 161/5/3 159/5/3 158/5/3
f 162/5/3 159/5/3 161/5/3
f 163/5/3 159/5/3 162/5/3
f 164/5/3 159/5/3 163/5/3
f 166/5/3 163/5/3 162/5/3
f 167/5/3 163/5/3 166/5/3
f 168/7/3 165/7/3 164/7/3
f 169/7/3 165/7/3 168/7/3
f 171/7/3 170/7/3 169/7/3
f 172/7/3 170/7/3 171/7/3
f 175/5/3 174/5/3 173/5/3
f 176/5/3 174/5/3 175/5/3
f 179/6/3 178/6/3 177/6/3
f 180/6/3 178/6/3 179/6/3
f 181/6/4 182/6/4 183/6/4
f 183/6/4 182/6/4 184/6/4
f 185/7/4 186/7/4 188/7/4
f 188/7/4 186/7/4 189/7/4
f 187/7/4 188/7/4 191/7/4
f 191/7/4 188/7/4 192/7/4
f 190/5/4 191/5/4 193/5/4
f 193/5/4 191/5/4 194/5/4
f 194/5/4 191/5/4 195/5/4
f 195/5/4 191/5/4 196/5/4
f 194/5/4 195/5/4 198/5/4
f 198/5/4 195/5/4 199/5/4
f 196/7/4 197/7/4 200/7/4
f 200/7/4 197/7/4 201/7/4
f 201/7/4 202/7/4 203/7/4
f 203/7/4 202/7/4 204/7/4
f 205/5/4 206/5/4 207/5/4
f 207/5/4 206/5/4 208/5/4
f 209/6/4 210/6/4 212/6/4
f 212/6/4 210/6/4 213/6/4
f 214/7/4 215/7/4 217/7/4
f 217/7/4 215/7/4 218/7/4
f 216/7/4 217/7/4 219/7/4
f 219/7/4 217/7/4 220/7/4
f 211/6/4 212/6/4 222/6/4
f 222/6/4 212/6/4 223/6/4
f 220/7/4 221/7/4 227/7/4
f 227/7/4 221/7/4 228/7/4
f 223/6/4 224/6/4 229/6/4
f 229/6/4 224/6/4 230/6/4
f 225/5/4 226/5/4 231/5/4
f 231/5/4 226/5/4 232/5/4
f 235/7/4 236/7/4 237/7/4
f 237/7/4 236/7/4 238/7/4
f 233/6/4 234/6/4 239/6/4
f 239/6/4 234/6/4 240/6/4
f 243/6/5 242/6/5 241/6/5
f 244/6/5 242/6/5 243/6/5
f 248/6/5 246/6/5 245/6/5
f 249/6/5 246/6/5 248/6/5
f 251/6/5 248/6/5 247/6/5
f 252/6/5 248/6/5 251/6/5
f 253/6/5 250/6/5 249/6/5
f 254/6/5 250/6/5 253/6/5
f 255/6/5 253/6/5 252/6/5
f 256/6/5 253/6/5 255/6/5
f 260/5/5 258/5/5 257/5/5
f 261/5/5 258/5/5 260/5/5
f 263/5/5 260/5/5 259/5/5
f 263/5/5 262/5/5 261/5/5
f 263/5/5 261/5/5 260/5/5
f 264/5/5 262/5/5 263/5/5
f 265/5/5 262/5/5 264/5/5
f 266/5/5 262/5/5 265/5/5
f 267/5/5 265/5/5 264/5/5
f 268/5/5 265/5/5 267/5/5
f 272/7/5 270/7/5 269/7/5
f 273/7/5 270/7/5 272/7/5
f 275/7/5 272/7/5 271/7/5
f 276/7/5 272/7/5 275/7/5
f 277/7/5 274/7/5 273/7/5
f 278/7/5 274/7/5 277/7/5
f 279/7/5 277/7/5 276/7/5
f 280/7/5 277/7/5 279/7/5
f 284/7/5 282/7/5 281/7/5
f 285/7/5 282/7/5 284/7/5
f 288/7/5 284/7/5 283/7/5
f 289/7/5 284/7/5 288/7/5
f 290/7/5 286/7/5 285/7/5
f 291/7/5 286/7/5 290/7/5
f 293/7/5 288/7/5 287/7/5
f 294/7/5 288/7/5 293/7/5
f 297/7/5 292/7/5 291/7/5
f 298/7/5 292/7/5 297/7/5
f 299/7/5 295/7/5 294/7/5
f 300/7/5 295/7/5 299/7/5
f 301/7/5 297/7/5 296/7/5
f 302/7/5 297/7/5 301/7/5
f 303/7/5 301/7/5 300/7/5
f 304/7/5 301/7/5 303/7/5
f 305/1/6 306/1/6 307/1/6
f 307/1/6 306/1/6 308/1/6
f 305/1/6 307/1/6 309/1/6
f 308/1/6 306/1/6 310/1/6
f 305/1/6 309/1/6 311/1/6
f 309/1/6 310/1/6 311/1/6
f 310/1/6 306/1/6 312/1/6
f 311/1/6 310/1/6 312/1/6
f 313/6/6 314/6/6 316/6/6
f 316/6/6 314/6/6 317/6/6
f 315/6/6 316/6/6 319/6/6
f 319/6/6 316/6/6 320/6/6
f 317/6/6 318/6/6 321/6/6
f 321/6/6 318/6/6 322/6/6
f 320/6/6 321/6/6 323/6/6
f 323/6/6 321/6/6 324/6/6
f 325/5/6 326/5/6 328/5/6
f 328/5/6 326/5/6 329/5/6
f 327/5/6 328/5/6 331/5/6
f 329/5/6 330/5/6 331/5/6
f 328/5/6 329/5/6 331/5/6
f 331/5/6 330/5/6 332/5/6
f 332/5/6 330/5/6 333/5/6
f 333/5/6 330/5/6 334/5/6
f 332/5/6 333/5/6 335/5/6
f 335/5/6 333/5/6 336/5/6
f 337/7/6 338/7/6 340/7/6
f 340/7/6 338/7/6 341/7/6
f 339/7/6 340/7/6 344/7/6
f 340/3/6 341/3/6 345/3/6
f 344/7/6 340/7/6 345/7/6
f 341/7/6 342/7/6 346/7/6
f 345/3/6 341/3/6 346/3/6
f 346/7/6 342/7/6 347/7/6
f 343/7/6 344/7/6 349/7/6
f 344/3/6 345/3/6 350/3/6
f 349/7/6 344/7/6 350/7/6
f 345/2/6 346/2/6 351/2/6
f 350/3/6 345/3/6 351/3/6
f 346/3/6 347/3/6 352/3/6
f 351/2/6 346/2/6 352/2/6
f 347/7/6 348/7/6 353/7/6
f 352/3/6 347/3/6 353/3/6
f 353/7/6 348/7/6 354/7/6
f 350/7/6 351/7/6 355/7/6
f 351/3/6 352/3/6 356/3/6
f 355/7/6 351/7/6 356/7/6
f 352/7/6 353/7/6 357/7/6
f 356/3/6 352/3/6 357/3/6
f 357/7/6 353/7/6 358/7/6
f 356/7/6 357/7/6 359/7/6
f 359/7/6 357/7/6 360/7/6
