# MagicaVoxel @ Ephtracy

# group
g wall_corner

# material
mtllib wall_corner.mtl
usemtl palette

# normals
vn -1 0 0
vn 1 0 0
vn 0 0 1
vn 0 0 -1
vn 0 -1 0
vn 0 1 0

# texcoords
vt 0.310547 0.5
vt 0.962891 0.5
vt 0.970703 0.5

# verts
v -10 0 10
v -10 0 -10
v -10 3 10
v -10 3 6
v -10 3 5
v -10 3 2
v -10 3 1
v -10 3 -2
v -10 3 -3
v -10 3 -6
v -10 3 -7
v -10 3 -10
v -10 4 10
v -10 4 6
v -10 4 5
v -10 4 2
v -10 4 1
v -10 4 -2
v -10 4 -3
v -10 4 -6
v -10 4 -7
v -10 4 -10
v -10 19 6
v -10 19 5
v -10 19 2
v -10 19 1
v -10 19 -2
v -10 19 -3
v -10 19 -6
v -10 19 -7
v -10 20 10
v -10 20 -10
v -9 3 6
v -9 3 5
v -9 3 2
v -9 3 1
v -9 3 -2
v -9 3 -3
v -9 3 -6
v -9 3 -7
v -9 4 6
v -9 4 5
v -9 4 2
v -9 4 1
v -9 4 -2
v -9 4 -3
v -9 4 -6
v -9 4 -7
v -9 19 6
v -9 19 5
v -9 19 2
v -9 19 1
v -9 19 -2
v -9 19 -3
v -9 19 -6
v -9 19 -7
v -6 3 10
v -6 3 9
v -6 4 10
v -6 4 9
v -6 19 10
v -6 19 9
v -2 3 10
v -2 3 9
v -2 3 7
v -2 3 6
v -2 4 10
v -2 4 9
v -2 4 7
v -2 4 6
v -2 19 10
v -2 19 9
v -2 19 7
v -2 19 6
v 2 3 10
v 2 3 9
v 2 3 7
v 2 3 6
v 2 4 10
v 2 4 9
v 2 4 7
v 2 4 6
v 2 19 10
v 2 19 9
v 2 19 7
v 2 19 6
v 6 3 10
v 6 3 9
v 6 3 7
v 6 3 6
v 6 4 10
v 6 4 9
v 6 4 7
v 6 4 6
v 6 19 10
v 6 19 9
v 6 19 7
v 6 19 6
v -7 3 10
v -7 3 9
v -7 3 6
v -7 3 5
v -7 3 2
v -7 3 1
v -7 3 -2
v -7 3 -3
v -7 3 -6
v -7 3 -7
v -7 4 10
v -7 4 9
v -7 4 6
v -7 4 5
v -7 4 2
v -7 4 1
v -7 4 -2
v -7 4 -3
v -7 4 -6
v -7 4 -7
v -7 19 10
v -7 19 9
v -7 19 6
v -7 19 5
v -7 19 2
v -7 19 1
v -7 19 -2
v -7 19 -3
v -7 19 -6
v -7 19 -7
v -6 0 6
v -6 0 -10
v -6 3 6
v -6 3 5
v -6 3 2
v -6 3 1
v -6 3 -2
v -6 3 -3
v -6 3 -6
v -6 3 -7
v -6 3 -10
v -6 4 5
v -6 4 2
v -6 4 1
v -6 4 -2
v -6 4 -3
v -6 4 -6
v -6 4 -7
v -6 4 -10
v -6 19 6
v -6 19 5
v -6 19 2
v -6 19 1
v -6 19 -2
v -6 19 -3
v -6 19 -6
v -6 19 -7
v -6 20 6
v -6 20 -10
v -3 3 10
v -3 3 9
v -3 3 7
v -3 3 6
v -3 4 10
v -3 4 9
v -3 4 7
v -3 4 6
v -3 19 10
v -3 19 9
v -3 19 7
v -3 19 6
v 1 3 10
v 1 3 9
v 1 3 7
v 1 3 6
v 1 4 10
v 1 4 9
v 1 4 7
v 1 4 6
v 1 19 10
v 1 19 9
v 1 19 7
v 1 19 6
v 5 3 10
v 5 3 9
v 5 3 7
v 5 3 6
v 5 4 10
v 5 4 9
v 5 4 7
v 5 4 6
v 5 19 10
v 5 19 9
v 5 19 7
v 5 19 6
v 9 3 10
v 9 3 9
v 9 3 7
v 9 3 6
v 9 4 10
v 9 4 9
v 9 4 7
v 9 4 6
v 9 19 10
v 9 19 9
v 9 19 7
v 9 19 6
v 10 0 10
v 10 0 6
v 10 3 10
v 10 3 9
v 10 3 7
v 10 3 6
v 10 4 9
v 10 4 7
v 10 19 10
v 10 19 9
v 10 19 7
v 10 19 6
v 10 20 10
v 10 20 6
v -10 0 10
v -10 3 10
v -10 4 10
v -10 20 10
v -7 3 10
v -7 4 10
v -7 19 10
v -6 3 10
v -6 4 10
v -6 19 10
v -3 3 10
v -3 4 10
v -3 19 10
v -2 3 10
v -2 4 10
v -2 19 10
v 1 3 10
v 1 4 10
v 1 19 10
v 2 3 10
v 2 4 10
v 2 19 10
v 5 3 10
v 5 4 10
v 5 19 10
v 6 3 10
v 6 4 10
v 6 19 10
v 9 3 10
v 9 4 10
v 9 19 10
v 10 0 10
v 10 3 10
v 10 19 10
v 10 20 10
v -7 3 9
v -7 4 9
v -7 19 9
v -6 3 9
v -6 4 9
v -6 19 9
v -3 3 9
v -3 4 9
v -3 19 9
v -2 3 9
v -2 4 9
v -2 19 9
v 1 3 9
v 1 4 9
v 1 19 9
v 2 3 9
v 2 4 9
v 2 19 9
v 5 3 9
v 5 4 9
v 5 19 9
v 6 3 9
v 6 4 9
v 6 19 9
v 9 3 9
v 9 4 9
v 9 19 9
v 10 3 9
v 10 4 9
v 10 19 9
v -10 3 5
v -10 4 5
v -10 19 5
v -9 3 5
v -9 4 5
v -9 19 5
v -7 3 5
v -7 4 5
v -7 19 5
v -6 3 5
v -6 4 5
v -6 19 5
v -10 3 1
v -10 4 1
v -10 19 1
v -9 3 1
v -9 4 1
v -9 19 1
v -7 3 1
v -7 4 1
v -7 19 1
v -6 3 1
v -6 4 1
v -6 19 1
v -10 3 -3
v -10 4 -3
v -10 19 -3
v -9 3 -3
v -9 4 -3
v -9 19 -3
v -7 3 -3
v -7 4 -3
v -7 19 -3
v -6 3 -3
v -6 4 -3
v -6 19 -3
v -10 3 -7
v -10 4 -7
v -10 19 -7
v -9 3 -7
v -9 4 -7
v -9 19 -7
v -7 3 -7
v -7 4 -7
v -7 19 -7
v -6 3 -7
v -6 4 -7
v -6 19 -7
v -3 3 7
v -3 4 7
v -3 19 7
v -2 3 7
v -2 4 7
v -2 19 7
v 1 3 7
v 1 4 7
v 1 19 7
v 2 3 7
v 2 4 7
v 2 19 7
v 5 3 7
v 5 4 7
v 5 19 7
v 6 3 7
v 6 4 7
v 6 19 7
v 9 3 7
v 9 4 7
v 9 19 7
v 10 3 7
v 10 4 7
v 10 19 7
v -10 3 6
v -10 4 6
v -10 19 6
v -9 3 6
v -9 4 6
v -9 19 6
v -7 3 6
v -7 4 6
v -7 19 6
v -6 0 6
v -6 3 6
v -6 19 6
v -6 20 6
v -3 3 6
v -3 4 6
v -3 19 6
v -2 3 6
v -2 4 6
v -2 19 6
v 1 3 6
v 1 4 6
v 1 19 6
v 2 3 6
v 2 4 6
v 2 19 6
v 5 3 6
v 5 4 6
v 5 19 6
v 6 3 6
v 6 4 6
v 6 19 6
v 9 3 6
v 9 4 6
v 9 19 6
v 10 0 6
v 10 3 6
v 10 19 6
v 10 20 6
v -10 3 2
v -10 4 2
v -10 19 2
v -9 3 2
v -9 4 2
v -9 19 2
v -7 3 2
v -7 4 2
v -7 19 2
v -6 3 2
v -6 4 2
v -6 19 2
v -10 3 -2
v -10 4 -2
v -10 19 -2
v -9 3 -2
v -9 4 -2
v -9 19 -2
v -7 3 -2
v -7 4 -2
v -7 19 -2
v -6 3 -2
v -6 4 -2
v -6 19 -2
v -10 3 -6
v -10 4 -6
v -10 19 -6
v -9 3 -6
v -9 4 -6
v -9 19 -6
v -7 3 -6
v -7 4 -6
v -7 19 -6
v -6 3 -6
v -6 4 -6
v -6 19 -6
v -10 0 -10
v -10 3 -10
v -10 4 -10
v -10 20 -10
v -6 0 -10
v -6 3 -10
v -6 4 -10
v -6 20 -10
v -10 0 10
v 10 0 10
v -9 0 9
v 9 0 9
v -9 0 8
v 9 0 8
v -9 0 6
v -8 0 6
v -6 0 6
v 10 0 6
v -9 0 -9
v -8 0 -9
v -10 0 -10
v -6 0 -10
v -7 19 10
v -6 19 10
v -3 19 10
v -2 19 10
v 1 19 10
v 2 19 10
v 5 19 10
v 6 19 10
v 9 19 10
v 10 19 10
v -7 19 9
v -6 19 9
v -3 19 9
v -2 19 9
v 1 19 9
v 2 19 9
v 5 19 9
v 6 19 9
v 9 19 9
v 10 19 9
v -3 19 7
v -2 19 7
v 1 19 7
v 2 19 7
v 5 19 7
v 6 19 7
v 9 19 7
v 10 19 7
v -10 19 6
v -9 19 6
v -7 19 6
v -6 19 6
v -3 19 6
v -2 19 6
v 1 19 6
v 2 19 6
v 5 19 6
v 6 19 6
v 9 19 6
v 10 19 6
v -10 19 5
v -9 19 5
v -7 19 5
v -6 19 5
v -10 19 2
v -9 19 2
v -7 19 2
v -6 19 2
v -10 19 1
v -9 19 1
v -7 19 1
v -6 19 1
v -10 19 -2
v -9 19 -2
v -7 19 -2
v -6 19 -2
v -10 19 -3
v -9 19 -3
v -7 19 -3
v -6 19 -3
v -10 19 -6
v -9 19 -6
v -7 19 -6
v -6 19 -6
v -10 19 -7
v -9 19 -7
v -7 19 -7
v -6 19 -7
v -7 3 10
v -6 3 10
v -3 3 10
v -2 3 10
v 1 3 10
v 2 3 10
v 5 3 10
v 6 3 10
v 9 3 10
v 10 3 10
v -7 3 9
v -6 3 9
v -3 3 9
v -2 3 9
v 1 3 9
v 2 3 9
v 5 3 9
v 6 3 9
v 9 3 9
v 10 3 9
v -3 3 7
v -2 3 7
v 1 3 7
v 2 3 7
v 5 3 7
v 6 3 7
v 9 3 7
v 10 3 7
v -10 3 6
v -9 3 6
v -7 3 6
v -6 3 6
v -3 3 6
v -2 3 6
v 1 3 6
v 2 3 6
v 5 3 6
v 6 3 6
v 9 3 6
v 10 3 6
v -10 3 5
v -9 3 5
v -7 3 5
v -6 3 5
v -10 3 2
v -9 3 2
v -7 3 2
v -6 3 2
v -10 3 1
v -9 3 1
v -7 3 1
v -6 3 1
v -10 3 -2
v -9 3 -2
v -7 3 -2
v -6 3 -2
v -10 3 -3
v -9 3 -3
v -7 3 -3
v -6 3 -3
v -10 3 -6
v -9 3 -6
v -7 3 -6
v -6 3 -6
v -10 3 -7
v -9 3 -7
v -7 3 -7
v -6 3 -7
v -10 20 10
v 10 20 10
v -6 20 6
v 10 20 6
v -10 20 -10
v -6 20 -10

# faces
f 3/2/1 2/2/1 1/2/1
f 4/2/1 2/2/1 3/2/1
f 5/2/1 2/2/1 4/2/1
f 6/2/1 2/2/1 5/2/1
f 7/2/1 2/2/1 6/2/1
f 8/2/1 2/2/1 7/2/1
f 9/2/1 2/2/1 8/2/1
f 10/2/1 2/2/1 9/2/1
f 11/2/1 2/2/1 10/2/1
f 12/2/1 2/2/1 11/2/1
f 13/3/1 4/3/1 3/3/1
f 14/3/1 4/3/1 13/3/1
f 15/3/1 6/3/1 5/3/1
f 16/3/1 6/3/1 15/3/1
f 17/3/1 8/3/1 7/3/1
f 18/3/1 8/3/1 17/3/1
f 19/3/1 10/3/1 9/3/1
f 20/3/1 10/3/1 19/3/1
f 21/3/1 12/3/1 11/3/1
f 22/3/1 12/3/1 21/3/1
f 23/1/1 14/1/1 13/1/1
f 24/1/1 16/1/1 15/1/1
f 25/1/1 16/1/1 24/1/1
f 26/1/1 18/1/1 17/1/1
f 27/1/1 18/1/1 26/1/1
f 28/1/1 20/1/1 19/1/1
f 29/1/1 20/1/1 28/1/1
f 30/1/1 22/1/1 21/1/1
f 31/1/1 27/1/1 26/1/1
f 31/1/1 30/1/1 29/1/1
f 31/1/1 25/1/1 24/1/1
f 31/1/1 23/1/1 13/1/1
f 31/1/1 28/1/1 27/1/1
f 31/1/1 29/1/1 28/1/1
f 31/1/1 26/1/1 25/1/1
f 31/1/1 24/1/1 23/1/1
f 32/1/1 22/1/1 30/1/1
f 32/1/1 30/1/1 31/1/1
f 41/3/1 34/3/1 33/3/1
f 42/3/1 34/3/1 41/3/1
f 43/3/1 36/3/1 35/3/1
f 44/3/1 36/3/1 43/3/1
f 45/3/1 38/3/1 37/3/1
f 46/3/1 38/3/1 45/3/1
f 47/3/1 40/3/1 39/3/1
f 48/3/1 40/3/1 47/3/1
f 49/1/1 42/1/1 41/1/1
f 50/1/1 42/1/1 49/1/1
f 51/1/1 44/1/1 43/1/1
f 52/1/1 44/1/1 51/1/1
f 53/1/1 46/1/1 45/1/1
f 54/1/1 46/1/1 53/1/1
f 55/1/1 48/1/1 47/1/1
f 56/1/1 48/1/1 55/1/1
f 59/3/1 58/3/1 57/3/1
f 60/3/1 58/3/1 59/3/1
f 61/1/1 60/1/1 59/1/1
f 62/1/1 60/1/1 61/1/1
f 67/3/1 64/3/1 63/3/1
f 68/3/1 64/3/1 67/3/1
f 69/3/1 66/3/1 65/3/1
f 70/3/1 66/3/1 69/3/1
f 71/1/1 68/1/1 67/1/1
f 72/1/1 68/1/1 71/1/1
f 73/1/1 70/1/1 69/1/1
f 74/1/1 70/1/1 73/1/1
f 79/3/1 76/3/1 75/3/1
f 80/3/1 76/3/1 79/3/1
f 81/3/1 78/3/1 77/3/1
f 82/3/1 78/3/1 81/3/1
f 83/1/1 80/1/1 79/1/1
f 84/1/1 80/1/1 83/1/1
f 85/1/1 82/1/1 81/1/1
f 86/1/1 82/1/1 85/1/1
f 91/3/1 88/3/1 87/3/1
f 92/3/1 88/3/1 91/3/1
f 93/3/1 90/3/1 89/3/1
f 94/3/1 90/3/1 93/3/1
f 95/1/1 92/1/1 91/1/1
f 96/1/1 92/1/1 95/1/1
f 97/1/1 94/1/1 93/1/1
f 98/1/1 94/1/1 97/1/1
f 99/3/2 100/3/2 109/3/2
f 109/3/2 100/3/2 110/3/2
f 101/3/2 102/3/2 111/3/2
f 111/3/2 102/3/2 112/3/2
f 103/3/2 104/3/2 113/3/2
f 113/3/2 104/3/2 114/3/2
f 105/3/2 106/3/2 115/3/2
f 115/3/2 106/3/2 116/3/2
f 107/3/2 108/3/2 117/3/2
f 117/3/2 108/3/2 118/3/2
f 109/1/2 110/1/2 119/1/2
f 119/1/2 110/1/2 120/1/2
f 111/1/2 112/1/2 121/1/2
f 121/1/2 112/1/2 122/1/2
f 113/1/2 114/1/2 123/1/2
f 123/1/2 114/1/2 124/1/2
f 115/1/2 116/1/2 125/1/2
f 125/1/2 116/1/2 126/1/2
f 117/1/2 118/1/2 127/1/2
f 127/1/2 118/1/2 128/1/2
f 129/2/2 130/2/2 131/2/2
f 131/2/2 130/2/2 132/2/2
f 132/2/2 130/2/2 133/2/2
f 133/2/2 130/2/2 134/2/2
f 134/2/2 130/2/2 135/2/2
f 135/2/2 130/2/2 136/2/2
f 136/2/2 130/2/2 137/2/2
f 137/2/2 130/2/2 138/2/2
f 138/2/2 130/2/2 139/2/2
f 132/3/2 133/3/2 140/3/2
f 140/3/2 133/3/2 141/3/2
f 134/3/2 135/3/2 142/3/2
f 142/3/2 135/3/2 143/3/2
f 136/3/2 137/3/2 144/3/2
f 144/3/2 137/3/2 145/3/2
f 138/3/2 139/3/2 146/3/2
f 146/3/2 139/3/2 147/3/2
f 140/1/2 141/1/2 149/1/2
f 149/1/2 141/1/2 150/1/2
f 142/1/2 143/1/2 151/1/2
f 151/1/2 143/1/2 152/1/2
f 144/1/2 145/1/2 153/1/2
f 153/1/2 145/1/2 154/1/2
f 146/1/2 147/1/2 155/1/2
f 151/1/2 152/1/2 156/1/2
f 154/1/2 155/1/2 156/1/2
f 149/1/2 150/1/2 156/1/2
f 153/1/2 154/1/2 156/1/2
f 152/1/2 153/1/2 156/1/2
f 148/1/2 149/1/2 156/1/2
f 150/1/2 151/1/2 156/1/2
f 155/1/2 147/1/2 157/1/2
f 156/1/2 155/1/2 157/1/2
f 158/3/2 159/3/2 162/3/2
f 162/3/2 159/3/2 163/3/2
f 160/3/2 161/3/2 164/3/2
f 164/3/2 161/3/2 165/3/2
f 162/1/2 163/1/2 166/1/2
f 166/1/2 163/1/2 167/1/2
f 164/1/2 165/1/2 168/1/2
f 168/1/2 165/1/2 169/1/2
f 170/3/2 171/3/2 174/3/2
f 174/3/2 171/3/2 175/3/2
f 172/3/2 173/3/2 176/3/2
f 176/3/2 173/3/2 177/3/2
f 174/1/2 175/1/2 178/1/2
f 178/1/2 175/1/2 179/1/2
f 176/1/2 177/1/2 180/1/2
f 180/1/2 177/1/2 181/1/2
f 182/3/2 183/3/2 186/3/2
f 186/3/2 183/3/2 187/3/2
f 184/3/2 185/3/2 188/3/2
f 188/3/2 185/3/2 189/3/2
f 186/1/2 187/1/2 190/1/2
f 190/1/2 187/1/2 191/1/2
f 188/1/2 189/1/2 192/1/2
f 192/1/2 189/1/2 193/1/2
f 194/3/2 195/3/2 198/3/2
f 198/3/2 195/3/2 199/3/2
f 196/3/2 197/3/2 200/3/2
f 200/3/2 197/3/2 201/3/2
f 198/1/2 199/1/2 202/1/2
f 202/1/2 199/1/2 203/1/2
f 200/1/2 201/1/2 204/1/2
f 204/1/2 201/1/2 205/1/2
f 206/2/2 207/2/2 208/2/2
f 208/2/2 207/2/2 209/2/2
f 209/2/2 207/2/2 210/2/2
f 210/2/2 207/2/2 211/2/2
f 209/3/2 210/3/2 212/3/2
f 212/3/2 210/3/2 213/3/2
f 212/1/2 213/1/2 215/1/2
f 215/1/2 213/1/2 216/1/2
f 215/1/2 216/1/2 218/1/2
f 216/1/2 217/1/2 218/1/2
f 214/1/2 215/1/2 218/1/2
f 218/1/2 217/1/2 219/1/2
f 224/2/3 221/2/3 220/2/3
f 224/3/3 222/3/3 221/3/3
f 225/1/3 223/1/3 222/1/3
f 225/3/3 222/3/3 224/3/3
f 226/1/3 223/1/3 225/1/3
f 227/2/3 224/2/3 220/2/3
f 229/1/3 223/1/3 226/1/3
f 230/3/3 228/3/3 227/3/3
f 230/2/3 227/2/3 220/2/3
f 231/1/3 229/1/3 228/1/3
f 231/3/3 228/3/3 230/3/3
f 232/1/3 223/1/3 229/1/3
f 232/1/3 229/1/3 231/1/3
f 233/2/3 230/2/3 220/2/3
f 235/1/3 223/1/3 232/1/3
f 236/3/3 234/3/3 233/3/3
f 236/2/3 233/2/3 220/2/3
f 237/1/3 235/1/3 234/1/3
f 237/3/3 234/3/3 236/3/3
f 238/1/3 223/1/3 235/1/3
f 238/1/3 235/1/3 237/1/3
f 239/2/3 236/2/3 220/2/3
f 241/1/3 223/1/3 238/1/3
f 242/3/3 240/3/3 239/3/3
f 242/2/3 239/2/3 220/2/3
f 243/1/3 241/1/3 240/1/3
f 243/3/3 240/3/3 242/3/3
f 244/1/3 223/1/3 241/1/3
f 244/1/3 241/1/3 243/1/3
f 245/2/3 242/2/3 220/2/3
f 247/1/3 223/1/3 244/1/3
f 248/3/3 246/3/3 245/3/3
f 248/2/3 245/2/3 220/2/3
f 249/1/3 247/1/3 246/1/3
f 249/3/3 246/3/3 248/3/3
f 250/1/3 223/1/3 247/1/3
f 250/1/3 247/1/3 249/1/3
f 251/2/3 248/2/3 220/2/3
f 252/2/3 248/2/3 251/2/3
f 253/1/3 223/1/3 250/1/3
f 254/1/3 223/1/3 253/1/3
f 258/3/3 256/3/3 255/3/3
f 259/1/3 257/1/3 256/1/3
f 259/3/3 256/3/3 258/3/3
f 260/1/3 257/1/3 259/1/3
f 264/3/3 262/3/3 261/3/3
f 265/1/3 263/1/3 262/1/3
f 265/3/3 262/3/3 264/3/3
f 266/1/3 263/1/3 265/1/3
f 270/3/3 268/3/3 267/3/3
f 271/1/3 269/1/3 268/1/3
f 271/3/3 268/3/3 270/3/3
f 272/1/3 269/1/3 271/1/3
f 276/3/3 274/3/3 273/3/3
f 277/1/3 275/1/3 274/1/3
f 277/3/3 274/3/3 276/3/3
f 278/1/3 275/1/3 277/1/3
f 282/3/3 280/3/3 279/3/3
f 283/1/3 281/1/3 280/1/3
f 283/3/3 280/3/3 282/3/3
f 284/1/3 281/1/3 283/1/3
f 288/3/3 286/3/3 285/3/3
f 289/1/3 287/1/3 286/1/3
f 289/3/3 286/3/3 288/3/3
f 290/1/3 287/1/3 289/1/3
f 294/3/3 292/3/3 291/3/3
f 295/1/3 293/1/3 292/1/3
f 295/3/3 292/3/3 294/3/3
f 296/1/3 293/1/3 295/1/3
f 300/3/3 298/3/3 297/3/3
f 301/1/3 299/1/3 298/1/3
f 301/3/3 298/3/3 300/3/3
f 302/1/3 299/1/3 301/1/3
f 306/3/3 304/3/3 303/3/3
f 307/1/3 305/1/3 304/1/3
f 307/3/3 304/3/3 306/3/3
f 308/1/3 305/1/3 307/1/3
f 312/3/3 310/3/3 309/3/3
f 313/1/3 311/1/3 310/1/3
f 313/3/3 310/3/3 312/3/3
f 314/1/3 311/1/3 313/1/3
f 318/3/3 316/3/3 315/3/3
f 319/1/3 317/1/3 316/1/3
f 319/3/3 316/3/3 318/3/3
f 320/1/3 317/1/3 319/1/3
f 324/3/3 322/3/3 321/3/3
f 325/1/3 323/1/3 322/1/3
f 325/3/3 322/3/3 324/3/3
f 326/1/3 323/1/3 325/1/3
f 330/3/3 328/3/3 327/3/3
f 331/1/3 329/1/3 328/1/3
f 331/3/3 328/3/3 330/3/3
f 332/1/3 329/1/3 331/1/3
f 333/3/4 334/3/4 336/3/4
f 334/1/4 335/1/4 337/1/4
f 336/3/4 334/3/4 337/3/4
f 337/1/4 335/1/4 338/1/4
f 339/3/4 340/3/4 342/3/4
f 340/1/4 341/1/4 343/1/4
f 342/3/4 340/3/4 343/3/4
f 343/1/4 341/1/4 344/1/4
f 345/3/4 346/3/4 348/3/4
f 346/1/4 347/1/4 349/1/4
f 348/3/4 346/3/4 349/3/4
f 349/1/4 347/1/4 350/1/4
f 351/3/4 352/3/4 354/3/4
f 352/1/4 353/1/4 355/1/4
f 354/3/4 352/3/4 355/3/4
f 355/1/4 353/1/4 356/1/4
f 357/3/4 358/3/4 360/3/4
f 358/1/4 359/1/4 361/1/4
f 360/3/4 358/3/4 361/3/4
f 361/1/4 359/1/4 362/1/4
f 363/3/4 364/3/4 367/3/4
f 364/1/4 365/1/4 368/1/4
f 366/2/4 367/2/4 370/2/4
f 367/3/4 364/3/4 370/3/4
f 364/1/4 368/1/4 371/1/4
f 370/3/4 364/3/4 371/3/4
f 368/1/4 369/1/4 371/1/4
f 371/1/4 369/1/4 372/1/4
f 366/2/4 370/2/4 373/2/4
f 372/1/4 369/1/4 375/1/4
f 373/3/4 374/3/4 376/3/4
f 366/2/4 373/2/4 376/2/4
f 374/1/4 375/1/4 377/1/4
f 376/3/4 374/3/4 377/3/4
f 375/1/4 369/1/4 378/1/4
f 377/1/4 375/1/4 378/1/4
f 366/2/4 376/2/4 379/2/4
f 378/1/4 369/1/4 381/1/4
f 379/3/4 380/3/4 382/3/4
f 366/2/4 379/2/4 382/2/4
f 380/1/4 381/1/4 383/1/4
f 382/3/4 380/3/4 383/3/4
f 381/1/4 369/1/4 384/1/4
f 383/1/4 381/1/4 384/1/4
f 366/2/4 382/2/4 385/2/4
f 384/1/4 369/1/4 387/1/4
f 385/3/4 386/3/4 388/3/4
f 366/2/4 385/2/4 388/2/4
f 386/1/4 387/1/4 389/1/4
f 388/3/4 386/3/4 389/3/4
f 387/1/4 369/1/4 390/1/4
f 389/1/4 387/1/4 390/1/4
f 366/2/4 388/2/4 391/2/4
f 391/2/4 388/2/4 392/2/4
f 390/1/4 369/1/4 393/1/4
f 393/1/4 369/1/4 394/1/4
f 395/3/4 396/3/4 398/3/4
f 396/1/4 397/1/4 399/1/4
f 398/3/4 396/3/4 399/3/4
f 399/1/4 397/1/4 400/1/4
f 401/3/4 402/3/4 404/3/4
f 402/1/4 403/1/4 405/1/4
f 404/3/4 402/3/4 405/3/4
f 405/1/4 403/1/4 406/1/4
f 407/3/4 408/3/4 410/3/4
f 408/1/4 409/1/4 411/1/4
f 410/3/4 408/3/4 411/3/4
f 411/1/4 409/1/4 412/1/4
f 413/3/4 414/3/4 416/3/4
f 414/1/4 415/1/4 417/1/4
f 416/3/4 414/3/4 417/3/4
f 417/1/4 415/1/4 418/1/4
f 419/3/4 420/3/4 422/3/4
f 420/1/4 421/1/4 423/1/4
f 422/3/4 420/3/4 423/3/4
f 423/1/4 421/1/4 424/1/4
f 425/3/4 426/3/4 428/3/4
f 426/1/4 427/1/4 429/1/4
f 428/3/4 426/3/4 429/3/4
f 429/1/4 427/1/4 430/1/4
f 431/2/4 432/2/4 435/2/4
f 432/3/4 433/3/4 436/3/4
f 435/2/4 432/2/4 436/2/4
f 433/1/4 434/1/4 437/1/4
f 436/3/4 433/3/4 437/3/4
f 437/1/4 434/1/4 438/1/4
f 441/2/5 440/2/5 439/2/5
f 442/2/5 440/2/5 441/2/5
f 443/2/5 441/2/5 439/2/5
f 443/1/5 442/1/5 441/1/5
f 444/2/5 440/2/5 442/2/5
f 444/1/5 442/1/5 443/1/5
f 445/2/5 443/2/5 439/2/5
f 445/2/5 444/2/5 443/2/5
f 446/2/5 444/2/5 445/2/5
f 447/2/5 444/2/5 446/2/5
f 448/2/5 440/2/5 444/2/5
f 448/2/5 444/2/5 447/2/5
f 449/2/5 445/2/5 439/2/5
f 449/1/5 446/1/5 445/1/5
f 450/2/5 447/2/5 446/2/5
f 450/1/5 446/1/5 449/1/5
f 451/2/5 449/2/5 439/2/5
f 451/2/5 450/2/5 449/2/5
f 452/2/5 447/2/5 450/2/5
f 452/2/5 450/2/5 451/2/5
f 463/1/5 454/1/5 453/1/5
f 464/1/5 454/1/5 463/1/5
f 465/1/5 456/1/5 455/1/5
f 466/1/5 456/1/5 465/1/5
f 467/1/5 458/1/5 457/1/5
f 468/1/5 458/1/5 467/1/5
f 469/1/5 460/1/5 459/1/5
f 470/1/5 460/1/5 469/1/5
f 471/1/5 462/1/5 461/1/5
f 472/1/5 462/1/5 471/1/5
f 485/1/5 474/1/5 473/1/5
f 486/1/5 474/1/5 485/1/5
f 487/1/5 476/1/5 475/1/5
f 488/1/5 476/1/5 487/1/5
f 489/1/5 478/1/5 477/1/5
f 490/1/5 478/1/5 489/1/5
f 491/1/5 480/1/5 479/1/5
f 492/1/5 480/1/5 491/1/5
f 493/1/5 482/1/5 481/1/5
f 494/1/5 482/1/5 493/1/5
f 495/1/5 484/1/5 483/1/5
f 496/1/5 484/1/5 495/1/5
f 501/1/5 498/1/5 497/1/5
f 502/1/5 498/1/5 501/1/5
f 503/1/5 500/1/5 499/1/5
f 504/1/5 500/1/5 503/1/5
f 509/1/5 506/1/5 505/1/5
f 510/1/5 506/1/5 509/1/5
f 511/1/5 508/1/5 507/1/5
f 512/1/5 508/1/5 511/1/5
f 517/1/5 514/1/5 513/1/5
f 518/1/5 514/1/5 517/1/5
f 519/1/5 516/1/5 515/1/5
f 520/1/5 516/1/5 519/1/5
f 521/2/6 522/2/6 531/2/6
f 531/2/6 522/2/6 532/2/6
f 523/2/6 524/2/6 533/2/6
f 533/2/6 524/2/6 534/2/6
f 525/2/6 526/2/6 535/2/6
f 535/2/6 526/2/6 536/2/6
f 527/2/6 528/2/6 537/2/6
f 537/2/6 528/2/6 538/2/6
f 529/2/6 530/2/6 539/2/6
f 539/2/6 530/2/6 540/2/6
f 541/2/6 542/2/6 553/2/6
f 553/2/6 542/2/6 554/2/6
f 543/2/6 544/2/6 555/2/6
f 555/2/6 544/2/6 556/2/6
f 545/2/6 546/2/6 557/2/6
f 557/2/6 546/2/6 558/2/6
f 547/2/6 548/2/6 559/2/6
f 559/2/6 548/2/6 560/2/6
f 549/2/6 550/2/6 561/2/6
f 561/2/6 550/2/6 562/2/6
f 551/2/6 552/2/6 563/2/6
f 563/2/6 552/2/6 564/2/6
f 565/2/6 566/2/6 569/2/6
f 569/2/6 566/2/6 570/2/6
f 567/2/6 568/2/6 571/2/6
f 571/2/6 568/2/6 572/2/6
f 573/2/6 574/2/6 577/2/6
f 577/2/6 574/2/6 578/2/6
f 575/2/6 576/2/6 579/2/6
f 579/2/6 576/2/6 580/2/6
f 581/2/6 582/2/6 585/2/6
f 585/2/6 582/2/6 586/2/6
f 583/2/6 584/2/6 587/2/6
f 587/2/6 584/2/6 588/2/6
f 589/1/6 590/1/6 591/1/6
f 591/1/6 590/1/6 592/1/6
f 589/1/6 591/1/6 593/1/6
f 593/1/6 591/1/6 594/1/6
