# MagicaVoxel @ Ephtracy

# group
g chr_dad

# material
mtllib chr_dad.mtl
usemtl palette

# normals
vn -1 0 0
vn 1 0 0
vn 0 0 1
vn 0 0 -1
vn 0 -1 0
vn 0 1 0

# texcoords
vt 0.0332031 0.5
vt 0.0605469 0.5
vt 0.208984 0.5
vt 0.373047 0.5
vt 0.619141 0.5
vt 0.642578 0.5
vt 0.669922 0.5
vt 0.935547 0.5
vt 0.990234 0.5

# verts
v -5 6 1
v -5 6 -1
v -5 7 1
v -5 7 -1
v -5 12 1
v -5 12 -1
v -4 6 2
v -4 6 1
v -4 6 -1
v -4 6 -2
v -4 7 2
v -4 7 1
v -4 7 -1
v -4 7 -2
v -4 12 2
v -4 12 1
v -4 12 -1
v -4 12 -2
v -4 14 1
v -4 14 -0
v -4 14 -2
v -4 15 2
v -4 15 1
v -4 16 1
v -4 16 -0
v -4 17 2
v -4 17 -2
v -3 0 1
v -3 0 -1
v -3 1 1
v -3 1 -1
v -3 5 2
v -3 5 1
v -3 5 -1
v -3 5 -2
v -3 6 2
v -3 6 -2
v -3 13 2
v -3 13 -2
v -3 14 1
v -3 14 -0
v -3 14 -2
v -3 14 -3
v -3 15 2
v -3 15 1
v -3 17 2
v -3 17 -2
v -3 17 -3
v -3 18 2
v -3 18 -2
v -2 12 2
v -2 12 -2
v -2 13 3
v -2 13 2
v -2 13 -2
v -2 13 -3
v -2 14 3
v -2 14 2
v -2 14 -2
v -2 14 -3
v -2 17 -2
v -2 17 -3
v -2 18 -2
v -2 18 -3
v -1 14 3
v -1 14 2
v -1 15 3
v -1 15 2
v 1 0 1
v 1 0 -1
v 1 1 1
v 1 1 -1
v 1 5 1
v 1 5 -1
v 1 13 3
v 1 13 2
v 1 14 3
v 1 14 2
v -1 0 1
v -1 0 -1
v -1 1 1
v -1 1 -1
v -1 5 1
v -1 5 -1
v -1 13 3
v -1 13 2
v -1 14 3
v -1 14 2
v 1 14 3
v 1 14 2
v 1 15 3
v 1 15 2
v 2 12 2
v 2 12 -2
v 2 13 3
v 2 13 2
v 2 13 -2
v 2 13 -3
v 2 14 3
v 2 14 2
v 2 14 -2
v 2 14 -3
v 2 17 -2
v 2 17 -3
v 2 18 -2
v 2 18 -3
v 3 0 1
v 3 0 -1
v 3 1 1
v 3 1 -1
v 3 5 2
v 3 5 1
v 3 5 -1
v 3 5 -2
v 3 6 2
v 3 6 -2
v 3 13 2
v 3 13 -2
v 3 14 1
v 3 14 -0
v 3 14 -2
v 3 14 -3
v 3 15 2
v 3 15 1
v 3 17 2
v 3 17 -2
v 3 17 -3
v 3 18 2
v 3 18 -2
v 4 6 2
v 4 6 1
v 4 6 -1
v 4 6 -2
v 4 7 2
v 4 7 1
v 4 7 -1
v 4 7 -2
v 4 12 2
v 4 12 1
v 4 12 -1
v 4 12 -2
v 4 14 1
v 4 14 -0
v 4 14 -2
v 4 15 2
v 4 15 1
v 4 16 1
v 4 16 -0
v 4 17 2
v 4 17 -2
v 5 6 1
v 5 6 -1
v 5 7 1
v 5 7 -1
v 5 12 1
v 5 12 -1
v -2 13 3
v -2 14 3
v -1 13 3
v -1 14 3
v -1 15 3
v 1 13 3
v 1 14 3
v 1 15 3
v 2 13 3
v 2 14 3
v -4 6 2
v -4 7 2
v -4 12 2
v -4 15 2
v -4 17 2
v -3 5 2
v -3 6 2
v -3 7 2
v -3 8 2
v -3 9 2
v -3 10 2
v -3 11 2
v -3 12 2
v -3 13 2
v -3 15 2
v -3 17 2
v -3 18 2
v -2 7 2
v -2 8 2
v -2 9 2
v -2 10 2
v -2 11 2
v -2 12 2
v -2 13 2
v -2 14 2
v -2 15 2
v -2 16 2
v -2 17 2
v -2 18 2
v -1 7 2
v -1 8 2
v -1 9 2
v -1 10 2
v -1 11 2
v -1 12 2
v -1 13 2
v -1 14 2
v -1 15 2
v -1 16 2
v -1 17 2
v 1 7 2
v 1 8 2
v 1 9 2
v 1 10 2
v 1 11 2
v 1 12 2
v 1 13 2
v 1 14 2
v 1 15 2
v 1 16 2
v 1 17 2
v 2 7 2
v 2 8 2
v 2 9 2
v 2 10 2
v 2 11 2
v 2 12 2
v 2 13 2
v 2 14 2
v 2 15 2
v 2 16 2
v 2 17 2
v 2 18 2
v 3 5 2
v 3 6 2
v 3 7 2
v 3 8 2
v 3 9 2
v 3 10 2
v 3 11 2
v 3 12 2
v 3 13 2
v 3 15 2
v 3 17 2
v 3 18 2
v 4 6 2
v 4 7 2
v 4 12 2
v 4 15 2
v 4 17 2
v -5 6 1
v -5 7 1
v -5 12 1
v -4 6 1
v -4 7 1
v -4 12 1
v -4 14 1
v -4 15 1
v -3 0 1
v -3 1 1
v -3 5 1
v -3 14 1
v -3 15 1
v -1 0 1
v -1 1 1
v -1 5 1
v 1 0 1
v 1 1 1
v 1 5 1
v 3 0 1
v 3 1 1
v 3 5 1
v 3 14 1
v 3 15 1
v 4 6 1
v 4 7 1
v 4 12 1
v 4 14 1
v 4 15 1
v 5 6 1
v 5 7 1
v 5 12 1
v -5 6 -1
v -5 7 -1
v -5 12 -1
v -4 6 -1
v -4 7 -1
v -4 12 -1
v -3 0 -1
v -3 1 -1
v -3 5 -1
v -1 0 -1
v -1 1 -1
v -1 5 -1
v 1 0 -1
v 1 1 -1
v 1 5 -1
v 3 0 -1
v 3 1 -1
v 3 5 -1
v 4 6 -1
v 4 7 -1
v 4 12 -1
v 5 6 -1
v 5 7 -1
v 5 12 -1
v -4 6 -2
v -4 7 -2
v -4 12 -2
v -4 14 -2
v -4 17 -2
v -3 5 -2
v -3 6 -2
v -3 7 -2
v -3 8 -2
v -3 9 -2
v -3 10 -2
v -3 11 -2
v -3 12 -2
v -3 13 -2
v -3 14 -2
v -3 17 -2
v -3 18 -2
v -2 7 -2
v -2 8 -2
v -2 9 -2
v -2 10 -2
v -2 11 -2
v -2 12 -2
v -2 13 -2
v -2 14 -2
v -2 17 -2
v -2 18 -2
v -1 7 -2
v -1 8 -2
v -1 9 -2
v -1 10 -2
v -1 11 -2
v -1 12 -2
v 1 7 -2
v 1 8 -2
v 1 9 -2
v 1 10 -2
v 1 11 -2
v 1 12 -2
v 2 7 -2
v 2 8 -2
v 2 9 -2
v 2 10 -2
v 2 11 -2
v 2 12 -2
v 2 13 -2
v 2 14 -2
v 2 17 -2
v 2 18 -2
v 3 5 -2
v 3 6 -2
v 3 7 -2
v 3 8 -2
v 3 9 -2
v 3 10 -2
v 3 11 -2
v 3 12 -2
v 3 13 -2
v 3 14 -2
v 3 17 -2
v 3 18 -2
v 4 6 -2
v 4 7 -2
v 4 12 -2
v 4 14 -2
v 4 17 -2
v -3 14 -3
v -3 17 -3
v -2 13 -3
v -2 14 -3
v -2 17 -3
v -2 18 -3
v 2 13 -3
v 2 14 -3
v 2 17 -3
v 2 18 -3
v 3 14 -3
v 3 17 -3
v -3 0 1
v -1 0 1
v 1 0 1
v 3 0 1
v -3 0 -1
v -1 0 -1
v 1 0 -1
v 3 0 -1
v -3 5 2
v 3 5 2
v -3 5 1
v -1 5 1
v 1 5 1
v 3 5 1
v -3 5 -1
v -1 5 -1
v 1 5 -1
v 3 5 -1
v -3 5 -2
v 3 5 -2
v -4 6 2
v -3 6 2
v 3 6 2
v 4 6 2
v -5 6 1
v -4 6 1
v 4 6 1
v 5 6 1
v -5 6 -1
v -4 6 -1
v 4 6 -1
v 5 6 -1
v -4 6 -2
v -3 6 -2
v 3 6 -2
v 4 6 -2
v -2 13 3
v -1 13 3
v 1 13 3
v 2 13 3
v -3 13 2
v -2 13 2
v -1 13 2
v 1 13 2
v 2 13 2
v 3 13 2
v -3 13 -2
v -2 13 -2
v 2 13 -2
v 3 13 -2
v -2 13 -3
v 2 13 -3
v -1 14 3
v 1 14 3
v -1 14 2
v 1 14 2
v -4 14 1
v -3 14 1
v 3 14 1
v 4 14 1
v -4 14 -0
v -3 14 -0
v 3 14 -0
v 4 14 -0
v -4 14 -2
v -3 14 -2
v -2 14 -2
v 2 14 -2
v 3 14 -2
v 4 14 -2
v -3 14 -3
v -2 14 -3
v 2 14 -3
v 3 14 -3
v -4 15 2
v -3 15 2
v 3 15 2
v 4 15 2
v -4 15 1
v -3 15 1
v 3 15 1
v 4 15 1
v -4 12 2
v -3 12 2
v -2 12 2
v 2 12 2
v 3 12 2
v 4 12 2
v -5 12 1
v -4 12 1
v 4 12 1
v 5 12 1
v -5 12 -1
v -4 12 -1
v 4 12 -1
v 5 12 -1
v -4 12 -2
v -3 12 -2
v -2 12 -2
v 2 12 -2
v 3 12 -2
v 4 12 -2
v -2 14 3
v -1 14 3
v 1 14 3
v 2 14 3
v -2 14 2
v -1 14 2
v 1 14 2
v 2 14 2
v -1 15 3
v 1 15 3
v -1 15 2
v 1 15 2
v -4 17 2
v -3 17 2
v 3 17 2
v 4 17 2
v -4 17 -2
v -3 17 -2
v -2 17 -2
v 2 17 -2
v 3 17 -2
v 4 17 -2
v -3 17 -3
v -2 17 -3
v 2 17 -3
v 3 17 -3
v -3 18 2
v -2 18 2
v 2 18 2
v 3 18 2
v -3 18 -2
v -2 18 -2
v 2 18 -2
v 3 18 -2
v -2 18 -3
v 2 18 -3

# faces
f 3/1/1 2/1/1 1/1/1
f 4/1/1 2/1/1 3/1/1
f 5/7/1 4/7/1 3/7/1
f 6/7/1 4/7/1 5/7/1
f 11/9/1 8/9/1 7/9/1
f 12/9/1 8/9/1 11/9/1
f 13/9/1 10/9/1 9/9/1
f 14/9/1 10/9/1 13/9/1
f 15/6/1 12/6/1 11/6/1
f 16/6/1 12/6/1 15/6/1
f 17/6/1 14/6/1 13/6/1
f 18/6/1 14/6/1 17/6/1
f 23/2/1 20/2/1 19/2/1
f 24/2/1 20/2/1 23/2/1
f 24/4/1 23/4/1 22/4/1
f 25/4/1 21/4/1 20/4/1
f 25/2/1 20/2/1 24/2/1
f 26/4/1 24/4/1 22/4/1
f 26/4/1 25/4/1 24/4/1
f 27/4/1 21/4/1 25/4/1
f 27/4/1 25/4/1 26/4/1
f 30/4/1 29/4/1 28/4/1
f 31/4/1 29/4/1 30/4/1
f 33/9/1 31/9/1 30/9/1
f 34/9/1 31/9/1 33/9/1
f 36/9/1 34/9/1 33/9/1
f 36/9/1 35/9/1 34/9/1
f 36/9/1 33/9/1 32/9/1
f 37/9/1 35/9/1 36/9/1
f 40/1/1 39/1/1 38/1/1
f 41/1/1 39/1/1 40/1/1
f 42/1/1 39/1/1 41/1/1
f 44/1/1 40/1/1 38/1/1
f 45/1/1 40/1/1 44/1/1
f 47/4/1 43/4/1 42/4/1
f 48/4/1 43/4/1 47/4/1
f 49/4/1 47/4/1 46/4/1
f 50/4/1 47/4/1 49/4/1
f 54/1/1 52/1/1 51/1/1
f 55/1/1 52/1/1 54/1/1
f 57/4/1 54/4/1 53/4/1
f 58/4/1 54/4/1 57/4/1
f 59/4/1 56/4/1 55/4/1
f 60/4/1 56/4/1 59/4/1
f 63/4/1 62/4/1 61/4/1
f 64/4/1 62/4/1 63/4/1
f 67/4/1 66/4/1 65/4/1
f 68/4/1 66/4/1 67/4/1
f 71/4/1 70/4/1 69/4/1
f 72/4/1 70/4/1 71/4/1
f 73/9/1 72/9/1 71/9/1
f 74/9/1 72/9/1 73/9/1
f 77/4/1 76/4/1 75/4/1
f 78/4/1 76/4/1 77/4/1
f 79/4/2 80/4/2 81/4/2
f 81/4/2 80/4/2 82/4/2
f 81/9/2 82/9/2 83/9/2
f 83/9/2 82/9/2 84/9/2
f 85/4/2 86/4/2 87/4/2
f 87/4/2 86/4/2 88/4/2
f 89/4/2 90/4/2 91/4/2
f 91/4/2 90/4/2 92/4/2
f 93/1/2 94/1/2 96/1/2
f 96/1/2 94/1/2 97/1/2
f 95/4/2 96/4/2 99/4/2
f 99/4/2 96/4/2 100/4/2
f 97/4/2 98/4/2 101/4/2
f 101/4/2 98/4/2 102/4/2
f 103/4/2 104/4/2 105/4/2
f 105/4/2 104/4/2 106/4/2
f 107/4/2 108/4/2 109/4/2
f 109/4/2 108/4/2 110/4/2
f 109/9/2 110/9/2 112/9/2
f 112/9/2 110/9/2 113/9/2
f 112/9/2 113/9/2 115/9/2
f 113/9/2 114/9/2 115/9/2
f 111/9/2 112/9/2 115/9/2
f 115/9/2 114/9/2 116/9/2
f 117/1/2 118/1/2 119/1/2
f 119/1/2 118/1/2 120/1/2
f 120/1/2 118/1/2 121/1/2
f 117/1/2 119/1/2 123/1/2
f 123/1/2 119/1/2 124/1/2
f 121/4/2 122/4/2 126/4/2
f 126/4/2 122/4/2 127/4/2
f 125/4/2 126/4/2 128/4/2
f 128/4/2 126/4/2 129/4/2
f 130/9/2 131/9/2 134/9/2
f 134/9/2 131/9/2 135/9/2
f 132/9/2 133/9/2 136/9/2
f 136/9/2 133/9/2 137/9/2
f 134/6/2 135/6/2 138/6/2
f 138/6/2 135/6/2 139/6/2
f 136/6/2 137/6/2 140/6/2
f 140/6/2 137/6/2 141/6/2
f 142/2/2 143/2/2 146/2/2
f 146/2/2 143/2/2 147/2/2
f 145/4/2 146/4/2 147/4/2
f 143/4/2 144/4/2 148/4/2
f 147/2/2 143/2/2 148/2/2
f 145/4/2 147/4/2 149/4/2
f 147/4/2 148/4/2 149/4/2
f 148/4/2 144/4/2 150/4/2
f 149/4/2 148/4/2 150/4/2
f 151/1/2 152/1/2 153/1/2
f 153/1/2 152/1/2 154/1/2
f 153/7/2 154/7/2 155/7/2
f 155/7/2 154/7/2 156/7/2
f 159/4/3 158/4/3 157/4/3
f 160/4/3 158/4/3 159/4/3
f 163/4/3 161/4/3 160/4/3
f 164/4/3 161/4/3 163/4/3
f 165/4/3 163/4/3 162/4/3
f 166/4/3 163/4/3 165/4/3
f 173/9/3 168/9/3 167/9/3
f 174/6/3 169/6/3 168/6/3
f 174/9/3 168/9/3 173/9/3
f 175/6/3 169/6/3 174/6/3
f 176/6/3 169/6/3 175/6/3
f 177/6/3 169/6/3 176/6/3
f 178/6/3 169/6/3 177/6/3
f 179/6/3 169/6/3 178/6/3
f 181/4/3 171/4/3 170/4/3
f 182/4/3 171/4/3 181/4/3
f 184/9/3 173/9/3 172/9/3
f 184/9/3 174/9/3 173/9/3
f 184/5/3 175/5/3 174/5/3
f 185/6/3 176/6/3 175/6/3
f 185/5/3 175/5/3 184/5/3
f 186/5/3 177/5/3 176/5/3
f 186/6/3 176/6/3 185/6/3
f 187/6/3 178/6/3 177/6/3
f 187/5/3 177/5/3 186/5/3
f 188/5/3 179/5/3 178/5/3
f 188/6/3 178/6/3 187/6/3
f 189/5/3 179/5/3 188/5/3
f 190/1/3 182/1/3 181/1/3
f 190/1/3 181/1/3 180/1/3
f 191/1/3 182/1/3 190/1/3
f 192/1/3 182/1/3 191/1/3
f 193/1/3 182/1/3 192/1/3
f 194/4/3 183/4/3 182/4/3
f 194/1/3 182/1/3 193/1/3
f 195/4/3 183/4/3 194/4/3
f 196/6/3 187/6/3 186/6/3
f 196/6/3 189/6/3 188/6/3
f 196/6/3 188/6/3 187/6/3
f 196/9/3 184/9/3 172/9/3
f 196/6/3 185/6/3 184/6/3
f 196/6/3 186/6/3 185/6/3
f 197/6/3 189/6/3 196/6/3
f 198/6/3 189/6/3 197/6/3
f 199/6/3 189/6/3 198/6/3
f 200/6/3 189/6/3 199/6/3
f 201/1/3 190/1/3 189/1/3
f 201/6/3 189/6/3 200/6/3
f 202/1/3 190/1/3 201/1/3
f 203/1/3 192/1/3 191/1/3
f 204/8/3 193/8/3 192/8/3
f 204/1/3 192/1/3 203/1/3
f 205/3/3 194/3/3 193/3/3
f 205/8/3 193/8/3 204/8/3
f 206/1/3 195/1/3 194/1/3
f 206/3/3 194/3/3 205/3/3
f 207/9/3 196/9/3 172/9/3
f 207/5/3 197/5/3 196/5/3
f 208/6/3 198/6/3 197/6/3
f 208/5/3 197/5/3 207/5/3
f 209/5/3 199/5/3 198/5/3
f 209/6/3 198/6/3 208/6/3
f 210/6/3 200/6/3 199/6/3
f 210/5/3 199/5/3 209/5/3
f 211/5/3 201/5/3 200/5/3
f 211/6/3 200/6/3 210/6/3
f 212/1/3 202/1/3 201/1/3
f 212/5/3 201/5/3 211/5/3
f 213/9/3 203/9/3 202/9/3
f 213/1/3 202/1/3 212/1/3
f 214/9/3 203/9/3 213/9/3
f 215/1/3 205/1/3 204/1/3
f 215/1/3 206/1/3 205/1/3
f 216/1/3 206/1/3 215/1/3
f 217/1/3 195/1/3 206/1/3
f 217/1/3 206/1/3 216/1/3
f 218/6/3 212/6/3 211/6/3
f 218/6/3 211/6/3 210/6/3
f 218/6/3 209/6/3 208/6/3
f 218/9/3 207/9/3 172/9/3
f 218/6/3 210/6/3 209/6/3
f 218/6/3 208/6/3 207/6/3
f 219/6/3 212/6/3 218/6/3
f 220/6/3 212/6/3 219/6/3
f 221/6/3 212/6/3 220/6/3
f 222/6/3 212/6/3 221/6/3
f 223/1/3 213/1/3 212/1/3
f 223/6/3 212/6/3 222/6/3
f 224/1/3 213/1/3 223/1/3
f 225/1/3 215/1/3 214/1/3
f 226/8/3 216/8/3 215/8/3
f 226/1/3 215/1/3 225/1/3
f 227/3/3 217/3/3 216/3/3
f 227/8/3 216/8/3 226/8/3
f 228/1/3 195/1/3 217/1/3
f 228/3/3 217/3/3 227/3/3
f 229/1/3 195/1/3 228/1/3
f 230/9/3 218/9/3 172/9/3
f 231/9/3 218/9/3 230/9/3
f 232/5/3 219/5/3 218/5/3
f 232/9/3 218/9/3 231/9/3
f 233/6/3 220/6/3 219/6/3
f 233/5/3 219/5/3 232/5/3
f 234/5/3 221/5/3 220/5/3
f 234/6/3 220/6/3 233/6/3
f 235/6/3 222/6/3 221/6/3
f 235/5/3 221/5/3 234/5/3
f 236/5/3 223/5/3 222/5/3
f 236/6/3 222/6/3 235/6/3
f 237/5/3 223/5/3 236/5/3
f 238/1/3 227/1/3 226/1/3
f 238/1/3 226/1/3 225/1/3
f 238/1/3 225/1/3 224/1/3
f 238/1/3 228/1/3 227/1/3
f 239/1/3 228/1/3 238/1/3
f 240/4/3 229/4/3 228/4/3
f 240/1/3 228/1/3 239/1/3
f 241/4/3 229/4/3 240/4/3
f 242/9/3 232/9/3 231/9/3
f 243/6/3 237/6/3 236/6/3
f 243/9/3 232/9/3 242/9/3
f 243/6/3 236/6/3 235/6/3
f 243/6/3 234/6/3 233/6/3
f 243/6/3 235/6/3 234/6/3
f 243/6/3 233/6/3 232/6/3
f 244/6/3 237/6/3 243/6/3
f 245/4/3 240/4/3 239/4/3
f 246/4/3 240/4/3 245/4/3
f 250/1/3 248/1/3 247/1/3
f 251/7/3 249/7/3 248/7/3
f 251/1/3 248/1/3 250/1/3
f 252/7/3 249/7/3 251/7/3
f 258/2/3 254/2/3 253/2/3
f 259/2/3 254/2/3 258/2/3
f 260/4/3 256/4/3 255/4/3
f 261/9/3 257/9/3 256/9/3
f 261/4/3 256/4/3 260/4/3
f 262/9/3 257/9/3 261/9/3
f 266/4/3 264/4/3 263/4/3
f 267/9/3 265/9/3 264/9/3
f 267/4/3 264/4/3 266/4/3
f 268/9/3 265/9/3 267/9/3
f 274/2/3 270/2/3 269/2/3
f 275/2/3 270/2/3 274/2/3
f 276/1/3 272/1/3 271/1/3
f 277/7/3 273/7/3 272/7/3
f 277/1/3 272/1/3 276/1/3
f 278/7/3 273/7/3 277/7/3
f 279/1/4 280/1/4 282/1/4
f 280/7/4 281/7/4 283/7/4
f 282/1/4 280/1/4 283/1/4
f 283/7/4 281/7/4 284/7/4
f 285/4/4 286/4/4 288/4/4
f 286/9/4 287/9/4 289/9/4
f 288/4/4 286/4/4 289/4/4
f 289/9/4 287/9/4 290/9/4
f 291/4/4 292/4/4 294/4/4
f 292/9/4 293/9/4 295/9/4
f 294/4/4 292/4/4 295/4/4
f 295/9/4 293/9/4 296/9/4
f 297/1/4 298/1/4 300/1/4
f 298/7/4 299/7/4 301/7/4
f 300/1/4 298/1/4 301/1/4
f 301/7/4 299/7/4 302/7/4
f 303/9/4 304/9/4 309/9/4
f 304/6/4 305/6/4 310/6/4
f 309/9/4 304/9/4 310/9/4
f 310/6/4 305/6/4 311/6/4
f 311/6/4 305/6/4 312/6/4
f 312/6/4 305/6/4 313/6/4
f 313/6/4 305/6/4 314/6/4
f 314/6/4 305/6/4 315/6/4
f 306/4/4 307/4/4 317/4/4
f 317/4/4 307/4/4 318/4/4
f 308/9/4 309/9/4 320/9/4
f 309/9/4 310/9/4 320/9/4
f 310/5/4 311/5/4 320/5/4
f 311/6/4 312/6/4 321/6/4
f 320/5/4 311/5/4 321/5/4
f 312/5/4 313/5/4 322/5/4
f 321/6/4 312/6/4 322/6/4
f 313/6/4 314/6/4 323/6/4
f 322/5/4 313/5/4 323/5/4
f 314/5/4 315/5/4 324/5/4
f 323/6/4 314/6/4 324/6/4
f 324/5/4 315/5/4 325/5/4
f 316/1/4 317/1/4 326/1/4
f 326/1/4 317/1/4 327/1/4
f 318/4/4 319/4/4 328/4/4
f 328/4/4 319/4/4 329/4/4
f 322/6/4 323/6/4 330/6/4
f 324/6/4 325/6/4 330/6/4
f 308/9/4 320/9/4 330/9/4
f 320/6/4 321/6/4 330/6/4
f 323/6/4 324/6/4 330/6/4
f 321/6/4 322/6/4 330/6/4
f 330/6/4 325/6/4 331/6/4
f 331/6/4 325/6/4 332/6/4
f 332/6/4 325/6/4 333/6/4
f 333/6/4 325/6/4 334/6/4
f 325/1/4 326/1/4 335/1/4
f 334/6/4 325/6/4 335/6/4
f 308/9/4 330/9/4 336/9/4
f 330/5/4 331/5/4 336/5/4
f 331/6/4 332/6/4 337/6/4
f 336/5/4 331/5/4 337/5/4
f 332/5/4 333/5/4 338/5/4
f 337/6/4 332/6/4 338/6/4
f 333/6/4 334/6/4 339/6/4
f 338/5/4 333/5/4 339/5/4
f 334/5/4 335/5/4 340/5/4
f 339/6/4 334/6/4 340/6/4
f 335/1/4 326/1/4 341/1/4
f 340/5/4 335/5/4 341/5/4
f 337/6/4 338/6/4 342/6/4
f 339/6/4 340/6/4 342/6/4
f 340/6/4 341/6/4 342/6/4
f 336/6/4 337/6/4 342/6/4
f 308/9/4 336/9/4 342/9/4
f 338/6/4 339/6/4 342/6/4
f 342/6/4 341/6/4 343/6/4
f 343/6/4 341/6/4 344/6/4
f 344/6/4 341/6/4 345/6/4
f 345/6/4 341/6/4 346/6/4
f 341/1/4 326/1/4 347/1/4
f 346/6/4 341/6/4 347/6/4
f 347/1/4 326/1/4 348/1/4
f 308/9/4 342/9/4 352/9/4
f 352/9/4 342/9/4 353/9/4
f 342/5/4 343/5/4 354/5/4
f 353/9/4 342/9/4 354/9/4
f 343/6/4 344/6/4 355/6/4
f 354/5/4 343/5/4 355/5/4
f 344/5/4 345/5/4 356/5/4
f 355/6/4 344/6/4 356/6/4
f 345/6/4 346/6/4 357/6/4
f 356/5/4 345/5/4 357/5/4
f 346/5/4 347/5/4 358/5/4
f 357/6/4 346/6/4 358/6/4
f 358/5/4 347/5/4 359/5/4
f 348/1/4 349/1/4 360/1/4
f 360/1/4 349/1/4 361/1/4
f 350/4/4 351/4/4 362/4/4
f 362/4/4 351/4/4 363/4/4
f 353/9/4 354/9/4 364/9/4
f 355/6/4 356/6/4 365/6/4
f 364/9/4 354/9/4 365/9/4
f 354/6/4 355/6/4 365/6/4
f 356/6/4 357/6/4 365/6/4
f 357/6/4 358/6/4 365/6/4
f 358/6/4 359/6/4 365/6/4
f 365/6/4 359/6/4 366/6/4
f 361/4/4 362/4/4 367/4/4
f 367/4/4 362/4/4 368/4/4
f 369/4/4 370/4/4 372/4/4
f 372/4/4 370/4/4 373/4/4
f 371/4/4 372/4/4 375/4/4
f 373/4/4 374/4/4 375/4/4
f 372/4/4 373/4/4 375/4/4
f 375/4/4 374/4/4 376/4/4
f 376/4/4 374/4/4 377/4/4
f 377/4/4 374/4/4 378/4/4
f 376/4/4 377/4/4 379/4/4
f 379/4/4 377/4/4 380/4/4
f 385/4/5 382/4/5 381/4/5
f 386/4/5 382/4/5 385/4/5
f 387/4/5 384/4/5 383/4/5
f 388/4/5 384/4/5 387/4/5
f 391/9/5 390/9/5 389/9/5
f 392/9/5 390/9/5 391/9/5
f 393/9/5 390/9/5 392/9/5
f 394/9/5 390/9/5 393/9/5
f 396/9/5 393/9/5 392/9/5
f 397/9/5 393/9/5 396/9/5
f 399/9/5 396/9/5 395/9/5
f 399/9/5 398/9/5 397/9/5
f 399/9/5 397/9/5 396/9/5
f 400/9/5 398/9/5 399/9/5
f 406/9/5 402/9/5 401/9/5
f 407/9/5 404/9/5 403/9/5
f 409/1/5 406/1/5 405/1/5
f 410/9/5 402/9/5 406/9/5
f 410/1/5 406/1/5 409/1/5
f 411/1/5 408/1/5 407/1/5
f 411/9/5 407/9/5 403/9/5
f 412/1/5 408/1/5 411/1/5
f 413/9/5 402/9/5 410/9/5
f 414/9/5 402/9/5 413/9/5
f 415/9/5 411/9/5 403/9/5
f 416/9/5 411/9/5 415/9/5
f 422/4/5 418/4/5 417/4/5
f 423/4/5 418/4/5 422/4/5
f 424/4/5 420/4/5 419/4/5
f 425/4/5 420/4/5 424/4/5
f 427/1/5 422/1/5 421/1/5
f 428/1/5 422/1/5 427/1/5
f 429/1/5 426/1/5 425/1/5
f 430/1/5 426/1/5 429/1/5
f 431/4/5 429/4/5 428/4/5
f 432/4/5 429/4/5 431/4/5
f 435/4/5 434/4/5 433/4/5
f 436/4/5 434/4/5 435/4/5
f 441/2/5 438/2/5 437/2/5
f 442/2/5 438/2/5 441/2/5
f 443/2/5 440/2/5 439/2/5
f 444/2/5 440/2/5 443/2/5
f 445/4/5 442/4/5 441/4/5
f 446/4/5 442/4/5 445/4/5
f 449/4/5 444/4/5 443/4/5
f 450/4/5 444/4/5 449/4/5
f 451/4/5 447/4/5 446/4/5
f 452/4/5 447/4/5 451/4/5
f 453/4/5 449/4/5 448/4/5
f 454/4/5 449/4/5 453/4/5
f 459/4/5 456/4/5 455/4/5
f 460/4/5 456/4/5 459/4/5
f 461/4/5 458/4/5 457/4/5
f 462/4/5 458/4/5 461/4/5
f 463/6/6 464/6/6 470/6/6
f 467/6/6 468/6/6 471/6/6
f 469/7/6 470/7/6 473/7/6
f 470/6/6 464/6/6 474/6/6
f 473/7/6 470/7/6 474/7/6
f 471/7/6 472/7/6 475/7/6
f 467/6/6 471/6/6 475/6/6
f 475/7/6 472/7/6 476/7/6
f 474/6/6 464/6/6 477/6/6
f 464/5/6 465/5/6 478/5/6
f 477/6/6 464/6/6 478/6/6
f 478/5/6 465/5/6 479/5/6
f 466/5/6 467/5/6 480/5/6
f 467/6/6 475/6/6 481/6/6
f 480/5/6 467/5/6 481/5/6
f 481/6/6 475/6/6 482/6/6
f 483/4/6 484/4/6 487/4/6
f 487/4/6 484/4/6 488/4/6
f 485/4/6 486/4/6 489/4/6
f 489/4/6 486/4/6 490/4/6
f 491/4/6 492/4/6 493/4/6
f 493/4/6 492/4/6 494/4/6
f 495/4/6 496/4/6 499/4/6
f 499/4/6 496/4/6 500/4/6
f 497/4/6 498/4/6 503/4/6
f 503/4/6 498/4/6 504/4/6
f 500/4/6 501/4/6 505/4/6
f 505/4/6 501/4/6 506/4/6
f 502/4/6 503/4/6 507/4/6
f 507/4/6 503/4/6 508/4/6
f 509/4/6 510/4/6 513/4/6
f 510/1/6 511/1/6 514/1/6
f 513/4/6 510/4/6 514/4/6
f 511/4/6 512/4/6 515/4/6
f 514/1/6 511/1/6 515/1/6
f 515/4/6 512/4/6 516/4/6
f 514/4/6 515/4/6 517/4/6
f 517/4/6 515/4/6 518/4/6
