# MagicaVoxel @ Ephtracy

# group
g chr_boy

# material
mtllib chr_boy.mtl
usemtl palette

# normals
vn -1 0 0
vn 1 0 0
vn 0 0 1
vn 0 0 -1
vn 0 -1 0
vn 0 1 0

# texcoords
vt 0.0332031 0.5
vt 0.0605469 0.5
vt 0.373047 0.5
vt 0.587891 0.5
vt 0.904297 0.5
vt 0.982422 0.5
vt 0.986328 0.5

# verts
v -4 4 1
v -4 4 -0
v -4 5 1
v -4 5 -0
v -4 8 1
v -4 8 -0
v -4 11 3
v -4 11 2
v -4 11 1
v -4 11 -0
v -4 12 -0
v -4 12 -1
v -4 13 2
v -4 13 1
v -4 14 3
v -4 14 -1
v -3 0 2
v -3 0 -0
v -3 1 2
v -3 1 -0
v -3 3 3
v -3 3 2
v -3 3 -0
v -3 3 -1
v -3 4 3
v -3 4 1
v -3 4 -0
v -3 4 -1
v -3 5 1
v -3 5 -0
v -3 8 1
v -3 8 -0
v -3 9 3
v -3 9 -1
v -3 10 3
v -3 10 -1
v -3 11 4
v -3 11 3
v -3 11 2
v -3 11 1
v -3 11 -0
v -3 12 -0
v -3 12 -1
v -3 12 -2
v -3 14 3
v -3 14 -0
v -3 14 -1
v -3 14 -2
v -3 15 4
v -3 15 -0
v -2 9 3
v -2 9 -1
v -2 10 3
v -2 10 -1
v -2 14 -0
v -2 14 -1
v -2 15 -0
v -2 15 -1
v -1 11 -1
v -1 11 -2
v -1 12 -1
v -1 12 -2
v 1 0 2
v 1 0 -0
v 1 1 2
v 1 1 -0
v 1 3 2
v 1 3 -0
v -2 11 4
v -2 11 3
v -2 12 3
v -2 14 4
v -2 14 3
v -1 0 2
v -1 0 -0
v -1 1 2
v -1 1 -0
v -1 3 2
v -1 3 -0
v 1 11 -1
v 1 11 -2
v 1 12 -1
v 1 12 -2
v 1 14 4
v 1 14 3
v 1 15 4
v 1 15 3
v 2 9 3
v 2 9 -1
v 2 10 3
v 2 10 -1
v 2 12 -1
v 2 12 -2
v 2 14 3
v 2 14 2
v 2 14 -0
v 2 14 -1
v 2 14 -2
v 2 15 3
v 2 15 2
v 2 15 -0
v 2 15 -1
v 3 0 2
v 3 0 -0
v 3 1 2
v 3 1 -0
v 3 3 3
v 3 3 2
v 3 3 -0
v 3 3 -1
v 3 4 3
v 3 4 1
v 3 4 -0
v 3 4 -1
v 3 5 1
v 3 5 -0
v 3 8 1
v 3 8 -0
v 3 9 3
v 3 9 -1
v 3 10 3
v 3 10 -1
v 3 11 2
v 3 11 1
v 3 13 2
v 3 13 1
v 3 14 3
v 3 14 2
v 3 14 -0
v 3 14 -1
v 3 15 2
v 3 15 -0
v 4 4 1
v 4 4 -0
v 4 5 1
v 4 5 -0
v 4 8 1
v 4 8 -0
v 4 11 2
v 4 11 1
v 4 13 2
v 4 13 1
v -3 11 4
v -3 15 4
v -2 11 4
v -2 14 4
v 1 14 4
v 1 15 4
v -4 11 3
v -4 14 3
v -3 3 3
v -3 4 3
v -3 9 3
v -3 10 3
v -3 11 3
v -3 14 3
v -2 9 3
v -2 10 3
v -2 11 3
v -2 12 3
v -2 14 3
v -1 10 3
v -1 11 3
v -1 12 3
v 1 10 3
v 1 11 3
v 1 12 3
v 1 14 3
v 1 15 3
v 2 9 3
v 2 10 3
v 2 11 3
v 2 12 3
v 2 14 3
v 2 15 3
v 3 3 3
v 3 4 3
v 3 9 3
v 3 10 3
v 3 14 3
v -3 0 2
v -3 1 2
v -3 3 2
v -1 0 2
v -1 1 2
v -1 3 2
v 1 0 2
v 1 1 2
v 1 3 2
v 2 14 2
v 2 15 2
v 3 0 2
v 3 1 2
v 3 3 2
v 3 11 2
v 3 13 2
v 3 14 2
v 3 15 2
v 4 11 2
v 4 13 2
v -4 4 1
v -4 5 1
v -4 8 1
v -3 4 1
v -3 5 1
v -3 8 1
v 3 4 1
v 3 5 1
v 3 8 1
v 4 4 1
v 4 5 1
v 4 8 1
v 3 11 1
v 3 13 1
v 4 11 1
v 4 13 1
v -4 4 -0
v -4 5 -0
v -4 8 -0
v -4 11 -0
v -4 12 -0
v -3 0 -0
v -3 1 -0
v -3 3 -0
v -3 4 -0
v -3 5 -0
v -3 8 -0
v -3 11 -0
v -3 12 -0
v -3 14 -0
v -3 15 -0
v -2 14 -0
v -2 15 -0
v -1 0 -0
v -1 1 -0
v -1 3 -0
v 1 0 -0
v 1 1 -0
v 1 3 -0
v 2 14 -0
v 2 15 -0
v 3 0 -0
v 3 1 -0
v 3 3 -0
v 3 4 -0
v 3 5 -0
v 3 8 -0
v 3 14 -0
v 3 15 -0
v 4 4 -0
v 4 5 -0
v 4 8 -0
v -4 12 -1
v -4 14 -1
v -3 3 -1
v -3 4 -1
v -3 9 -1
v -3 10 -1
v -3 12 -1
v -3 14 -1
v -2 9 -1
v -2 10 -1
v -2 14 -1
v -2 15 -1
v -1 11 -1
v -1 12 -1
v 1 11 -1
v 1 12 -1
v 2 9 -1
v 2 10 -1
v 2 12 -1
v 2 14 -1
v 2 15 -1
v 3 3 -1
v 3 4 -1
v 3 9 -1
v 3 10 -1
v 3 14 -1
v -3 12 -2
v -3 14 -2
v -1 11 -2
v -1 12 -2
v 1 11 -2
v 1 12 -2
v 2 12 -2
v 2 14 -2
v -3 0 2
v -1 0 2
v 1 0 2
v 3 0 2
v -3 0 -0
v -1 0 -0
v 1 0 -0
v 3 0 -0
v -3 3 3
v 3 3 3
v -3 3 2
v -1 3 2
v 1 3 2
v 3 3 2
v -3 3 -0
v -1 3 -0
v 1 3 -0
v 3 3 -0
v -3 3 -1
v 3 3 -1
v -4 4 1
v -3 4 1
v 3 4 1
v 4 4 1
v -4 4 -0
v -3 4 -0
v 3 4 -0
v 4 4 -0
v -3 10 3
v -2 10 3
v 2 10 3
v 3 10 3
v -3 10 -1
v -2 10 -1
v 2 10 -1
v 3 10 -1
v -3 11 4
v -2 11 4
v -4 11 3
v -3 11 3
v -2 11 3
v -4 11 2
v -3 11 2
v 3 11 2
v 4 11 2
v -4 11 1
v -3 11 1
v 3 11 1
v 4 11 1
v -4 11 -0
v -3 11 -0
v -1 11 -1
v 1 11 -1
v -1 11 -2
v 1 11 -2
v -4 12 -0
v -3 12 -0
v -4 12 -1
v -3 12 -1
v -1 12 -1
v 1 12 -1
v 2 12 -1
v -3 12 -2
v -1 12 -2
v 1 12 -2
v 2 12 -2
v -2 14 4
v 1 14 4
v -2 14 3
v 1 14 3
v -4 8 1
v -3 8 1
v 3 8 1
v 4 8 1
v -4 8 -0
v -3 8 -0
v 3 8 -0
v 4 8 -0
v -3 9 3
v -2 9 3
v 2 9 3
v 3 9 3
v -3 9 -1
v -2 9 -1
v 2 9 -1
v 3 9 -1
v 3 13 2
v 4 13 2
v 3 13 1
v 4 13 1
v -4 14 3
v -3 14 3
v 2 14 3
v 3 14 3
v 2 14 2
v 3 14 2
v -3 14 -0
v -2 14 -0
v 2 14 -0
v 3 14 -0
v -4 14 -1
v -3 14 -1
v -2 14 -1
v 2 14 -1
v 3 14 -1
v -3 14 -2
v 2 14 -2
v -3 15 4
v 1 15 4
v 1 15 3
v 2 15 3
v 2 15 2
v 3 15 2
v -3 15 -0
v -2 15 -0
v 2 15 -0
v 3 15 -0
v -2 15 -1
v 2 15 -1

# faces
f 3/1/1 2/1/1 1/1/1
f 4/1/1 2/1/1 3/1/1
f 5/4/1 4/4/1 3/4/1
f 6/4/1 4/4/1 5/4/1
f 11/3/1 10/3/1 9/3/1
f 13/2/1 9/2/1 8/2/1
f 13/3/1 8/3/1 7/3/1
f 14/3/1 11/3/1 9/3/1
f 14/2/1 9/2/1 13/2/1
f 14/3/1 12/3/1 11/3/1
f 15/3/1 13/3/1 7/3/1
f 15/3/1 14/3/1 13/3/1
f 16/3/1 12/3/1 14/3/1
f 16/3/1 14/3/1 15/3/1
f 19/3/1 18/3/1 17/3/1
f 20/3/1 18/3/1 19/3/1
f 22/6/1 20/6/1 19/6/1
f 23/6/1 20/6/1 22/6/1
f 25/6/1 23/6/1 22/6/1
f 25/6/1 24/6/1 23/6/1
f 25/6/1 22/6/1 21/6/1
f 26/6/1 24/6/1 25/6/1
f 27/6/1 24/6/1 26/6/1
f 28/6/1 24/6/1 27/6/1
f 29/4/1 26/4/1 25/4/1
f 30/4/1 28/4/1 27/4/1
f 31/4/1 29/4/1 25/4/1
f 32/4/1 28/4/1 30/4/1
f 33/4/1 31/4/1 25/4/1
f 33/4/1 32/4/1 31/4/1
f 34/4/1 28/4/1 32/4/1
f 34/4/1 32/4/1 33/4/1
f 38/1/1 36/1/1 35/1/1
f 39/1/1 36/1/1 38/1/1
f 40/1/1 36/1/1 39/1/1
f 41/1/1 36/1/1 40/1/1
f 42/1/1 36/1/1 41/1/1
f 43/1/1 36/1/1 42/1/1
f 45/3/1 38/3/1 37/3/1
f 47/3/1 44/3/1 43/3/1
f 48/3/1 44/3/1 47/3/1
f 49/3/1 46/3/1 45/3/1
f 49/3/1 45/3/1 37/3/1
f 50/3/1 46/3/1 49/3/1
f 53/1/1 52/1/1 51/1/1
f 54/1/1 52/1/1 53/1/1
f 57/3/1 56/3/1 55/3/1
f 58/3/1 56/3/1 57/3/1
f 61/3/1 60/3/1 59/3/1
f 62/3/1 60/3/1 61/3/1
f 65/3/1 64/3/1 63/3/1
f 66/3/1 64/3/1 65/3/1
f 67/6/1 66/6/1 65/6/1
f 68/6/1 66/6/1 67/6/1
f 69/3/2 70/3/2 71/3/2
f 69/3/2 71/3/2 72/3/2
f 72/3/2 71/3/2 73/3/2
f 74/3/2 75/3/2 76/3/2
f 76/3/2 75/3/2 77/3/2
f 76/6/2 77/6/2 78/6/2
f 78/6/2 77/6/2 79/6/2
f 80/3/2 81/3/2 82/3/2
f 82/3/2 81/3/2 83/3/2
f 84/3/2 85/3/2 86/3/2
f 86/3/2 85/3/2 87/3/2
f 88/1/2 89/1/2 90/1/2
f 90/1/2 89/1/2 91/1/2
f 92/3/2 93/3/2 97/3/2
f 97/3/2 93/3/2 98/3/2
f 94/3/2 95/3/2 99/3/2
f 99/3/2 95/3/2 100/3/2
f 96/3/2 97/3/2 101/3/2
f 101/3/2 97/3/2 102/3/2
f 103/3/2 104/3/2 105/3/2
f 105/3/2 104/3/2 106/3/2
f 105/6/2 106/6/2 108/6/2
f 108/6/2 106/6/2 109/6/2
f 108/6/2 109/6/2 111/6/2
f 109/6/2 110/6/2 111/6/2
f 107/6/2 108/6/2 111/6/2
f 111/6/2 110/6/2 112/6/2
f 112/6/2 110/6/2 113/6/2
f 113/6/2 110/6/2 114/6/2
f 111/4/2 112/4/2 115/4/2
f 113/4/2 114/4/2 116/4/2
f 111/4/2 115/4/2 117/4/2
f 116/4/2 114/4/2 118/4/2
f 111/4/2 117/4/2 119/4/2
f 117/4/2 118/4/2 119/4/2
f 118/4/2 114/4/2 120/4/2
f 119/4/2 118/4/2 120/4/2
f 121/1/2 122/1/2 123/1/2
f 123/1/2 122/1/2 124/1/2
f 121/1/2 123/1/2 125/1/2
f 124/1/2 122/1/2 126/1/2
f 121/1/2 125/1/2 127/1/2
f 125/1/2 126/1/2 127/1/2
f 127/1/2 126/1/2 128/1/2
f 126/1/2 122/1/2 129/1/2
f 128/1/2 126/1/2 129/1/2
f 129/1/2 122/1/2 130/1/2
f 128/3/2 129/3/2 131/3/2
f 131/3/2 129/3/2 132/3/2
f 133/1/2 134/1/2 135/1/2
f 135/1/2 134/1/2 136/1/2
f 135/4/2 136/4/2 137/4/2
f 137/4/2 136/4/2 138/4/2
f 139/2/2 140/2/2 141/2/2
f 141/2/2 140/2/2 142/2/2
f 145/3/3 144/3/3 143/3/3
f 146/3/3 144/3/3 145/3/3
f 147/3/3 144/3/3 146/3/3
f 148/3/3 144/3/3 147/3/3
f 155/3/3 150/3/3 149/3/3
f 156/3/3 150/3/3 155/3/3
f 157/4/3 153/4/3 152/4/3
f 158/1/3 155/1/3 154/1/3
f 159/1/3 155/1/3 158/1/3
f 162/1/3 158/1/3 157/1/3
f 162/1/3 159/1/3 158/1/3
f 163/5/3 160/5/3 159/5/3
f 163/1/3 159/1/3 162/1/3
f 164/1/3 161/1/3 160/1/3
f 164/5/3 160/5/3 163/5/3
f 165/7/3 163/7/3 162/7/3
f 165/1/3 162/1/3 157/1/3
f 166/1/3 164/1/3 163/1/3
f 166/7/3 163/7/3 165/7/3
f 167/1/3 161/1/3 164/1/3
f 167/1/3 164/1/3 166/1/3
f 168/1/3 161/1/3 167/1/3
f 170/4/3 157/4/3 152/4/3
f 170/1/3 166/1/3 165/1/3
f 170/1/3 165/1/3 157/1/3
f 171/1/3 166/1/3 170/1/3
f 172/5/3 167/5/3 166/5/3
f 172/1/3 166/1/3 171/1/3
f 173/1/3 168/1/3 167/1/3
f 173/5/3 167/5/3 172/5/3
f 174/3/3 169/3/3 168/3/3
f 174/1/3 168/1/3 173/1/3
f 175/3/3 169/3/3 174/3/3
f 176/6/3 152/6/3 151/6/3
f 177/4/3 170/4/3 152/4/3
f 177/6/3 152/6/3 176/6/3
f 178/4/3 170/4/3 177/4/3
f 179/1/3 172/1/3 171/1/3
f 179/1/3 173/1/3 172/1/3
f 179/1/3 174/1/3 173/1/3
f 180/1/3 174/1/3 179/1/3
f 184/3/3 182/3/3 181/3/3
f 185/6/3 183/6/3 182/6/3
f 185/3/3 182/3/3 184/3/3
f 186/6/3 183/6/3 185/6/3
f 192/3/3 188/3/3 187/3/3
f 193/6/3 189/6/3 188/6/3
f 193/3/3 188/3/3 192/3/3
f 194/6/3 189/6/3 193/6/3
f 197/3/3 191/3/3 190/3/3
f 198/3/3 191/3/3 197/3/3
f 199/2/3 196/2/3 195/2/3
f 200/2/3 196/2/3 199/2/3
f 204/1/3 202/1/3 201/1/3
f 205/4/3 203/4/3 202/4/3
f 205/1/3 202/1/3 204/1/3
f 206/4/3 203/4/3 205/4/3
f 210/1/3 208/1/3 207/1/3
f 211/4/3 209/4/3 208/4/3
f 211/1/3 208/1/3 210/1/3
f 212/4/3 209/4/3 211/4/3
f 213/2/4 214/2/4 215/2/4
f 215/2/4 214/2/4 216/2/4
f 217/1/4 218/1/4 225/1/4
f 218/4/4 219/4/4 226/4/4
f 225/1/4 218/1/4 226/1/4
f 226/4/4 219/4/4 227/4/4
f 220/3/4 221/3/4 228/3/4
f 228/3/4 221/3/4 229/3/4
f 230/3/4 231/3/4 232/3/4
f 232/3/4 231/3/4 233/3/4
f 222/3/4 223/3/4 234/3/4
f 223/6/4 224/6/4 235/6/4
f 234/3/4 223/3/4 235/3/4
f 235/6/4 224/6/4 236/6/4
f 237/3/4 238/3/4 242/3/4
f 238/6/4 239/6/4 243/6/4
f 242/3/4 238/3/4 243/3/4
f 243/6/4 239/6/4 244/6/4
f 240/3/4 241/3/4 248/3/4
f 248/3/4 241/3/4 249/3/4
f 245/1/4 246/1/4 250/1/4
f 246/4/4 247/4/4 251/4/4
f 250/1/4 246/1/4 251/1/4
f 251/4/4 247/4/4 252/4/4
f 253/3/4 254/3/4 259/3/4
f 259/3/4 254/3/4 260/3/4
f 256/4/4 257/4/4 261/4/4
f 258/1/4 259/1/4 262/1/4
f 261/1/4 262/1/4 265/1/4
f 262/1/4 259/1/4 265/1/4
f 265/1/4 259/1/4 266/1/4
f 261/1/4 265/1/4 267/1/4
f 256/4/4 261/4/4 269/4/4
f 267/1/4 268/1/4 269/1/4
f 261/1/4 267/1/4 269/1/4
f 269/1/4 268/1/4 270/1/4
f 270/1/4 268/1/4 271/1/4
f 263/3/4 264/3/4 272/3/4
f 272/3/4 264/3/4 273/3/4
f 255/6/4 256/6/4 274/6/4
f 256/4/4 269/4/4 275/4/4
f 274/6/4 256/6/4 275/6/4
f 275/4/4 269/4/4 276/4/4
f 270/1/4 271/1/4 277/1/4
f 271/1/4 272/1/4 277/1/4
f 277/1/4 272/1/4 278/1/4
f 279/3/4 280/3/4 282/3/4
f 281/3/4 282/3/4 283/3/4
f 282/3/4 280/3/4 284/3/4
f 283/3/4 282/3/4 284/3/4
f 284/3/4 280/3/4 285/3/4
f 285/3/4 280/3/4 286/3/4
f 291/3/5 288/3/5 287/3/5
f 292/3/5 288/3/5 291/3/5
f 293/3/5 290/3/5 289/3/5
f 294/3/5 290/3/5 293/3/5
f 297/6/5 296/6/5 295/6/5
f 298/6/5 296/6/5 297/6/5
f 299/6/5 296/6/5 298/6/5
f 300/6/5 296/6/5 299/6/5
f 302/6/5 299/6/5 298/6/5
f 303/6/5 299/6/5 302/6/5
f 305/6/5 302/6/5 301/6/5
f 305/6/5 304/6/5 303/6/5
f 305/6/5 303/6/5 302/6/5
f 306/6/5 304/6/5 305/6/5
f 311/1/5 308/1/5 307/1/5
f 312/1/5 308/1/5 311/1/5
f 313/1/5 310/1/5 309/1/5
f 314/1/5 310/1/5 313/1/5
f 319/1/5 316/1/5 315/1/5
f 320/1/5 316/1/5 319/1/5
f 321/1/5 318/1/5 317/1/5
f 322/1/5 318/1/5 321/1/5
f 326/3/5 324/3/5 323/3/5
f 327/3/5 324/3/5 326/3/5
f 328/3/5 326/3/5 325/3/5
f 329/3/5 326/3/5 328/3/5
f 332/2/5 329/2/5 328/2/5
f 333/2/5 329/2/5 332/2/5
f 334/2/5 331/2/5 330/2/5
f 335/2/5 331/2/5 334/2/5
f 336/3/5 333/3/5 332/3/5
f 337/3/5 333/3/5 336/3/5
f 340/3/5 339/3/5 338/3/5
f 341/3/5 339/3/5 340/3/5
f 344/3/5 343/3/5 342/3/5
f 345/3/5 343/3/5 344/3/5
f 349/3/5 346/3/5 345/3/5
f 350/3/5 346/3/5 349/3/5
f 351/3/5 348/3/5 347/3/5
f 352/3/5 348/3/5 351/3/5
f 355/3/5 354/3/5 353/3/5
f 356/3/5 354/3/5 355/3/5
f 357/4/6 358/4/6 361/4/6
f 361/4/6 358/4/6 362/4/6
f 359/4/6 360/4/6 363/4/6
f 363/4/6 360/4/6 364/4/6
f 365/4/6 366/4/6 369/4/6
f 369/4/6 366/4/6 370/4/6
f 367/4/6 368/4/6 371/4/6
f 371/4/6 368/4/6 372/4/6
f 373/2/6 374/2/6 375/2/6
f 375/2/6 374/2/6 376/2/6
f 379/1/6 380/1/6 381/1/6
f 381/1/6 380/1/6 382/1/6
f 377/3/6 378/3/6 383/3/6
f 377/3/6 383/3/6 387/3/6
f 383/3/6 384/3/6 387/3/6
f 387/3/6 384/3/6 388/3/6
f 388/3/6 384/3/6 389/3/6
f 385/1/6 386/1/6 390/1/6
f 390/1/6 386/1/6 391/1/6
f 388/3/6 389/3/6 392/3/6
f 389/3/6 390/3/6 392/3/6
f 392/3/6 390/3/6 393/3/6
f 394/3/6 395/3/6 396/3/6
f 396/3/6 397/3/6 398/3/6
f 394/3/6 396/3/6 400/3/6
f 398/3/6 399/3/6 400/3/6
f 396/3/6 398/3/6 400/3/6
f 400/3/6 399/3/6 401/3/6
f 401/3/6 399/3/6 402/3/6
f 402/3/6 399/3/6 403/3/6
f 401/3/6 402/3/6 404/3/6
f 404/3/6 402/3/6 405/3/6
