# MagicaVoxel @ Ephtracy

# group
g chr_nanny

# material
mtllib chr_nanny.mtl
usemtl palette

# normals
vn -1 0 0
vn 1 0 0
vn 0 0 1
vn 0 0 -1
vn 0 -1 0
vn 0 1 0

# texcoords
vt 0.0332031 0.5
vt 0.0605469 0.5
vt 0.0761719 0.5
vt 0.208984 0.5
vt 0.365234 0.5
vt 0.587891 0.5
vt 0.775391 0.5
vt 0.990234 0.5

# verts
v -5 6 1
v -5 6 -1
v -5 7 1
v -5 7 -1
v -5 12 1
v -5 12 -1
v -4 6 2
v -4 6 1
v -4 6 -1
v -4 6 -2
v -4 7 2
v -4 7 1
v -4 7 -1
v -4 7 -2
v -4 12 2
v -4 12 1
v -4 12 -1
v -4 12 -2
v -4 14 2
v -4 14 1
v -4 14 -0
v -4 14 -2
v -4 16 1
v -4 16 -0
v -4 17 2
v -4 17 -2
v -3 0 1
v -3 0 -1
v -3 1 1
v -3 1 -1
v -3 5 2
v -3 5 1
v -3 5 -1
v -3 5 -2
v -3 6 2
v -3 6 -2
v -3 6 -3
v -3 7 -2
v -3 7 -3
v -3 8 -2
v -3 8 -3
v -3 9 3
v -3 9 2
v -3 11 3
v -3 11 2
v -3 13 2
v -3 13 -2
v -3 14 2
v -3 14 1
v -3 14 -0
v -3 14 -2
v -3 15 -2
v -3 15 -3
v -3 16 3
v -3 16 2
v -3 17 3
v -3 17 2
v -3 17 -2
v -3 17 -3
v -3 18 2
v -3 18 -2
v -2 12 2
v -2 12 -2
v -2 13 2
v -2 13 -2
v -2 14 -2
v -2 14 -3
v -2 15 -2
v -2 15 -3
v -2 17 3
v -2 17 2
v -2 17 -2
v -2 17 -3
v -2 18 3
v -2 18 2
v -2 18 -2
v -2 18 -3
v -2 19 2
v -2 19 -2
v -1 11 -4
v -1 11 -5
v -1 12 -5
v -1 12 -6
v -1 13 -2
v -1 13 -3
v -1 14 -2
v -1 14 -3
v -1 14 -4
v -1 15 -5
v -1 15 -6
v -1 16 -3
v -1 16 -4
v -1 16 -5
v 1 0 1
v 1 0 -1
v 1 1 1
v 1 1 -1
v 1 5 1
v 1 5 -1
v 1 9 3
v 1 9 2
v 1 11 3
v 1 11 2
v 2 16 3
v 2 16 2
v 2 17 3
v 2 17 2
v -2 16 3
v -2 16 2
v -2 17 3
v -2 17 2
v -1 0 1
v -1 0 -1
v -1 1 1
v -1 1 -1
v -1 5 1
v -1 5 -1
v -1 9 3
v -1 9 2
v -1 11 3
v -1 11 2
v 1 11 -4
v 1 11 -5
v 1 12 -5
v 1 12 -6
v 1 13 -2
v 1 13 -3
v 1 14 -2
v 1 14 -3
v 1 14 -4
v 1 15 -5
v 1 15 -6
v 1 16 -3
v 1 16 -4
v 1 16 -5
v 2 12 2
v 2 12 -2
v 2 13 2
v 2 13 -2
v 2 17 3
v 2 17 2
v 2 17 -2
v 2 17 -3
v 2 18 3
v 2 18 2
v 2 18 -2
v 2 18 -3
v 2 19 2
v 2 19 -2
v 3 0 1
v 3 0 -1
v 3 1 1
v 3 1 -1
v 3 5 2
v 3 5 1
v 3 5 -1
v 3 5 -2
v 3 6 2
v 3 6 -2
v 3 6 -3
v 3 7 -2
v 3 7 -3
v 3 8 -2
v 3 8 -3
v 3 9 3
v 3 9 2
v 3 11 3
v 3 11 2
v 3 13 2
v 3 13 -2
v 3 14 2
v 3 14 1
v 3 14 -0
v 3 14 -2
v 3 14 -3
v 3 16 3
v 3 16 2
v 3 17 3
v 3 17 2
v 3 17 -2
v 3 17 -3
v 3 18 2
v 3 18 -2
v 4 6 2
v 4 6 1
v 4 6 -1
v 4 6 -2
v 4 7 2
v 4 7 1
v 4 7 -1
v 4 7 -2
v 4 12 2
v 4 12 1
v 4 12 -1
v 4 12 -2
v 4 14 2
v 4 14 1
v 4 14 -0
v 4 14 -2
v 4 16 1
v 4 16 -0
v 4 17 2
v 4 17 -2
v 5 6 1
v 5 6 -1
v 5 7 1
v 5 7 -1
v 5 12 1
v 5 12 -1
v -3 9 3
v -3 11 3
v -3 16 3
v -3 17 3
v -2 16 3
v -2 17 3
v -2 18 3
v -1 9 3
v -1 11 3
v 1 9 3
v 1 11 3
v 2 16 3
v 2 17 3
v 2 18 3
v 3 9 3
v 3 11 3
v 3 16 3
v 3 17 3
v -4 6 2
v -4 7 2
v -4 12 2
v -4 14 2
v -4 17 2
v -3 5 2
v -3 6 2
v -3 9 2
v -3 11 2
v -3 13 2
v -3 14 2
v -3 16 2
v -3 17 2
v -3 18 2
v -2 12 2
v -2 13 2
v -2 15 2
v -2 16 2
v -2 17 2
v -2 18 2
v -2 19 2
v -1 9 2
v -1 11 2
v -1 13 2
v -1 14 2
v -1 15 2
v -1 16 2
v 1 9 2
v 1 11 2
v 1 13 2
v 1 14 2
v 1 15 2
v 1 16 2
v 2 12 2
v 2 13 2
v 2 15 2
v 2 16 2
v 2 17 2
v 2 18 2
v 2 19 2
v 3 5 2
v 3 6 2
v 3 9 2
v 3 11 2
v 3 13 2
v 3 14 2
v 3 16 2
v 3 17 2
v 3 18 2
v 4 6 2
v 4 7 2
v 4 12 2
v 4 14 2
v 4 17 2
v -5 6 1
v -5 7 1
v -5 12 1
v -4 6 1
v -4 7 1
v -4 12 1
v -3 0 1
v -3 1 1
v -3 5 1
v -1 0 1
v -1 1 1
v -1 5 1
v 1 0 1
v 1 1 1
v 1 5 1
v 3 0 1
v 3 1 1
v 3 5 1
v 4 6 1
v 4 7 1
v 4 12 1
v 5 6 1
v 5 7 1
v 5 12 1
v -1 11 -4
v -1 14 -4
v 1 11 -4
v 1 14 -4
v -5 6 -1
v -5 7 -1
v -5 12 -1
v -4 6 -1
v -4 7 -1
v -4 12 -1
v -3 0 -1
v -3 1 -1
v -3 5 -1
v -1 0 -1
v -1 1 -1
v -1 5 -1
v 1 0 -1
v 1 1 -1
v 1 5 -1
v 3 0 -1
v 3 1 -1
v 3 5 -1
v 4 6 -1
v 4 7 -1
v 4 12 -1
v 5 6 -1
v 5 7 -1
v 5 12 -1
v -4 6 -2
v -4 7 -2
v -4 12 -2
v -4 14 -2
v -4 17 -2
v -3 5 -2
v -3 6 -2
v -3 7 -2
v -3 8 -2
v -3 13 -2
v -3 14 -2
v -3 15 -2
v -3 17 -2
v -3 18 -2
v -2 12 -2
v -2 13 -2
v -2 14 -2
v -2 15 -2
v -2 17 -2
v -2 18 -2
v -2 19 -2
v -1 13 -2
v -1 14 -2
v 1 13 -2
v 1 14 -2
v 2 12 -2
v 2 13 -2
v 2 17 -2
v 2 18 -2
v 2 19 -2
v 3 5 -2
v 3 6 -2
v 3 7 -2
v 3 8 -2
v 3 13 -2
v 3 14 -2
v 3 17 -2
v 3 18 -2
v 4 6 -2
v 4 7 -2
v 4 12 -2
v 4 14 -2
v 4 17 -2
v -3 6 -3
v -3 7 -3
v -3 8 -3
v -3 15 -3
v -3 17 -3
v -2 14 -3
v -2 15 -3
v -2 17 -3
v -2 18 -3
v -1 13 -3
v -1 14 -3
v -1 16 -3
v 1 13 -3
v 1 14 -3
v 1 16 -3
v 2 17 -3
v 2 18 -3
v 3 6 -3
v 3 7 -3
v 3 8 -3
v 3 14 -3
v 3 17 -3
v -1 11 -5
v -1 12 -5
v -1 15 -5
v -1 16 -5
v 1 11 -5
v 1 12 -5
v 1 15 -5
v 1 16 -5
v -1 12 -6
v -1 15 -6
v 1 12 -6
v 1 15 -6
v -3 0 1
v -1 0 1
v 1 0 1
v 3 0 1
v -3 0 -1
v -1 0 -1
v 1 0 -1
v 3 0 -1
v -3 5 2
v 3 5 2
v -3 5 1
v -1 5 1
v 1 5 1
v 3 5 1
v -3 5 -1
v -1 5 -1
v 1 5 -1
v 3 5 -1
v -3 5 -2
v 3 5 -2
v -4 6 2
v -3 6 2
v 3 6 2
v 4 6 2
v -5 6 1
v -4 6 1
v 4 6 1
v 5 6 1
v -5 6 -1
v -4 6 -1
v 4 6 -1
v 5 6 -1
v -4 6 -2
v -3 6 -2
v 3 6 -2
v 4 6 -2
v -3 6 -3
v 3 6 -3
v -3 9 3
v -1 9 3
v 1 9 3
v 3 9 3
v -3 9 2
v -1 9 2
v 1 9 2
v 3 9 2
v -1 11 -4
v 1 11 -4
v -1 11 -5
v 1 11 -5
v -1 12 -5
v 1 12 -5
v -1 12 -6
v 1 12 -6
v -3 13 2
v -2 13 2
v 2 13 2
v 3 13 2
v -3 13 -2
v -2 13 -2
v -1 13 -2
v 1 13 -2
v 2 13 -2
v 3 13 -2
v -1 13 -3
v 1 13 -3
v -4 14 2
v -3 14 2
v 3 14 2
v 4 14 2
v -4 14 1
v -3 14 1
v 3 14 1
v 4 14 1
v -4 14 -0
v -3 14 -0
v 3 14 -0
v 4 14 -0
v -4 14 -2
v -3 14 -2
v -2 14 -2
v -1 14 -2
v 1 14 -2
v 3 14 -2
v 4 14 -2
v -2 14 -3
v -1 14 -3
v 1 14 -3
v 3 14 -3
v -1 14 -4
v 1 14 -4
v -3 15 -2
v -2 15 -2
v -3 15 -3
v -2 15 -3
v -3 16 3
v -2 16 3
v 2 16 3
v 3 16 3
v -3 16 2
v -2 16 2
v 2 16 2
v 3 16 2
v -2 17 3
v 2 17 3
v -2 17 2
v 2 17 2
v -3 8 -2
v 3 8 -2
v -3 8 -3
v 3 8 -3
v -3 11 3
v -1 11 3
v 1 11 3
v 3 11 3
v -3 11 2
v -1 11 2
v 1 11 2
v 3 11 2
v -4 12 2
v -2 12 2
v 2 12 2
v 4 12 2
v -5 12 1
v -4 12 1
v 4 12 1
v 5 12 1
v -5 12 -1
v -4 12 -1
v 4 12 -1
v 5 12 -1
v -4 12 -2
v -2 12 -2
v 2 12 -2
v 4 12 -2
v -1 15 -5
v 1 15 -5
v -1 15 -6
v 1 15 -6
v -1 16 -3
v 1 16 -3
v -1 16 -4
v 1 16 -4
v -1 16 -5
v 1 16 -5
v -3 17 3
v -2 17 3
v 2 17 3
v 3 17 3
v -4 17 2
v -3 17 2
v -2 17 2
v 2 17 2
v 3 17 2
v 4 17 2
v -4 17 -2
v -3 17 -2
v -2 17 -2
v 2 17 -2
v 3 17 -2
v 4 17 -2
v -3 17 -3
v -2 17 -3
v 2 17 -3
v 3 17 -3
v -2 18 3
v 2 18 3
v -3 18 2
v -2 18 2
v 2 18 2
v 3 18 2
v -3 18 -2
v -2 18 -2
v 2 18 -2
v 3 18 -2
v -2 18 -3
v 2 18 -3
v -2 19 2
v 2 19 2
v -2 19 -2
v 2 19 -2

# faces
f 3/1/1 2/1/1 1/1/1
f 4/1/1 2/1/1 3/1/1
f 5/6/1 4/6/1 3/6/1
f 6/6/1 4/6/1 5/6/1
f 11/5/1 8/5/1 7/5/1
f 12/5/1 8/5/1 11/5/1
f 13/5/1 10/5/1 9/5/1
f 14/5/1 10/5/1 13/5/1
f 15/6/1 12/6/1 11/6/1
f 16/6/1 12/6/1 15/6/1
f 17/6/1 14/6/1 13/6/1
f 18/6/1 14/6/1 17/6/1
f 23/4/1 20/4/1 19/4/1
f 23/2/1 21/2/1 20/2/1
f 24/4/1 22/4/1 21/4/1
f 24/2/1 21/2/1 23/2/1
f 25/4/1 23/4/1 19/4/1
f 25/4/1 24/4/1 23/4/1
f 26/4/1 22/4/1 24/4/1
f 26/4/1 24/4/1 25/4/1
f 29/8/1 28/8/1 27/8/1
f 30/8/1 28/8/1 29/8/1
f 32/5/1 30/5/1 29/5/1
f 33/5/1 30/5/1 32/5/1
f 35/5/1 33/5/1 32/5/1
f 35/5/1 34/5/1 33/5/1
f 35/5/1 32/5/1 31/5/1
f 36/5/1 34/5/1 35/5/1
f 38/5/1 37/5/1 36/5/1
f 39/5/1 37/5/1 38/5/1
f 40/6/1 39/6/1 38/6/1
f 41/6/1 39/6/1 40/6/1
f 44/6/1 43/6/1 42/6/1
f 45/6/1 43/6/1 44/6/1
f 48/1/1 47/1/1 46/1/1
f 49/1/1 47/1/1 48/1/1
f 50/1/1 47/1/1 49/1/1
f 51/1/1 47/1/1 50/1/1
f 56/4/1 55/4/1 54/4/1
f 57/4/1 55/4/1 56/4/1
f 58/4/1 53/4/1 52/4/1
f 59/4/1 53/4/1 58/4/1
f 60/4/1 58/4/1 57/4/1
f 61/4/1 58/4/1 60/4/1
f 64/1/1 63/1/1 62/1/1
f 65/1/1 63/1/1 64/1/1
f 68/4/1 67/4/1 66/4/1
f 69/4/1 67/4/1 68/4/1
f 74/4/1 71/4/1 70/4/1
f 75/4/1 71/4/1 74/4/1
f 76/4/1 73/4/1 72/4/1
f 77/4/1 73/4/1 76/4/1
f 78/4/1 76/4/1 75/4/1
f 79/4/1 76/4/1 78/4/1
f 82/4/1 81/4/1 80/4/1
f 86/4/1 85/4/1 84/4/1
f 87/4/1 85/4/1 86/4/1
f 88/4/1 82/4/1 80/4/1
f 88/4/1 83/4/1 82/4/1
f 89/4/1 83/4/1 88/4/1
f 90/4/1 83/4/1 89/4/1
f 91/8/1 88/8/1 87/8/1
f 92/4/1 89/4/1 88/4/1
f 92/8/1 88/8/1 91/8/1
f 93/4/1 89/4/1 92/4/1
f 96/8/1 95/8/1 94/8/1
f 97/8/1 95/8/1 96/8/1
f 98/5/1 97/5/1 96/5/1
f 99/5/1 97/5/1 98/5/1
f 102/6/1 101/6/1 100/6/1
f 103/6/1 101/6/1 102/6/1
f 106/4/1 105/4/1 104/4/1
f 107/4/1 105/4/1 106/4/1
f 108/4/2 109/4/2 110/4/2
f 110/4/2 109/4/2 111/4/2
f 112/8/2 113/8/2 114/8/2
f 114/8/2 113/8/2 115/8/2
f 114/5/2 115/5/2 116/5/2
f 116/5/2 115/5/2 117/5/2
f 118/6/2 119/6/2 120/6/2
f 120/6/2 119/6/2 121/6/2
f 122/4/2 123/4/2 124/4/2
f 126/4/2 127/4/2 128/4/2
f 128/4/2 127/4/2 129/4/2
f 122/4/2 124/4/2 130/4/2
f 124/4/2 125/4/2 130/4/2
f 130/4/2 125/4/2 131/4/2
f 131/4/2 125/4/2 132/4/2
f 129/8/2 130/8/2 133/8/2
f 130/4/2 131/4/2 134/4/2
f 133/8/2 130/8/2 134/8/2
f 134/4/2 131/4/2 135/4/2
f 136/1/2 137/1/2 138/1/2
f 138/1/2 137/1/2 139/1/2
f 140/4/2 141/4/2 144/4/2
f 144/4/2 141/4/2 145/4/2
f 142/4/2 143/4/2 146/4/2
f 146/4/2 143/4/2 147/4/2
f 145/4/2 146/4/2 148/4/2
f 148/4/2 146/4/2 149/4/2
f 150/8/2 151/8/2 152/8/2
f 152/8/2 151/8/2 153/8/2
f 152/5/2 153/5/2 155/5/2
f 155/5/2 153/5/2 156/5/2
f 155/5/2 156/5/2 158/5/2
f 156/5/2 157/5/2 158/5/2
f 154/5/2 155/5/2 158/5/2
f 158/5/2 157/5/2 159/5/2
f 159/5/2 160/5/2 161/5/2
f 161/5/2 160/5/2 162/5/2
f 161/6/2 162/6/2 163/6/2
f 163/6/2 162/6/2 164/6/2
f 165/6/2 166/6/2 167/6/2
f 167/6/2 166/6/2 168/6/2
f 169/1/2 170/1/2 171/1/2
f 171/1/2 170/1/2 172/1/2
f 172/1/2 170/1/2 173/1/2
f 173/1/2 170/1/2 174/1/2
f 176/4/2 177/4/2 178/4/2
f 178/4/2 177/4/2 179/4/2
f 174/4/2 175/4/2 180/4/2
f 180/4/2 175/4/2 181/4/2
f 179/4/2 180/4/2 182/4/2
f 182/4/2 180/4/2 183/4/2
f 184/5/2 185/5/2 188/5/2
f 188/5/2 185/5/2 189/5/2
f 186/5/2 187/5/2 190/5/2
f 190/5/2 187/5/2 191/5/2
f 188/6/2 189/6/2 192/6/2
f 192/6/2 189/6/2 193/6/2
f 190/6/2 191/6/2 194/6/2
f 194/6/2 191/6/2 195/6/2
f 196/4/2 197/4/2 200/4/2
f 197/2/2 198/2/2 200/2/2
f 198/4/2 199/4/2 201/4/2
f 200/2/2 198/2/2 201/2/2
f 196/4/2 200/4/2 202/4/2
f 200/4/2 201/4/2 202/4/2
f 201/4/2 199/4/2 203/4/2
f 202/4/2 201/4/2 203/4/2
f 204/1/2 205/1/2 206/1/2
f 206/1/2 205/1/2 207/1/2
f 206/6/2 207/6/2 208/6/2
f 208/6/2 207/6/2 209/6/2
f 214/4/3 213/4/3 212/4/3
f 215/4/3 213/4/3 214/4/3
f 217/6/3 211/6/3 210/6/3
f 218/6/3 211/6/3 217/6/3
f 222/4/3 216/4/3 215/4/3
f 223/4/3 216/4/3 222/4/3
f 224/6/3 220/6/3 219/6/3
f 225/6/3 220/6/3 224/6/3
f 226/4/3 222/4/3 221/4/3
f 227/4/3 222/4/3 226/4/3
f 234/5/3 229/5/3 228/5/3
f 235/6/3 230/6/3 229/6/3
f 236/6/3 230/6/3 235/6/3
f 238/4/3 232/4/3 231/4/3
f 239/4/3 232/4/3 238/4/3
f 240/4/3 232/4/3 239/4/3
f 242/6/3 230/6/3 236/6/3
f 243/1/3 239/1/3 238/1/3
f 243/1/3 238/1/3 237/1/3
f 244/1/3 239/1/3 243/1/3
f 245/1/3 239/1/3 244/1/3
f 246/4/3 241/4/3 240/4/3
f 247/4/3 241/4/3 246/4/3
f 249/6/3 235/6/3 229/6/3
f 250/6/3 242/6/3 236/6/3
f 251/1/3 243/1/3 242/1/3
f 251/1/3 244/1/3 243/1/3
f 252/1/3 244/1/3 251/1/3
f 253/7/3 245/7/3 244/7/3
f 253/1/3 244/1/3 252/1/3
f 254/1/3 246/1/3 245/1/3
f 254/7/3 245/7/3 253/7/3
f 255/6/3 249/6/3 229/6/3
f 255/6/3 250/6/3 249/6/3
f 256/6/3 242/6/3 250/6/3
f 256/6/3 250/6/3 255/6/3
f 257/3/3 252/3/3 251/3/3
f 257/1/3 251/1/3 242/1/3
f 258/1/3 254/1/3 253/1/3
f 258/3/3 252/3/3 257/3/3
f 258/1/3 253/1/3 252/1/3
f 259/1/3 254/1/3 258/1/3
f 260/1/3 246/1/3 254/1/3
f 260/1/3 254/1/3 259/1/3
f 261/6/3 242/6/3 256/6/3
f 261/1/3 259/1/3 258/1/3
f 261/1/3 257/1/3 242/1/3
f 261/1/3 258/1/3 257/1/3
f 262/1/3 259/1/3 261/1/3
f 263/7/3 260/7/3 259/7/3
f 263/1/3 259/1/3 262/1/3
f 264/1/3 246/1/3 260/1/3
f 264/7/3 260/7/3 263/7/3
f 265/1/3 246/1/3 264/1/3
f 266/4/3 248/4/3 247/4/3
f 267/4/3 248/4/3 266/4/3
f 268/5/3 234/5/3 233/5/3
f 269/5/3 229/5/3 234/5/3
f 269/5/3 234/5/3 268/5/3
f 270/6/3 255/6/3 229/6/3
f 271/6/3 261/6/3 256/6/3
f 272/1/3 263/1/3 262/1/3
f 272/1/3 264/1/3 263/1/3
f 273/1/3 264/1/3 272/1/3
f 274/1/3 264/1/3 273/1/3
f 275/4/3 266/4/3 265/4/3
f 276/4/3 266/4/3 275/4/3
f 277/5/3 229/5/3 269/5/3
f 278/6/3 271/6/3 270/6/3
f 278/5/3 229/5/3 277/5/3
f 278/6/3 270/6/3 229/6/3
f 279/6/3 261/6/3 271/6/3
f 279/6/3 271/6/3 278/6/3
f 280/4/3 274/4/3 273/4/3
f 280/4/3 275/4/3 274/4/3
f 281/4/3 275/4/3 280/4/3
f 285/1/3 283/1/3 282/1/3
f 286/6/3 284/6/3 283/6/3
f 286/1/3 283/1/3 285/1/3
f 287/6/3 284/6/3 286/6/3
f 291/8/3 289/8/3 288/8/3
f 292/5/3 290/5/3 289/5/3
f 292/8/3 289/8/3 291/8/3
f 293/5/3 290/5/3 292/5/3
f 297/8/3 295/8/3 294/8/3
f 298/5/3 296/5/3 295/5/3
f 298/8/3 295/8/3 297/8/3
f 299/5/3 296/5/3 298/5/3
f 303/1/3 301/1/3 300/1/3
f 304/6/3 302/6/3 301/6/3
f 304/1/3 301/1/3 303/1/3
f 305/6/3 302/6/3 304/6/3
f 308/4/3 307/4/3 306/4/3
f 309/4/3 307/4/3 308/4/3
f 310/1/4 311/1/4 313/1/4
f 311/6/4 312/6/4 314/6/4
f 313/1/4 311/1/4 314/1/4
f 314/6/4 312/6/4 315/6/4
f 316/8/4 317/8/4 319/8/4
f 317/5/4 318/5/4 320/5/4
f 319/8/4 317/8/4 320/8/4
f 320/5/4 318/5/4 321/5/4
f 322/8/4 323/8/4 325/8/4
f 323/5/4 324/5/4 326/5/4
f 325/8/4 323/8/4 326/8/4
f 326/5/4 324/5/4 327/5/4
f 328/1/4 329/1/4 331/1/4
f 329/6/4 330/6/4 332/6/4
f 331/1/4 329/1/4 332/1/4
f 332/6/4 330/6/4 333/6/4
f 334/5/4 335/5/4 340/5/4
f 335/6/4 336/6/4 341/6/4
f 340/5/4 335/5/4 341/5/4
f 341/6/4 336/6/4 342/6/4
f 337/4/4 338/4/4 344/4/4
f 344/4/4 338/4/4 345/4/4
f 345/4/4 338/4/4 346/4/4
f 342/6/4 336/6/4 348/6/4
f 344/1/4 345/1/4 349/1/4
f 343/1/4 344/1/4 349/1/4
f 349/1/4 345/1/4 350/1/4
f 350/1/4 345/1/4 351/1/4
f 346/4/4 347/4/4 352/4/4
f 352/4/4 347/4/4 353/4/4
f 348/1/4 349/1/4 355/1/4
f 349/1/4 350/1/4 355/1/4
f 355/1/4 350/1/4 356/1/4
f 348/1/4 355/1/4 357/1/4
f 342/6/4 348/6/4 359/6/4
f 357/1/4 358/1/4 359/1/4
f 348/1/4 357/1/4 359/1/4
f 359/1/4 358/1/4 360/1/4
f 353/4/4 354/4/4 362/4/4
f 362/4/4 354/4/4 363/4/4
f 339/5/4 340/5/4 364/5/4
f 364/5/4 340/5/4 365/5/4
f 342/6/4 359/6/4 367/6/4
f 360/1/4 358/1/4 368/1/4
f 368/1/4 358/1/4 369/1/4
f 361/4/4 362/4/4 370/4/4
f 370/4/4 362/4/4 371/4/4
f 365/5/4 366/5/4 372/5/4
f 366/6/4 367/6/4 373/6/4
f 372/5/4 366/5/4 373/5/4
f 367/6/4 359/6/4 374/6/4
f 373/6/4 367/6/4 374/6/4
f 369/4/4 370/4/4 375/4/4
f 375/4/4 370/4/4 376/4/4
f 380/4/4 381/4/4 383/4/4
f 383/4/4 381/4/4 384/4/4
f 382/4/4 383/4/4 387/4/4
f 384/4/4 385/4/4 387/4/4
f 383/4/4 384/4/4 387/4/4
f 387/4/4 385/4/4 388/4/4
f 386/4/4 387/4/4 389/4/4
f 389/4/4 387/4/4 390/4/4
f 388/4/4 385/4/4 391/4/4
f 390/4/4 391/4/4 392/4/4
f 391/4/4 385/4/4 392/4/4
f 392/4/4 385/4/4 393/4/4
f 377/5/4 378/5/4 394/5/4
f 378/6/4 379/6/4 395/6/4
f 394/5/4 378/5/4 395/5/4
f 395/6/4 379/6/4 396/6/4
f 390/4/4 392/4/4 397/4/4
f 397/4/4 392/4/4 398/4/4
f 399/4/4 400/4/4 403/4/4
f 403/4/4 400/4/4 404/4/4
f 401/4/4 402/4/4 405/4/4
f 405/4/4 402/4/4 406/4/4
f 407/4/4 408/4/4 409/4/4
f 409/4/4 408/4/4 410/4/4
f 415/8/5 412/8/5 411/8/5
f 416/8/5 412/8/5 415/8/5
f 417/8/5 414/8/5 413/8/5
f 418/8/5 414/8/5 417/8/5
f 421/5/5 420/5/5 419/5/5
f 422/5/5 420/5/5 421/5/5
f 423/5/5 420/5/5 422/5/5
f 424/5/5 420/5/5 423/5/5
f 426/5/5 423/5/5 422/5/5
f 427/5/5 423/5/5 426/5/5
f 429/5/5 426/5/5 425/5/5
f 429/5/5 428/5/5 427/5/5
f 429/5/5 427/5/5 426/5/5
f 430/5/5 428/5/5 429/5/5
f 436/5/5 432/5/5 431/5/5
f 437/5/5 434/5/5 433/5/5
f 439/1/5 436/1/5 435/1/5
f 440/5/5 432/5/5 436/5/5
f 440/1/5 436/1/5 439/1/5
f 441/1/5 438/1/5 437/1/5
f 441/5/5 437/5/5 433/5/5
f 442/1/5 438/1/5 441/1/5
f 443/5/5 432/5/5 440/5/5
f 444/5/5 432/5/5 443/5/5
f 445/5/5 441/5/5 433/5/5
f 446/5/5 441/5/5 445/5/5
f 447/5/5 445/5/5 444/5/5
f 448/5/5 445/5/5 447/5/5
f 453/6/5 450/6/5 449/6/5
f 454/6/5 450/6/5 453/6/5
f 455/6/5 452/6/5 451/6/5
f 456/6/5 452/6/5 455/6/5
f 459/4/5 458/4/5 457/4/5
f 460/4/5 458/4/5 459/4/5
f 463/4/5 462/4/5 461/4/5
f 464/4/5 462/4/5 463/4/5
f 469/1/5 466/1/5 465/1/5
f 470/1/5 466/1/5 469/1/5
f 473/1/5 468/1/5 467/1/5
f 474/1/5 468/1/5 473/1/5
f 475/4/5 472/4/5 471/4/5
f 476/4/5 472/4/5 475/4/5
f 481/4/5 478/4/5 477/4/5
f 482/4/5 478/4/5 481/4/5
f 483/4/5 480/4/5 479/4/5
f 484/4/5 480/4/5 483/4/5
f 485/2/5 482/2/5 481/2/5
f 486/2/5 482/2/5 485/2/5
f 487/2/5 484/2/5 483/2/5
f 488/2/5 484/2/5 487/2/5
f 489/4/5 486/4/5 485/4/5
f 490/4/5 486/4/5 489/4/5
f 494/4/5 488/4/5 487/4/5
f 495/4/5 488/4/5 494/4/5
f 496/4/5 492/4/5 491/4/5
f 497/4/5 492/4/5 496/4/5
f 498/4/5 494/4/5 493/4/5
f 499/4/5 494/4/5 498/4/5
f 500/8/5 498/8/5 497/8/5
f 501/8/5 498/8/5 500/8/5
f 504/4/5 503/4/5 502/4/5
f 505/4/5 503/4/5 504/4/5
f 510/4/5 507/4/5 506/4/5
f 511/4/5 507/4/5 510/4/5
f 512/4/5 509/4/5 508/4/5
f 513/4/5 509/4/5 512/4/5
f 516/4/5 515/4/5 514/4/5
f 517/4/5 515/4/5 516/4/5
f 518/6/6 519/6/6 520/6/6
f 520/6/6 519/6/6 521/6/6
f 522/6/6 523/6/6 526/6/6
f 526/6/6 523/6/6 527/6/6
f 524/6/6 525/6/6 528/6/6
f 528/6/6 525/6/6 529/6/6
f 530/6/6 531/6/6 535/6/6
f 532/6/6 533/6/6 536/6/6
f 534/6/6 535/6/6 538/6/6
f 535/6/6 531/6/6 539/6/6
f 538/6/6 535/6/6 539/6/6
f 536/6/6 537/6/6 540/6/6
f 532/6/6 536/6/6 540/6/6
f 540/6/6 537/6/6 541/6/6
f 539/6/6 531/6/6 542/6/6
f 542/6/6 531/6/6 543/6/6
f 532/6/6 540/6/6 544/6/6
f 544/6/6 540/6/6 545/6/6
f 546/4/6 547/4/6 548/4/6
f 548/4/6 547/4/6 549/4/6
f 550/8/6 551/8/6 552/8/6
f 552/8/6 551/8/6 553/8/6
f 552/4/6 553/4/6 554/4/6
f 554/4/6 553/4/6 555/4/6
f 556/4/6 557/4/6 561/4/6
f 561/4/6 557/4/6 562/4/6
f 558/4/6 559/4/6 563/4/6
f 563/4/6 559/4/6 564/4/6
f 560/4/6 561/4/6 566/4/6
f 566/4/6 561/4/6 567/4/6
f 564/4/6 565/4/6 570/4/6
f 570/4/6 565/4/6 571/4/6
f 567/4/6 568/4/6 572/4/6
f 572/4/6 568/4/6 573/4/6
f 569/4/6 570/4/6 574/4/6
f 574/4/6 570/4/6 575/4/6
f 576/4/6 577/4/6 579/4/6
f 579/4/6 577/4/6 580/4/6
f 578/4/6 579/4/6 582/4/6
f 582/4/6 579/4/6 583/4/6
f 580/4/6 581/4/6 584/4/6
f 584/4/6 581/4/6 585/4/6
f 583/4/6 584/4/6 586/4/6
f 586/4/6 584/4/6 587/4/6
f 588/4/6 589/4/6 590/4/6
f 590/4/6 589/4/6 591/4/6
