# MagicaVoxel @ Ephtracy

# group
g env_table_1x2

# material
mtllib env_table_1x2.mtl
usemtl palette

# normals
vn -1 0 0
vn 1 0 0
vn 0 0 1
vn 0 0 -1
vn 0 -1 0
vn 0 1 0

# texcoords
vt 0.302734 0.5
vt 0.306641 0.5

# verts
v -20 9 10
v -20 9 8
v -20 9 7
v -20 9 5
v -20 9 4
v -20 9 2
v -20 9 1
v -20 9 -1
v -20 9 -2
v -20 9 -7
v -20 9 -8
v -20 9 -10
v -20 10 10
v -20 10 8
v -20 10 7
v -20 10 5
v -20 10 4
v -20 10 2
v -20 10 1
v -20 10 -1
v -20 10 -2
v -20 10 -7
v -20 10 -8
v -20 10 -10
v -19 0 9
v -19 0 7
v -19 0 -7
v -19 0 -9
v -19 9 9
v -19 9 8
v -19 9 7
v -19 9 -7
v -19 9 -8
v -19 9 -9
v 17 0 9
v 17 0 7
v 17 0 -7
v 17 0 -9
v 17 9 9
v 17 9 7
v 17 9 -7
v 17 9 -9
v -17 0 9
v -17 0 7
v -17 0 -7
v -17 0 -9
v -17 9 9
v -17 9 8
v -17 9 7
v -17 9 -7
v -17 9 -8
v -17 9 -9
v 19 0 9
v 19 0 7
v 19 0 -7
v 19 0 -9
v 19 9 9
v 19 9 7
v 19 9 -7
v 19 9 -8
v 19 9 -9
v 20 9 10
v 20 9 7
v 20 9 6
v 20 9 4
v 20 9 3
v 20 9 -3
v 20 9 -4
v 20 9 -8
v 20 9 -9
v 20 9 -10
v 20 10 10
v 20 10 7
v 20 10 6
v 20 10 4
v 20 10 3
v 20 10 -3
v 20 10 -4
v 20 10 -8
v 20 10 -9
v 20 10 -10
v -20 9 10
v -20 10 10
v -11 9 10
v -11 10 10
v -8 9 10
v -8 10 10
v 20 9 10
v 20 10 10
v -19 0 9
v -19 9 9
v -17 0 9
v -17 9 9
v 17 0 9
v 17 9 9
v 19 0 9
v 19 9 9
v -19 0 -7
v -19 9 -7
v -17 0 -7
v -17 9 -7
v 17 0 -7
v 17 9 -7
v 18 9 -7
v 19 0 -7
v 19 9 -7
v -19 0 7
v -19 9 7
v -17 0 7
v -17 9 7
v 17 0 7
v 17 9 7
v 19 0 7
v 19 9 7
v -19 0 -9
v -19 9 -9
v -17 0 -9
v -17 9 -9
v 17 0 -9
v 17 9 -9
v 19 0 -9
v 19 9 -9
v -20 9 -10
v -20 10 -10
v 10 9 -10
v 10 10 -10
v 15 9 -10
v 15 10 -10
v 20 9 -10
v 20 10 -10
v -19 0 9
v -17 0 9
v 17 0 9
v 19 0 9
v -19 0 7
v -17 0 7
v 17 0 7
v 19 0 7
v -19 0 -7
v -17 0 -7
v 17 0 -7
v 19 0 -7
v -19 0 -9
v -17 0 -9
v 17 0 -9
v 19 0 -9
v -20 9 10
v -11 9 10
v -8 9 10
v 20 9 10
v -19 9 9
v -17 9 9
v -11 9 9
v -8 9 9
v -1 9 9
v 4 9 9
v 17 9 9
v 19 9 9
v -20 9 8
v -19 9 8
v -17 9 8
v -11 9 8
v -1 9 8
v 4 9 8
v 15 9 8
v -20 9 7
v -19 9 7
v -17 9 7
v -10 9 7
v 0 9 7
v 4 9 7
v 15 9 7
v 17 9 7
v 19 9 7
v 20 9 7
v -10 9 6
v 0 9 6
v 10 9 6
v 15 9 6
v 20 9 6
v -20 9 5
v -12 9 5
v 0 9 5
v 10 9 5
v -20 9 4
v -12 9 4
v -3 9 4
v 11 9 4
v 20 9 4
v -12 9 3
v -3 9 3
v 1 9 3
v 11 9 3
v 20 9 3
v -20 9 2
v -16 9 2
v -15 9 2
v -7 9 2
v 1 9 2
v 11 9 2
v -20 9 1
v -16 9 1
v -15 9 1
v -7 9 1
v 1 9 1
v -15 9 -0
v -10 9 -0
v -7 9 -0
v 1 9 -0
v 3 9 -0
v 6 9 -0
v 13 9 -0
v 19 9 -0
v -20 9 -1
v -15 9 -1
v -10 9 -1
v 3 9 -1
v 6 9 -1
v 7 9 -1
v 13 9 -1
v 19 9 -1
v -20 9 -2
v -15 9 -2
v -7 9 -2
v 3 9 -2
v 7 9 -2
v 13 9 -2
v -16 9 -3
v -12 9 -3
v -7 9 -3
v 3 9 -3
v 14 9 -3
v 20 9 -3
v -19 9 -4
v -16 9 -4
v -12 9 -4
v -11 9 -4
v -8 9 -4
v 2 9 -4
v 6 9 -4
v 14 9 -4
v 20 9 -4
v -19 9 -5
v -16 9 -5
v -11 9 -5
v -8 9 -5
v -4 9 -5
v -2 9 -5
v 2 9 -5
v 6 9 -5
v 7 9 -5
v 12 9 -5
v -8 9 -6
v -4 9 -6
v -2 9 -6
v 2 9 -6
v 7 9 -6
v 12 9 -6
v 18 9 -6
v -20 9 -7
v -19 9 -7
v -17 9 -7
v -9 9 -7
v -7 9 -7
v -3 9 -7
v 12 9 -7
v 17 9 -7
v 18 9 -7
v 19 9 -7
v -20 9 -8
v -19 9 -8
v -17 9 -8
v -9 9 -8
v -7 9 -8
v -3 9 -8
v 2 9 -8
v 6 9 -8
v 10 9 -8
v 19 9 -8
v 20 9 -8
v -19 9 -9
v -17 9 -9
v -3 9 -9
v 2 9 -9
v 6 9 -9
v 10 9 -9
v 15 9 -9
v 17 9 -9
v 19 9 -9
v 20 9 -9
v -20 9 -10
v 10 9 -10
v 15 9 -10
v 20 9 -10
v -20 10 10
v -11 10 10
v -8 10 10
v 20 10 10
v -17 10 9
v -11 10 9
v -8 10 9
v -1 10 9
v 4 10 9
v -20 10 8
v -17 10 8
v -11 10 8
v -1 10 8
v 4 10 8
v 15 10 8
v -20 10 7
v -17 10 7
v -10 10 7
v 0 10 7
v 4 10 7
v 15 10 7
v 20 10 7
v -10 10 6
v 0 10 6
v 10 10 6
v 15 10 6
v 20 10 6
v -20 10 5
v -12 10 5
v 0 10 5
v 10 10 5
v -20 10 4
v -12 10 4
v -3 10 4
v 11 10 4
v 20 10 4
v -12 10 3
v -3 10 3
v 1 10 3
v 11 10 3
v 20 10 3
v -20 10 2
v -16 10 2
v -15 10 2
v -7 10 2
v 1 10 2
v 11 10 2
v -20 10 1
v -16 10 1
v -15 10 1
v -7 10 1
v 1 10 1
v -15 10 -0
v -10 10 -0
v -7 10 -0
v 1 10 -0
v 3 10 -0
v 6 10 -0
v 13 10 -0
v 19 10 -0
v -20 10 -1
v -15 10 -1
v -10 10 -1
v 3 10 -1
v 6 10 -1
v 7 10 -1
v 13 10 -1
v 19 10 -1
v -20 10 -2
v -15 10 -2
v -7 10 -2
v 3 10 -2
v 7 10 -2
v 13 10 -2
v -16 10 -3
v -12 10 -3
v -7 10 -3
v 3 10 -3
v 14 10 -3
v 20 10 -3
v -19 10 -4
v -16 10 -4
v -12 10 -4
v -11 10 -4
v -8 10 -4
v 2 10 -4
v 6 10 -4
v 14 10 -4
v 20 10 -4
v -19 10 -5
v -16 10 -5
v -11 10 -5
v -8 10 -5
v -4 10 -5
v -2 10 -5
v 2 10 -5
v 6 10 -5
v 7 10 -5
v 12 10 -5
v -8 10 -6
v -4 10 -6
v -2 10 -6
v 2 10 -6
v 7 10 -6
v 12 10 -6
v 18 10 -6
v -20 10 -7
v -9 10 -7
v -7 10 -7
v -3 10 -7
v 12 10 -7
v 18 10 -7
v -20 10 -8
v -9 10 -8
v -7 10 -8
v -3 10 -8
v 2 10 -8
v 6 10 -8
v 10 10 -8
v 18 10 -8
v 20 10 -8
v -3 10 -9
v 2 10 -9
v 6 10 -9
v 10 10 -9
v 15 10 -9
v 18 10 -9
v 20 10 -9
v -20 10 -10
v 10 10 -10
v 15 10 -10
v 20 10 -10

# faces
f 13/2/1 2/2/1 1/2/1
f 14/1/1 3/1/1 2/1/1
f 14/2/1 2/2/1 13/2/1
f 15/2/1 4/2/1 3/2/1
f 15/1/1 3/1/1 14/1/1
f 16/1/1 5/1/1 4/1/1
f 16/2/1 4/2/1 15/2/1
f 17/2/1 6/2/1 5/2/1
f 17/1/1 5/1/1 16/1/1
f 18/1/1 7/1/1 6/1/1
f 18/2/1 6/2/1 17/2/1
f 19/2/1 8/2/1 7/2/1
f 19/1/1 7/1/1 18/1/1
f 20/1/1 9/1/1 8/1/1
f 20/2/1 8/2/1 19/2/1
f 21/2/1 10/2/1 9/2/1
f 21/1/1 9/1/1 20/1/1
f 22/1/1 11/1/1 10/1/1
f 22/2/1 10/2/1 21/2/1
f 23/2/1 12/2/1 11/2/1
f 23/1/1 11/1/1 22/1/1
f 24/2/1 12/2/1 23/2/1
f 29/1/1 26/1/1 25/1/1
f 30/1/1 26/1/1 29/1/1
f 31/1/1 26/1/1 30/1/1
f 32/1/1 28/1/1 27/1/1
f 33/1/1 28/1/1 32/1/1
f 34/1/1 28/1/1 33/1/1
f 39/1/1 36/1/1 35/1/1
f 40/1/1 36/1/1 39/1/1
f 41/1/1 38/1/1 37/1/1
f 42/1/1 38/1/1 41/1/1
f 43/1/2 44/1/2 47/1/2
f 47/1/2 44/1/2 48/1/2
f 48/1/2 44/1/2 49/1/2
f 45/1/2 46/1/2 50/1/2
f 50/1/2 46/1/2 51/1/2
f 51/1/2 46/1/2 52/1/2
f 53/1/2 54/1/2 57/1/2
f 57/1/2 54/1/2 58/1/2
f 55/1/2 56/1/2 59/1/2
f 59/1/2 56/1/2 60/1/2
f 60/1/2 56/1/2 61/1/2
f 62/2/2 63/2/2 72/2/2
f 63/1/2 64/1/2 73/1/2
f 72/2/2 63/2/2 73/2/2
f 64/2/2 65/2/2 74/2/2
f 73/1/2 64/1/2 74/1/2
f 65/1/2 66/1/2 75/1/2
f 74/2/2 65/2/2 75/2/2
f 66/2/2 67/2/2 76/2/2
f 75/1/2 66/1/2 76/1/2
f 67/1/2 68/1/2 77/1/2
f 76/2/2 67/2/2 77/2/2
f 68/2/2 69/2/2 78/2/2
f 77/1/2 68/1/2 78/1/2
f 69/1/2 70/1/2 79/1/2
f 78/2/2 69/2/2 79/2/2
f 70/2/2 71/2/2 80/2/2
f 79/1/2 70/1/2 80/1/2
f 80/2/2 71/2/2 81/2/2
f 84/2/3 83/2/3 82/2/3
f 85/2/3 83/2/3 84/2/3
f 86/1/3 85/1/3 84/1/3
f 87/1/3 85/1/3 86/1/3
f 88/2/3 87/2/3 86/2/3
f 89/2/3 87/2/3 88/2/3
f 92/1/3 91/1/3 90/1/3
f 93/1/3 91/1/3 92/1/3
f 96/1/3 95/1/3 94/1/3
f 97/1/3 95/1/3 96/1/3
f 100/1/3 99/1/3 98/1/3
f 101/1/3 99/1/3 100/1/3
f 104/1/3 103/1/3 102/1/3
f 105/1/3 104/1/3 102/1/3
f 106/1/3 104/1/3 105/1/3
f 107/1/4 108/1/4 109/1/4
f 109/1/4 108/1/4 110/1/4
f 111/1/4 112/1/4 113/1/4
f 113/1/4 112/1/4 114/1/4
f 115/1/4 116/1/4 117/1/4
f 117/1/4 116/1/4 118/1/4
f 119/1/4 120/1/4 121/1/4
f 121/1/4 120/1/4 122/1/4
f 123/2/4 124/2/4 125/2/4
f 125/2/4 124/2/4 126/2/4
f 125/1/4 126/1/4 127/1/4
f 127/1/4 126/1/4 128/1/4
f 127/2/4 128/2/4 129/2/4
f 129/2/4 128/2/4 130/2/4
f 135/1/5 132/1/5 131/1/5
f 136/1/5 132/1/5 135/1/5
f 137/1/5 134/1/5 133/1/5
f 138/1/5 134/1/5 137/1/5
f 143/1/5 140/1/5 139/1/5
f 144/1/5 140/1/5 143/1/5
f 145/1/5 142/1/5 141/1/5
f 146/1/5 142/1/5 145/1/5
f 151/2/5 148/2/5 147/2/5
f 152/2/5 148/2/5 151/2/5
f 153/1/5 149/1/5 148/1/5
f 153/2/5 148/2/5 152/2/5
f 154/2/5 150/2/5 149/2/5
f 154/1/5 149/1/5 153/1/5
f 155/2/5 150/2/5 154/2/5
f 156/2/5 150/2/5 155/2/5
f 157/2/5 150/2/5 156/2/5
f 158/2/5 150/2/5 157/2/5
f 159/2/5 151/2/5 147/2/5
f 160/2/5 151/2/5 159/2/5
f 161/1/5 153/1/5 152/1/5
f 162/2/5 154/2/5 153/2/5
f 162/1/5 153/1/5 161/1/5
f 162/2/5 155/2/5 154/2/5
f 163/1/5 156/1/5 155/1/5
f 163/2/5 155/2/5 162/2/5
f 164/2/5 157/2/5 156/2/5
f 164/1/5 156/1/5 163/1/5
f 165/2/5 157/2/5 164/2/5
f 166/1/5 160/1/5 159/1/5
f 167/1/5 160/1/5 166/1/5
f 168/2/5 163/2/5 162/2/5
f 168/2/5 162/2/5 161/2/5
f 168/2/5 164/2/5 163/2/5
f 169/2/5 164/2/5 168/2/5
f 170/2/5 164/2/5 169/2/5
f 171/1/5 165/1/5 164/1/5
f 171/2/5 164/2/5 170/2/5
f 172/2/5 157/2/5 165/2/5
f 172/1/5 165/1/5 171/1/5
f 173/2/5 157/2/5 172/2/5
f 174/2/5 150/2/5 158/2/5
f 175/2/5 150/2/5 174/2/5
f 176/2/5 167/2/5 166/2/5
f 176/1/5 170/1/5 169/1/5
f 176/2/5 168/2/5 167/2/5
f 176/2/5 169/2/5 168/2/5
f 177/2/5 171/2/5 170/2/5
f 177/1/5 170/1/5 176/1/5
f 177/2/5 172/2/5 171/2/5
f 178/2/5 172/2/5 177/2/5
f 179/1/5 173/1/5 172/1/5
f 179/2/5 172/2/5 178/2/5
f 179/1/5 175/1/5 174/1/5
f 179/1/5 174/1/5 173/1/5
f 180/1/5 175/1/5 179/1/5
f 181/2/5 176/2/5 166/2/5
f 181/2/5 177/2/5 176/2/5
f 182/2/5 177/2/5 181/2/5
f 183/1/5 178/1/5 177/1/5
f 183/2/5 177/2/5 182/2/5
f 184/2/5 180/2/5 179/2/5
f 184/1/5 178/1/5 183/1/5
f 184/2/5 179/2/5 178/2/5
f 185/1/5 182/1/5 181/1/5
f 186/2/5 183/2/5 182/2/5
f 186/1/5 182/1/5 185/1/5
f 186/2/5 184/2/5 183/2/5
f 187/2/5 184/2/5 186/2/5
f 188/2/5 180/2/5 184/2/5
f 188/2/5 184/2/5 187/2/5
f 189/2/5 180/2/5 188/2/5
f 190/1/5 187/1/5 186/1/5
f 190/2/5 186/2/5 185/2/5
f 191/2/5 188/2/5 187/2/5
f 191/1/5 187/1/5 190/1/5
f 192/2/5 188/2/5 191/2/5
f 193/1/5 189/1/5 188/1/5
f 193/2/5 188/2/5 192/2/5
f 194/1/5 189/1/5 193/1/5
f 195/2/5 192/2/5 191/2/5
f 195/2/5 190/2/5 185/2/5
f 195/2/5 191/2/5 190/2/5
f 196/2/5 192/2/5 195/2/5
f 197/2/5 192/2/5 196/2/5
f 198/2/5 192/2/5 197/2/5
f 199/1/5 193/1/5 192/1/5
f 199/2/5 192/2/5 198/2/5
f 200/2/5 194/2/5 193/2/5
f 200/1/5 193/1/5 199/1/5
f 201/1/5 196/1/5 195/1/5
f 202/2/5 197/2/5 196/2/5
f 202/1/5 196/1/5 201/1/5
f 203/1/5 198/1/5 197/1/5
f 203/2/5 197/2/5 202/2/5
f 204/2/5 199/2/5 198/2/5
f 204/1/5 198/1/5 203/1/5
f 204/2/5 200/2/5 199/2/5
f 205/2/5 200/2/5 204/2/5
f 206/2/5 203/2/5 202/2/5
f 206/2/5 202/2/5 201/2/5
f 206/2/5 204/2/5 203/2/5
f 207/2/5 204/2/5 206/2/5
f 208/1/5 205/1/5 204/1/5
f 208/2/5 204/2/5 207/2/5
f 209/2/5 200/2/5 205/2/5
f 209/1/5 205/1/5 208/1/5
f 210/2/5 200/2/5 209/2/5
f 211/2/5 200/2/5 210/2/5
f 212/2/5 194/2/5 200/2/5
f 212/2/5 200/2/5 211/2/5
f 213/2/5 194/2/5 212/2/5
f 214/2/5 206/2/5 201/2/5
f 215/1/5 207/1/5 206/1/5
f 215/2/5 206/2/5 214/2/5
f 216/2/5 208/2/5 207/2/5
f 216/1/5 207/1/5 215/1/5
f 216/2/5 209/2/5 208/2/5
f 216/2/5 210/2/5 209/2/5
f 217/1/5 211/1/5 210/1/5
f 217/2/5 210/2/5 216/2/5
f 218/2/5 212/2/5 211/2/5
f 218/1/5 211/1/5 217/1/5
f 219/2/5 212/2/5 218/2/5
f 220/1/5 213/1/5 212/1/5
f 220/2/5 212/2/5 219/2/5
f 221/2/5 194/2/5 213/2/5
f 221/1/5 213/1/5 220/1/5
f 222/1/5 215/1/5 214/1/5
f 223/2/5 216/2/5 215/2/5
f 223/1/5 215/1/5 222/1/5
f 223/2/5 219/2/5 218/2/5
f 223/2/5 217/2/5 216/2/5
f 223/2/5 218/2/5 217/2/5
f 224/2/5 219/2/5 223/2/5
f 225/2/5 219/2/5 224/2/5
f 226/1/5 220/1/5 219/1/5
f 226/2/5 219/2/5 225/2/5
f 227/2/5 221/2/5 220/2/5
f 227/1/5 220/1/5 226/1/5
f 228/2/5 223/2/5 222/2/5
f 228/2/5 224/2/5 223/2/5
f 229/2/5 224/2/5 228/2/5
f 230/1/5 225/1/5 224/1/5
f 230/2/5 224/2/5 229/2/5
f 231/2/5 226/2/5 225/2/5
f 231/1/5 225/1/5 230/1/5
f 231/2/5 227/2/5 226/2/5
f 232/2/5 221/2/5 227/2/5
f 232/2/5 227/2/5 231/2/5
f 233/2/5 194/2/5 221/2/5
f 233/2/5 221/2/5 232/2/5
f 234/2/5 228/2/5 222/2/5
f 235/1/5 229/1/5 228/1/5
f 235/2/5 228/2/5 234/2/5
f 236/2/5 232/2/5 231/2/5
f 236/1/5 229/1/5 235/1/5
f 236/2/5 230/2/5 229/2/5
f 236/2/5 231/2/5 230/2/5
f 237/2/5 232/2/5 236/2/5
f 238/2/5 232/2/5 237/2/5
f 239/2/5 232/2/5 238/2/5
f 240/2/5 232/2/5 239/2/5
f 241/1/5 233/1/5 232/1/5
f 241/2/5 232/2/5 240/2/5
f 242/1/5 233/1/5 241/1/5
f 243/1/5 235/1/5 234/1/5
f 243/2/5 234/2/5 222/2/5
f 244/2/5 236/2/5 235/2/5
f 244/1/5 235/1/5 243/1/5
f 244/2/5 237/2/5 236/2/5
f 245/1/5 238/1/5 237/1/5
f 245/2/5 237/2/5 244/2/5
f 246/2/5 239/2/5 238/2/5
f 246/1/5 238/1/5 245/1/5
f 247/2/5 239/2/5 246/2/5
f 248/2/5 239/2/5 247/2/5
f 249/1/5 240/1/5 239/1/5
f 249/2/5 239/2/5 248/2/5
f 250/2/5 242/2/5 241/2/5
f 250/1/5 240/1/5 249/1/5
f 250/2/5 241/2/5 240/2/5
f 251/2/5 242/2/5 250/2/5
f 252/2/5 242/2/5 251/2/5
f 253/1/5 247/1/5 246/1/5
f 253/2/5 244/2/5 243/2/5
f 253/2/5 245/2/5 244/2/5
f 253/2/5 246/2/5 245/2/5
f 254/2/5 248/2/5 247/2/5
f 254/1/5 247/1/5 253/1/5
f 255/1/5 249/1/5 248/1/5
f 255/2/5 248/2/5 254/2/5
f 256/2/5 251/2/5 250/2/5
f 256/1/5 249/1/5 255/1/5
f 256/2/5 250/2/5 249/2/5
f 257/1/5 252/1/5 251/1/5
f 257/2/5 251/2/5 256/2/5
f 258/2/5 242/2/5 252/2/5
f 258/1/5 252/1/5 257/1/5
f 259/2/5 242/2/5 258/2/5
f 260/2/5 254/2/5 253/2/5
f 260/2/5 253/2/5 243/2/5
f 260/2/5 243/2/5 222/2/5
f 260/2/5 258/2/5 257/2/5
f 260/2/5 255/2/5 254/2/5
f 260/2/5 256/2/5 255/2/5
f 260/2/5 257/2/5 256/2/5
f 261/2/5 258/2/5 260/2/5
f 262/2/5 258/2/5 261/2/5
f 263/2/5 258/2/5 262/2/5
f 264/2/5 258/2/5 263/2/5
f 265/2/5 258/2/5 264/2/5
f 266/1/5 259/1/5 258/1/5
f 266/2/5 258/2/5 265/2/5
f 267/1/5 259/1/5 266/1/5
f 268/2/5 242/2/5 259/2/5
f 268/1/5 259/1/5 267/1/5
f 269/2/5 242/2/5 268/2/5
f 270/1/5 261/1/5 260/1/5
f 271/1/5 261/1/5 270/1/5
f 272/1/5 263/1/5 262/1/5
f 273/2/5 264/2/5 263/2/5
f 273/1/5 263/1/5 272/1/5
f 274/1/5 265/1/5 264/1/5
f 274/2/5 264/2/5 273/2/5
f 275/2/5 267/2/5 266/2/5
f 275/1/5 265/1/5 274/1/5
f 275/2/5 266/2/5 265/2/5
f 276/2/5 267/2/5 275/2/5
f 277/2/5 267/2/5 276/2/5
f 278/2/5 267/2/5 277/2/5
f 279/2/5 242/2/5 269/2/5
f 280/2/5 242/2/5 279/2/5
f 281/2/5 271/2/5 270/2/5
f 282/2/5 274/2/5 273/2/5
f 282/2/5 273/2/5 272/2/5
f 282/2/5 275/2/5 274/2/5
f 283/1/5 276/1/5 275/1/5
f 283/2/5 275/2/5 282/2/5
f 284/2/5 277/2/5 276/2/5
f 284/1/5 276/1/5 283/1/5
f 285/1/5 278/1/5 277/1/5
f 285/2/5 277/2/5 284/2/5
f 286/2/5 267/2/5 278/2/5
f 286/1/5 278/1/5 285/1/5
f 287/2/5 267/2/5 286/2/5
f 288/2/5 267/2/5 287/2/5
f 289/1/5 280/1/5 279/1/5
f 290/1/5 280/1/5 289/1/5
f 291/2/5 281/2/5 270/2/5
f 291/2/5 285/2/5 284/2/5
f 291/2/5 282/2/5 281/2/5
f 291/2/5 283/2/5 282/2/5
f 291/2/5 284/2/5 283/2/5
f 291/2/5 286/2/5 285/2/5
f 292/1/5 287/1/5 286/1/5
f 292/2/5 286/2/5 291/2/5
f 293/2/5 288/2/5 287/2/5
f 293/1/5 287/1/5 292/1/5
f 293/2/5 290/2/5 289/2/5
f 293/2/5 289/2/5 288/2/5
f 294/2/5 290/2/5 293/2/5
f 295/2/6 296/2/6 299/2/6
f 296/1/6 297/1/6 300/1/6
f 299/2/6 296/2/6 300/2/6
f 297/2/6 298/2/6 301/2/6
f 300/1/6 297/1/6 301/1/6
f 301/2/6 298/2/6 302/2/6
f 302/2/6 298/2/6 303/2/6
f 295/2/6 299/2/6 304/2/6
f 299/1/6 300/1/6 305/1/6
f 304/2/6 299/2/6 305/2/6
f 300/2/6 301/2/6 306/2/6
f 305/1/6 300/1/6 306/1/6
f 301/2/6 302/2/6 306/2/6
f 302/1/6 303/1/6 307/1/6
f 306/2/6 302/2/6 307/2/6
f 303/2/6 298/2/6 308/2/6
f 307/1/6 303/1/6 308/1/6
f 308/2/6 298/2/6 309/2/6
f 304/1/6 305/1/6 310/1/6
f 306/2/6 307/2/6 311/2/6
f 310/1/6 305/1/6 311/1/6
f 305/2/6 306/2/6 311/2/6
f 307/2/6 308/2/6 311/2/6
f 311/2/6 308/2/6 312/2/6
f 312/2/6 308/2/6 313/2/6
f 308/1/6 309/1/6 314/1/6
f 313/2/6 308/2/6 314/2/6
f 309/2/6 298/2/6 315/2/6
f 314/1/6 309/1/6 315/1/6
f 315/2/6 298/2/6 316/2/6
f 312/1/6 313/1/6 317/1/6
f 310/2/6 311/2/6 317/2/6
f 311/2/6 312/2/6 317/2/6
f 313/2/6 314/2/6 318/2/6
f 317/1/6 313/1/6 318/1/6
f 314/2/6 315/2/6 318/2/6
f 318/2/6 315/2/6 319/2/6
f 315/1/6 316/1/6 320/1/6
f 319/2/6 315/2/6 320/2/6
f 320/1/6 316/1/6 321/1/6
f 310/2/6 317/2/6 322/2/6
f 317/2/6 318/2/6 322/2/6
f 322/2/6 318/2/6 323/2/6
f 318/1/6 319/1/6 324/1/6
f 323/2/6 318/2/6 324/2/6
f 320/2/6 321/2/6 325/2/6
f 324/1/6 319/1/6 325/1/6
f 319/2/6 320/2/6 325/2/6
f 322/1/6 323/1/6 326/1/6
f 323/2/6 324/2/6 327/2/6
f 326/1/6 323/1/6 327/1/6
f 324/2/6 325/2/6 327/2/6
f 327/2/6 325/2/6 328/2/6
f 325/2/6 321/2/6 329/2/6
f 328/2/6 325/2/6 329/2/6
f 329/2/6 321/2/6 330/2/6
f 327/1/6 328/1/6 331/1/6
f 326/2/6 327/2/6 331/2/6
f 328/2/6 329/2/6 332/2/6
f 331/1/6 328/1/6 332/1/6
f 332/2/6 329/2/6 333/2/6
f 329/1/6 330/1/6 334/1/6
f 333/2/6 329/2/6 334/2/6
f 334/1/6 330/1/6 335/1/6
f 332/2/6 333/2/6 336/2/6
f 326/2/6 331/2/6 336/2/6
f 331/2/6 332/2/6 336/2/6
f 336/2/6 333/2/6 337/2/6
f 337/2/6 333/2/6 338/2/6
f 338/2/6 333/2/6 339/2/6
f 333/1/6 334/1/6 340/1/6
f 339/2/6 333/2/6 340/2/6
f 334/2/6 335/2/6 341/2/6
f 340/1/6 334/1/6 341/1/6
f 336/1/6 337/1/6 342/1/6
f 337/2/6 338/2/6 343/2/6
f 342/1/6 337/1/6 343/1/6
f 338/1/6 339/1/6 344/1/6
f 343/2/6 338/2/6 344/2/6
f 339/2/6 340/2/6 345/2/6
f 344/1/6 339/1/6 345/1/6
f 340/2/6 341/2/6 345/2/6
f 345/2/6 341/2/6 346/2/6
f 343/2/6 344/2/6 347/2/6
f 342/2/6 343/2/6 347/2/6
f 344/2/6 345/2/6 347/2/6
f 347/2/6 345/2/6 348/2/6
f 345/1/6 346/1/6 349/1/6
f 348/2/6 345/2/6 349/2/6
f 346/2/6 341/2/6 350/2/6
f 349/1/6 346/1/6 350/1/6
f 350/2/6 341/2/6 351/2/6
f 351/2/6 341/2/6 352/2/6
f 341/2/6 335/2/6 353/2/6
f 352/2/6 341/2/6 353/2/6
f 353/2/6 335/2/6 354/2/6
f 342/2/6 347/2/6 355/2/6
f 347/1/6 348/1/6 356/1/6
f 355/2/6 347/2/6 356/2/6
f 348/2/6 349/2/6 357/2/6
f 356/1/6 348/1/6 357/1/6
f 349/2/6 350/2/6 357/2/6
f 350/2/6 351/2/6 357/2/6
f 351/1/6 352/1/6 358/1/6
f 357/2/6 351/2/6 358/2/6
f 352/2/6 353/2/6 359/2/6
f 358/1/6 352/1/6 359/1/6
f 359/2/6 353/2/6 360/2/6
f 353/1/6 354/1/6 361/1/6
f 360/2/6 353/2/6 361/2/6
f 354/2/6 335/2/6 362/2/6
f 361/1/6 354/1/6 362/1/6
f 355/1/6 356/1/6 363/1/6
f 356/2/6 357/2/6 364/2/6
f 363/1/6 356/1/6 364/1/6
f 359/2/6 360/2/6 364/2/6
f 357/2/6 358/2/6 364/2/6
f 358/2/6 359/2/6 364/2/6
f 364/2/6 360/2/6 365/2/6
f 365/2/6 360/2/6 366/2/6
f 360/1/6 361/1/6 367/1/6
f 366/2/6 360/2/6 367/2/6
f 361/2/6 362/2/6 368/2/6
f 367/1/6 361/1/6 368/1/6
f 363/2/6 364/2/6 369/2/6
f 364/2/6 365/2/6 369/2/6
f 369/2/6 365/2/6 370/2/6
f 365/1/6 366/1/6 371/1/6
f 370/2/6 365/2/6 371/2/6
f 366/2/6 367/2/6 372/2/6
f 371/1/6 366/1/6 372/1/6
f 367/2/6 368/2/6 372/2/6
f 368/2/6 362/2/6 373/2/6
f 372/2/6 368/2/6 373/2/6
f 362/2/6 335/2/6 374/2/6
f 373/2/6 362/2/6 374/2/6
f 363/2/6 369/2/6 375/2/6
f 369/1/6 370/1/6 376/1/6
f 375/2/6 369/2/6 376/2/6
f 372/2/6 373/2/6 377/2/6
f 376/1/6 370/1/6 377/1/6
f 370/2/6 371/2/6 377/2/6
f 371/2/6 372/2/6 377/2/6
f 377/2/6 373/2/6 378/2/6
f 378/2/6 373/2/6 379/2/6
f 379/2/6 373/2/6 380/2/6
f 380/2/6 373/2/6 381/2/6
f 373/1/6 374/1/6 382/1/6
f 381/2/6 373/2/6 382/2/6
f 382/1/6 374/1/6 383/1/6
f 375/1/6 376/1/6 384/1/6
f 363/2/6 375/2/6 384/2/6
f 376/2/6 377/2/6 385/2/6
f 384/1/6 376/1/6 385/1/6
f 377/2/6 378/2/6 385/2/6
f 378/1/6 379/1/6 386/1/6
f 385/2/6 378/2/6 386/2/6
f 379/2/6 380/2/6 387/2/6
f 386/1/6 379/1/6 387/1/6
f 387/2/6 380/2/6 388/2/6
f 388/2/6 380/2/6 389/2/6
f 380/1/6 381/1/6 390/1/6
f 389/2/6 380/2/6 390/2/6
f 382/2/6 383/2/6 391/2/6
f 390/1/6 381/1/6 391/1/6
f 381/2/6 382/2/6 391/2/6
f 391/2/6 383/2/6 392/2/6
f 392/2/6 383/2/6 393/2/6
f 387/1/6 388/1/6 394/1/6
f 384/2/6 385/2/6 394/2/6
f 385/2/6 386/2/6 394/2/6
f 386/2/6 387/2/6 394/2/6
f 388/2/6 389/2/6 395/2/6
f 394/1/6 388/1/6 395/1/6
f 389/1/6 390/1/6 396/1/6
f 395/2/6 389/2/6 396/2/6
f 391/2/6 392/2/6 397/2/6
f 396/1/6 390/1/6 397/1/6
f 390/2/6 391/2/6 397/2/6
f 392/1/6 393/1/6 398/1/6
f 397/2/6 392/2/6 398/2/6
f 393/2/6 383/2/6 399/2/6
f 398/1/6 393/1/6 399/1/6
f 399/2/6 383/2/6 400/2/6
f 394/2/6 395/2/6 401/2/6
f 384/2/6 394/2/6 401/2/6
f 363/2/6 384/2/6 401/2/6
f 398/2/6 399/2/6 401/2/6
f 395/2/6 396/2/6 401/2/6
f 396/2/6 397/2/6 401/2/6
f 397/2/6 398/2/6 401/2/6
f 401/2/6 399/2/6 402/2/6
f 402/2/6 399/2/6 403/2/6
f 403/2/6 399/2/6 404/2/6
f 399/1/6 400/1/6 405/1/6
f 404/2/6 399/2/6 405/2/6
f 400/2/6 383/2/6 406/2/6
f 405/1/6 400/1/6 406/1/6
f 401/1/6 402/1/6 407/1/6
f 402/2/6 403/2/6 408/2/6
f 407/1/6 402/1/6 408/1/6
f 403/1/6 404/1/6 409/1/6
f 408/2/6 403/2/6 409/2/6
f 404/2/6 405/2/6 410/2/6
f 409/1/6 404/1/6 410/1/6
f 405/2/6 406/2/6 410/2/6
f 410/2/6 406/2/6 411/2/6
f 411/2/6 406/2/6 412/2/6
f 412/2/6 406/2/6 413/2/6
f 406/2/6 383/2/6 414/2/6
f 413/2/6 406/2/6 414/2/6
f 414/2/6 383/2/6 415/2/6
f 408/2/6 409/2/6 416/2/6
f 407/2/6 408/2/6 416/2/6
f 409/2/6 410/2/6 416/2/6
f 410/1/6 411/1/6 416/1/6
f 411/2/6 412/2/6 417/2/6
f 416/1/6 411/1/6 417/1/6
f 412/1/6 413/1/6 418/1/6
f 417/2/6 412/2/6 418/2/6
f 413/2/6 414/2/6 419/2/6
f 418/1/6 413/1/6 419/1/6
f 419/2/6 414/2/6 420/2/6
f 414/1/6 415/1/6 421/1/6
f 420/2/6 414/2/6 421/2/6
f 421/1/6 415/1/6 422/1/6
f 416/2/6 417/2/6 423/2/6
f 417/2/6 418/2/6 423/2/6
f 407/2/6 416/2/6 423/2/6
f 418/2/6 419/2/6 423/2/6
f 419/1/6 420/1/6 424/1/6
f 423/2/6 419/2/6 424/2/6
f 421/2/6 422/2/6 425/2/6
f 424/1/6 420/1/6 425/1/6
f 420/2/6 421/2/6 425/2/6
f 425/2/6 422/2/6 426/2/6
