# MagicaVoxel @ Ephtracy

# group
g obj_sink

# material
mtllib obj_sink.mtl
usemtl palette

# normals
vn -1 0 0
vn 1 0 0
vn 0 0 1
vn 0 0 -1
vn 0 -1 0
vn 0 1 0

# texcoords
vt 0.0566406 0.5
vt 0.330078 0.5
vt 0.333984 0.5
vt 0.771484 0.5
vt 0.931641 0.5
vt 0.966797 0.5
vt 0.970703 0.5

# verts
v -10 10 9
v -10 10 -10
v -10 11 9
v -10 11 -10
v -9 0 8
v -9 0 -10
v -9 10 8
v -9 10 -10
v -7 1 8
v -7 1 7
v -7 9 8
v -7 9 7
v -4 12 -7
v -4 12 -8
v -4 13 -6
v -4 13 -7
v -4 13 -8
v -4 13 -9
v -4 14 -6
v -4 14 -7
v -4 14 -8
v -4 14 -9
v -4 15 -7
v -4 15 -8
v -2 11 -6
v -2 11 -9
v -2 13 -7
v -2 13 -8
v -2 14 -6
v -2 14 -7
v -2 14 -8
v -2 14 -9
v -1 14 -7
v -1 14 -8
v -1 16 -2
v -1 16 -3
v -1 17 -2
v -1 17 -3
v -1 17 -7
v -1 17 -8
v -1 18 -3
v -1 18 -7
v 3 12 -7
v 3 12 -8
v 3 13 -6
v 3 13 -7
v 3 13 -8
v 3 13 -9
v 3 14 -6
v 3 14 -7
v 3 14 -8
v 3 14 -9
v 3 15 -7
v 3 15 -8
v 5 3 10
v 5 3 8
v 5 4 9
v 5 4 8
v 5 6 9
v 5 6 8
v 5 7 10
v 5 7 8
v 7 8 6
v 7 8 -5
v 7 10 6
v 7 10 -5
v 7 11 6
v 7 11 -5
v 8 1 8
v 8 1 7
v 8 9 8
v 8 9 7
v -8 1 8
v -8 1 7
v -8 9 8
v -8 9 7
v -7 8 6
v -7 8 -5
v -7 10 6
v -7 10 -5
v -7 11 6
v -7 11 -5
v -3 12 -7
v -3 12 -8
v -3 13 -6
v -3 13 -7
v -3 13 -8
v -3 13 -9
v -3 14 -6
v -3 14 -7
v -3 14 -8
v -3 14 -9
v -3 15 -7
v -3 15 -8
v 1 14 -7
v 1 14 -8
v 1 16 -2
v 1 16 -3
v 1 17 -2
v 1 17 -3
v 1 17 -7
v 1 17 -8
v 1 18 -3
v 1 18 -7
v 2 11 -6
v 2 11 -9
v 2 13 -7
v 2 13 -8
v 2 14 -6
v 2 14 -7
v 2 14 -8
v 2 14 -9
v 4 12 -7
v 4 12 -8
v 4 13 -6
v 4 13 -7
v 4 13 -8
v 4 13 -9
v 4 14 -6
v 4 14 -7
v 4 14 -8
v 4 14 -9
v 4 15 -7
v 4 15 -8
v 6 3 10
v 6 3 8
v 6 4 9
v 6 4 8
v 6 6 9
v 6 6 8
v 6 7 10
v 6 7 8
v 7 1 8
v 7 1 7
v 7 9 8
v 7 9 7
v 9 0 8
v 9 0 -10
v 9 10 8
v 9 10 -10
v 10 10 9
v 10 10 -10
v 10 11 9
v 10 11 -10
v 5 3 10
v 5 7 10
v 6 3 10
v 6 7 10
v -10 10 9
v -10 11 9
v 10 10 9
v 10 11 9
v -9 0 8
v -9 10 8
v -8 1 8
v -8 9 8
v -7 1 8
v -7 9 8
v -6 2 8
v -6 8 8
v 5 3 8
v 5 4 8
v 5 6 8
v 5 7 8
v 6 2 8
v 6 3 8
v 6 4 8
v 6 6 8
v 6 7 8
v 6 8 8
v 7 1 8
v 7 9 8
v 8 1 8
v 8 9 8
v 9 0 8
v 9 10 8
v -8 1 7
v -8 9 7
v -7 1 7
v -7 9 7
v 7 1 7
v 7 9 7
v 8 1 7
v 8 9 7
v -1 16 -2
v -1 17 -2
v 1 16 -2
v 1 17 -2
v -1 17 -3
v -1 18 -3
v 1 17 -3
v 1 18 -3
v -7 8 -5
v -7 10 -5
v -7 11 -5
v 7 8 -5
v 7 10 -5
v 7 11 -5
v -4 13 -6
v -4 14 -6
v -3 13 -6
v -3 14 -6
v -2 11 -6
v -2 14 -6
v -1 11 -6
v -1 14 -6
v 1 11 -6
v 1 14 -6
v 2 11 -6
v 2 14 -6
v 3 13 -6
v 3 14 -6
v 4 13 -6
v 4 14 -6
v -4 12 -7
v -4 13 -7
v -4 14 -7
v -4 15 -7
v -3 12 -7
v -3 13 -7
v -3 14 -7
v -3 15 -7
v -2 13 -7
v -2 14 -7
v -1 14 -7
v -1 17 -7
v 1 14 -7
v 1 17 -7
v 2 13 -7
v 2 14 -7
v 3 12 -7
v 3 13 -7
v 3 14 -7
v 3 15 -7
v 4 12 -7
v 4 13 -7
v 4 14 -7
v 4 15 -7
v 5 4 9
v 5 6 9
v 6 4 9
v 6 6 9
v -7 8 6
v -7 10 6
v -7 11 6
v 7 8 6
v 7 10 6
v 7 11 6
v -1 16 -3
v -1 17 -3
v 1 16 -3
v 1 17 -3
v -1 17 -7
v -1 18 -7
v 1 17 -7
v 1 18 -7
v -4 12 -8
v -4 13 -8
v -4 14 -8
v -4 15 -8
v -3 12 -8
v -3 13 -8
v -3 14 -8
v -3 15 -8
v -2 13 -8
v -2 14 -8
v -1 14 -8
v -1 17 -8
v 1 14 -8
v 1 17 -8
v 2 13 -8
v 2 14 -8
v 3 12 -8
v 3 13 -8
v 3 14 -8
v 3 15 -8
v 4 12 -8
v 4 13 -8
v 4 14 -8
v 4 15 -8
v -4 13 -9
v -4 14 -9
v -3 13 -9
v -3 14 -9
v -2 11 -9
v -2 14 -9
v -1 11 -9
v -1 14 -9
v 1 11 -9
v 1 14 -9
v 2 11 -9
v 2 14 -9
v 3 13 -9
v 3 14 -9
v 4 13 -9
v 4 14 -9
v -10 10 -10
v -10 11 -10
v -9 0 -10
v -9 10 -10
v 9 0 -10
v 9 10 -10
v 10 10 -10
v 10 11 -10
v -9 0 8
v 9 0 8
v -9 0 -10
v 9 0 -10
v 5 3 10
v 6 3 10
v 5 3 8
v 6 3 8
v 5 6 9
v 6 6 9
v 5 6 8
v 6 6 8
v -8 9 8
v -7 9 8
v 7 9 8
v 8 9 8
v -8 9 7
v -7 9 7
v 7 9 7
v 8 9 7
v -10 10 9
v 10 10 9
v -9 10 8
v 9 10 8
v -10 10 -10
v -9 10 -10
v 9 10 -10
v 10 10 -10
v -4 12 -7
v -3 12 -7
v 3 12 -7
v 4 12 -7
v -4 12 -8
v -3 12 -8
v 3 12 -8
v 4 12 -8
v -4 13 -6
v -3 13 -6
v 3 13 -6
v 4 13 -6
v -4 13 -7
v -3 13 -7
v -2 13 -7
v 2 13 -7
v 3 13 -7
v 4 13 -7
v -4 13 -8
v -3 13 -8
v -2 13 -8
v 2 13 -8
v 3 13 -8
v 4 13 -8
v -4 13 -9
v -3 13 -9
v 3 13 -9
v 4 13 -9
v -1 16 -2
v 1 16 -2
v -1 16 -3
v 1 16 -3
v -1 17 -3
v 1 17 -3
v -1 17 -7
v 1 17 -7
v -8 1 8
v -7 1 8
v 7 1 8
v 8 1 8
v -8 1 7
v -7 1 7
v 7 1 7
v 8 1 7
v 5 4 9
v 6 4 9
v 5 4 8
v 6 4 8
v 5 7 10
v 6 7 10
v 5 7 8
v 6 7 8
v -7 8 6
v 7 8 6
v -7 8 -5
v 7 8 -5
v -10 11 9
v 10 11 9
v -7 11 6
v 7 11 6
v -7 11 -5
v 7 11 -5
v -2 11 -6
v -1 11 -6
v 1 11 -6
v 2 11 -6
v -2 11 -9
v -1 11 -9
v 1 11 -9
v 2 11 -9
v -10 11 -10
v 10 11 -10
v -4 14 -6
v -3 14 -6
v -2 14 -6
v -1 14 -6
v 1 14 -6
v 2 14 -6
v 3 14 -6
v 4 14 -6
v -4 14 -7
v -3 14 -7
v -2 14 -7
v -1 14 -7
v 1 14 -7
v 2 14 -7
v 3 14 -7
v 4 14 -7
v -4 14 -8
v -3 14 -8
v -2 14 -8
v -1 14 -8
v 1 14 -8
v 2 14 -8
v 3 14 -8
v 4 14 -8
v -4 14 -9
v -3 14 -9
v -2 14 -9
v -1 14 -9
v 1 14 -9
v 2 14 -9
v 3 14 -9
v 4 14 -9
v -4 15 -7
v -3 15 -7
v 3 15 -7
v 4 15 -7
v -4 15 -8
v -3 15 -8
v 3 15 -8
v 4 15 -8
v -1 17 -2
v 1 17 -2
v -1 17 -3
v 1 17 -3
v -1 17 -7
v 1 17 -7
v -1 17 -8
v 1 17 -8
v -1 18 -3
v 1 18 -3
v -1 18 -7
v 1 18 -7

# faces
f 3/6/1 2/6/1 1/6/1
f 4/6/1 2/6/1 3/6/1
f 7/2/1 6/2/1 5/2/1
f 8/2/1 6/2/1 7/2/1
f 11/3/1 10/3/1 9/3/1
f 12/3/1 10/3/1 11/3/1
f 16/6/1 14/6/1 13/6/1
f 17/6/1 14/6/1 16/6/1
f 19/6/1 16/6/1 15/6/1
f 20/4/1 17/4/1 16/4/1
f 20/6/1 16/6/1 19/6/1
f 21/6/1 18/6/1 17/6/1
f 21/4/1 17/4/1 20/4/1
f 22/6/1 18/6/1 21/6/1
f 23/6/1 21/6/1 20/6/1
f 24/6/1 21/6/1 23/6/1
f 27/6/1 26/6/1 25/6/1
f 28/6/1 26/6/1 27/6/1
f 29/6/1 27/6/1 25/6/1
f 30/6/1 27/6/1 29/6/1
f 31/6/1 26/6/1 28/6/1
f 32/6/1 26/6/1 31/6/1
f 37/6/1 36/6/1 35/6/1
f 38/6/1 36/6/1 37/6/1
f 39/6/1 34/6/1 33/6/1
f 40/6/1 34/6/1 39/6/1
f 41/6/1 39/6/1 38/6/1
f 42/6/1 39/6/1 41/6/1
f 46/6/1 44/6/1 43/6/1
f 47/6/1 44/6/1 46/6/1
f 49/6/1 46/6/1 45/6/1
f 50/6/1 46/6/1 49/6/1
f 51/6/1 48/6/1 47/6/1
f 52/6/1 48/6/1 51/6/1
f 53/6/1 51/6/1 50/6/1
f 54/6/1 51/6/1 53/6/1
f 57/2/1 56/2/1 55/2/1
f 58/2/1 56/2/1 57/2/1
f 59/2/1 57/2/1 55/2/1
f 61/2/1 59/2/1 55/2/1
f 61/2/1 60/2/1 59/2/1
f 62/2/1 60/2/1 61/2/1
f 65/5/1 64/5/1 63/5/1
f 66/5/1 64/5/1 65/5/1
f 67/6/1 66/6/1 65/6/1
f 68/6/1 66/6/1 67/6/1
f 71/2/1 70/2/1 69/2/1
f 72/2/1 70/2/1 71/2/1
f 73/2/2 74/2/2 75/2/2
f 75/2/2 74/2/2 76/2/2
f 77/5/2 78/5/2 79/5/2
f 79/5/2 78/5/2 80/5/2
f 79/6/2 80/6/2 81/6/2
f 81/6/2 80/6/2 82/6/2
f 83/6/2 84/6/2 86/6/2
f 86/6/2 84/6/2 87/6/2
f 85/6/2 86/6/2 89/6/2
f 89/6/2 86/6/2 90/6/2
f 87/6/2 88/6/2 91/6/2
f 91/6/2 88/6/2 92/6/2
f 90/6/2 91/6/2 93/6/2
f 93/6/2 91/6/2 94/6/2
f 97/6/2 98/6/2 99/6/2
f 99/6/2 98/6/2 100/6/2
f 95/6/2 96/6/2 101/6/2
f 101/6/2 96/6/2 102/6/2
f 100/6/2 101/6/2 103/6/2
f 103/6/2 101/6/2 104/6/2
f 105/6/2 106/6/2 107/6/2
f 107/6/2 106/6/2 108/6/2
f 105/6/2 107/6/2 109/6/2
f 109/6/2 107/6/2 110/6/2
f 108/6/2 106/6/2 111/6/2
f 111/6/2 106/6/2 112/6/2
f 113/6/2 114/6/2 116/6/2
f 116/6/2 114/6/2 117/6/2
f 115/6/2 116/6/2 119/6/2
f 116/1/2 117/1/2 120/1/2
f 119/6/2 116/6/2 120/6/2
f 117/6/2 118/6/2 121/6/2
f 120/1/2 117/1/2 121/1/2
f 121/6/2 118/6/2 122/6/2
f 120/6/2 121/6/2 123/6/2
f 123/6/2 121/6/2 124/6/2
f 125/2/2 126/2/2 127/2/2
f 127/2/2 126/2/2 128/2/2
f 125/2/2 127/2/2 129/2/2
f 125/2/2 129/2/2 131/2/2
f 129/2/2 130/2/2 131/2/2
f 131/2/2 130/2/2 132/2/2
f 133/3/2 134/3/2 135/3/2
f 135/3/2 134/3/2 136/3/2
f 137/2/2 138/2/2 139/2/2
f 139/2/2 138/2/2 140/2/2
f 141/6/2 142/6/2 143/6/2
f 143/6/2 142/6/2 144/6/2
f 147/2/3 146/2/3 145/2/3
f 148/2/3 146/2/3 147/2/3
f 151/6/3 150/6/3 149/6/3
f 152/6/3 150/6/3 151/6/3
f 155/2/3 154/2/3 153/2/3
f 156/2/3 154/2/3 155/2/3
f 157/2/3 155/2/3 153/2/3
f 158/2/3 154/2/3 156/2/3
f 159/3/3 158/3/3 157/3/3
f 160/3/3 158/3/3 159/3/3
f 161/2/3 160/2/3 159/2/3
f 162/2/3 160/2/3 161/2/3
f 163/2/3 160/2/3 162/2/3
f 164/2/3 160/2/3 163/2/3
f 165/3/3 159/3/3 157/3/3
f 165/2/3 161/2/3 159/2/3
f 166/2/3 161/2/3 165/2/3
f 167/2/3 163/2/3 162/2/3
f 168/2/3 163/2/3 167/2/3
f 169/2/3 160/2/3 164/2/3
f 170/3/3 158/3/3 160/3/3
f 170/2/3 160/2/3 169/2/3
f 171/2/3 157/2/3 153/2/3
f 171/3/3 168/3/3 167/3/3
f 171/3/3 170/3/3 169/3/3
f 171/3/3 169/3/3 168/3/3
f 171/3/3 167/3/3 166/3/3
f 171/3/3 166/3/3 165/3/3
f 171/3/3 165/3/3 157/3/3
f 172/3/3 158/3/3 170/3/3
f 172/3/3 170/3/3 171/3/3
f 172/2/3 154/2/3 158/2/3
f 173/2/3 171/2/3 153/2/3
f 174/2/3 154/2/3 172/2/3
f 175/2/3 173/2/3 153/2/3
f 175/2/3 174/2/3 173/2/3
f 176/2/3 154/2/3 174/2/3
f 176/2/3 174/2/3 175/2/3
f 179/2/3 178/2/3 177/2/3
f 180/2/3 178/2/3 179/2/3
f 183/2/3 182/2/3 181/2/3
f 184/2/3 182/2/3 183/2/3
f 187/6/3 186/6/3 185/6/3
f 188/6/3 186/6/3 187/6/3
f 191/6/3 190/6/3 189/6/3
f 192/6/3 190/6/3 191/6/3
f 196/5/3 194/5/3 193/5/3
f 197/6/3 195/6/3 194/6/3
f 197/5/3 194/5/3 196/5/3
f 198/6/3 195/6/3 197/6/3
f 201/6/3 200/6/3 199/6/3
f 202/6/3 200/6/3 201/6/3
f 205/6/3 204/6/3 203/6/3
f 206/6/3 204/6/3 205/6/3
f 207/7/3 206/7/3 205/7/3
f 208/7/3 206/7/3 207/7/3
f 209/6/3 208/6/3 207/6/3
f 210/6/3 208/6/3 209/6/3
f 213/6/3 212/6/3 211/6/3
f 214/6/3 212/6/3 213/6/3
f 219/6/3 216/6/3 215/6/3
f 220/6/3 216/6/3 219/6/3
f 221/6/3 218/6/3 217/6/3
f 222/6/3 218/6/3 221/6/3
f 223/6/3 221/6/3 220/6/3
f 224/6/3 221/6/3 223/6/3
f 227/6/3 226/6/3 225/6/3
f 228/6/3 226/6/3 227/6/3
f 232/6/3 230/6/3 229/6/3
f 233/6/3 230/6/3 232/6/3
f 235/6/3 232/6/3 231/6/3
f 236/6/3 232/6/3 235/6/3
f 237/6/3 234/6/3 233/6/3
f 238/6/3 234/6/3 237/6/3
f 239/2/4 240/2/4 241/2/4
f 241/2/4 240/2/4 242/2/4
f 243/5/4 244/5/4 246/5/4
f 244/6/4 245/6/4 247/6/4
f 246/5/4 244/5/4 247/5/4
f 247/6/4 245/6/4 248/6/4
f 249/6/4 250/6/4 251/6/4
f 251/6/4 250/6/4 252/6/4
f 253/6/4 254/6/4 255/6/4
f 255/6/4 254/6/4 256/6/4
f 257/6/4 258/6/4 261/6/4
f 261/6/4 258/6/4 262/6/4
f 259/6/4 260/6/4 263/6/4
f 263/6/4 260/6/4 264/6/4
f 262/6/4 263/6/4 265/6/4
f 265/6/4 263/6/4 266/6/4
f 267/6/4 268/6/4 269/6/4
f 269/6/4 268/6/4 270/6/4
f 271/6/4 272/6/4 274/6/4
f 274/6/4 272/6/4 275/6/4
f 273/6/4 274/6/4 277/6/4
f 277/6/4 274/6/4 278/6/4
f 275/6/4 276/6/4 279/6/4
f 279/6/4 276/6/4 280/6/4
f 281/6/4 282/6/4 283/6/4
f 283/6/4 282/6/4 284/6/4
f 285/6/4 286/6/4 287/6/4
f 287/6/4 286/6/4 288/6/4
f 287/7/4 288/7/4 289/7/4
f 289/7/4 288/7/4 290/7/4
f 289/6/4 290/6/4 291/6/4
f 291/6/4 290/6/4 292/6/4
f 293/6/4 294/6/4 295/6/4
f 295/6/4 294/6/4 296/6/4
f 297/6/4 298/6/4 300/6/4
f 299/2/4 300/2/4 301/2/4
f 300/6/4 298/6/4 302/6/4
f 301/2/4 300/2/4 302/2/4
f 302/6/4 298/6/4 303/6/4
f 303/6/4 298/6/4 304/6/4
f 307/2/5 306/2/5 305/2/5
f 308/2/5 306/2/5 307/2/5
f 311/2/5 310/2/5 309/2/5
f 312/2/5 310/2/5 311/2/5
f 315/2/5 314/2/5 313/2/5
f 316/2/5 314/2/5 315/2/5
f 321/2/5 318/2/5 317/2/5
f 322/2/5 318/2/5 321/2/5
f 323/2/5 320/2/5 319/2/5
f 324/2/5 320/2/5 323/2/5
f 327/6/5 326/6/5 325/6/5
f 328/6/5 326/6/5 327/6/5
f 329/6/5 327/6/5 325/6/5
f 330/6/5 327/6/5 329/6/5
f 331/6/5 326/6/5 328/6/5
f 332/6/5 326/6/5 331/6/5
f 337/6/5 334/6/5 333/6/5
f 338/6/5 334/6/5 337/6/5
f 339/6/5 336/6/5 335/6/5
f 340/6/5 336/6/5 339/6/5
f 345/6/5 342/6/5 341/6/5
f 346/6/5 342/6/5 345/6/5
f 349/6/5 344/6/5 343/6/5
f 350/6/5 344/6/5 349/6/5
f 352/6/5 347/6/5 346/6/5
f 353/6/5 347/6/5 352/6/5
f 354/6/5 349/6/5 348/6/5
f 355/6/5 349/6/5 354/6/5
f 357/6/5 352/6/5 351/6/5
f 358/6/5 352/6/5 357/6/5
f 359/6/5 356/6/5 355/6/5
f 360/6/5 356/6/5 359/6/5
f 363/6/5 362/6/5 361/6/5
f 364/6/5 362/6/5 363/6/5
f 367/6/5 366/6/5 365/6/5
f 368/6/5 366/6/5 367/6/5
f 369/2/6 370/2/6 373/2/6
f 373/2/6 370/2/6 374/2/6
f 371/2/6 372/2/6 375/2/6
f 375/2/6 372/2/6 376/2/6
f 377/2/6 378/2/6 379/2/6
f 379/2/6 378/2/6 380/2/6
f 381/2/6 382/2/6 383/2/6
f 383/2/6 382/2/6 384/2/6
f 385/5/6 386/5/6 387/5/6
f 387/5/6 386/5/6 388/5/6
f 389/6/6 390/6/6 391/6/6
f 391/6/6 390/6/6 392/6/6
f 389/6/6 391/6/6 393/6/6
f 392/6/6 390/6/6 394/6/6
f 393/6/6 394/6/6 395/6/6
f 395/6/6 394/6/6 396/6/6
f 396/6/6 394/6/6 397/6/6
f 397/6/6 394/6/6 398/6/6
f 393/6/6 395/6/6 399/6/6
f 398/6/6 394/6/6 402/6/6
f 389/6/6 393/6/6 403/6/6
f 401/6/6 402/6/6 403/6/6
f 400/6/6 401/6/6 403/6/6
f 393/6/6 399/6/6 403/6/6
f 399/6/6 400/6/6 403/6/6
f 402/6/6 394/6/6 404/6/6
f 403/6/6 402/6/6 404/6/6
f 394/6/6 390/6/6 404/6/6
f 405/6/6 406/6/6 413/6/6
f 413/6/6 406/6/6 414/6/6
f 407/6/6 408/6/6 415/6/6
f 408/7/6 409/7/6 416/7/6
f 415/6/6 408/6/6 416/6/6
f 409/6/6 410/6/6 417/6/6
f 416/7/6 409/7/6 417/7/6
f 417/6/6 410/6/6 418/6/6
f 411/6/6 412/6/6 419/6/6
f 419/6/6 412/6/6 420/6/6
f 414/6/6 415/6/6 422/6/6
f 415/6/6 416/6/6 422/6/6
f 422/6/6 416/6/6 423/6/6
f 423/6/6 416/6/6 424/6/6
f 417/6/6 418/6/6 425/6/6
f 418/6/6 419/6/6 425/6/6
f 425/6/6 419/6/6 426/6/6
f 426/6/6 419/6/6 427/6/6
f 421/6/6 422/6/6 429/6/6
f 429/6/6 422/6/6 430/6/6
f 423/6/6 424/6/6 431/6/6
f 424/7/6 425/7/6 432/7/6
f 431/6/6 424/6/6 432/6/6
f 425/6/6 426/6/6 433/6/6
f 432/7/6 425/7/6 433/7/6
f 433/6/6 426/6/6 434/6/6
f 427/6/6 428/6/6 435/6/6
f 435/6/6 428/6/6 436/6/6
f 437/6/6 438/6/6 441/6/6
f 441/6/6 438/6/6 442/6/6
f 439/6/6 440/6/6 443/6/6
f 443/6/6 440/6/6 444/6/6
f 445/6/6 446/6/6 447/6/6
f 447/6/6 446/6/6 448/6/6
f 449/6/6 450/6/6 451/6/6
f 451/6/6 450/6/6 452/6/6
f 453/6/6 454/6/6 455/6/6
f 455/6/6 454/6/6 456/6/6
