# MagicaVoxel @ Ephtracy

# group
g obj_toy_doll

# material
mtllib obj_toy_doll.mtl
usemtl palette

# normals
vn -1 0 0
vn 1 0 0
vn 0 0 1
vn 0 0 -1
vn 0 -1 0
vn 0 1 0

# texcoords
vt 0.00585938 0.5
vt 0.0332031 0.5
vt 0.216797 0.5
vt 0.611328 0.5

# verts
v -5 1 2
v -5 1 1
v -5 2 2
v -5 2 1
v -3 0 3
v -3 0 -0
v -3 1 2
v -3 1 1
v -3 2 2
v -3 2 1
v -3 3 3
v -3 3 -0
v -1 0 3
v -1 0 -0
v -1 1 2
v -1 1 1
v -1 2 3
v -1 2 2
v -1 2 1
v -1 2 -0
v -2 0 3
v -2 0 -0
v -2 1 2
v -2 1 1
v -2 2 2
v -2 2 1
v -2 3 3
v -2 3 -0
v 3 0 3
v 3 0 2
v 3 0 1
v 3 0 -0
v 3 2 3
v 3 2 2
v 3 2 1
v 3 2 -0
v 4 0 2
v 4 0 1
v 4 2 2
v 4 2 1
v -3 0 3
v -3 3 3
v -2 0 3
v -2 3 3
v -1 0 3
v -1 2 3
v 3 0 3
v 3 2 3
v -5 1 2
v -5 2 2
v -3 1 2
v -3 2 2
v -2 1 2
v -2 2 2
v -1 1 2
v -1 2 2
v 3 0 2
v 3 2 2
v 4 0 2
v 4 2 2
v -5 1 1
v -5 2 1
v -3 1 1
v -3 2 1
v -2 1 1
v -2 2 1
v -1 1 1
v -1 2 1
v 3 0 1
v 3 2 1
v 4 0 1
v 4 2 1
v -3 0 -0
v -3 3 -0
v -2 0 -0
v -2 3 -0
v -1 0 -0
v -1 2 -0
v 3 0 -0
v 3 2 -0
v -3 0 3
v -2 0 3
v -1 0 3
v 3 0 3
v 3 0 2
v 4 0 2
v 3 0 1
v 4 0 1
v -3 0 -0
v -2 0 -0
v -1 0 -0
v 3 0 -0
v -5 1 2
v -3 1 2
v -2 1 2
v -1 1 2
v -5 1 1
v -3 1 1
v -2 1 1
v -1 1 1
v -1 2 3
v 3 2 3
v -5 2 2
v -3 2 2
v -2 2 2
v -1 2 2
v 1 2 2
v 3 2 2
v 4 2 2
v -5 2 1
v -3 2 1
v -2 2 1
v -1 2 1
v 1 2 1
v 3 2 1
v 4 2 1
v -1 2 -0
v 3 2 -0
v -3 3 3
v -2 3 3
v -3 3 -0
v -2 3 -0

# faces
f 3/4/1 2/4/1 1/4/1
f 4/4/1 2/4/1 3/4/1
f 7/3/1 6/3/1 5/3/1
f 8/3/1 6/3/1 7/3/1
f 9/3/1 7/3/1 5/3/1
f 10/3/1 6/3/1 8/3/1
f 11/3/1 9/3/1 5/3/1
f 11/3/1 10/3/1 9/3/1
f 12/3/1 6/3/1 10/3/1
f 12/3/1 10/3/1 11/3/1
f 15/1/1 14/1/1 13/1/1
f 16/1/1 14/1/1 15/1/1
f 17/1/1 15/1/1 13/1/1
f 18/1/1 15/1/1 17/1/1
f 19/1/1 14/1/1 16/1/1
f 20/1/1 14/1/1 19/1/1
f 21/3/2 22/3/2 23/3/2
f 23/3/2 22/3/2 24/3/2
f 21/3/2 23/3/2 25/3/2
f 24/3/2 22/3/2 26/3/2
f 21/3/2 25/3/2 27/3/2
f 25/3/2 26/3/2 27/3/2
f 26/3/2 22/3/2 28/3/2
f 27/3/2 26/3/2 28/3/2
f 29/1/2 30/1/2 33/1/2
f 33/1/2 30/1/2 34/1/2
f 31/1/2 32/1/2 35/1/2
f 35/1/2 32/1/2 36/1/2
f 37/1/2 38/1/2 39/1/2
f 39/1/2 38/1/2 40/1/2
f 43/3/3 42/3/3 41/3/3
f 44/3/3 42/3/3 43/3/3
f 47/1/3 46/1/3 45/1/3
f 48/1/3 46/1/3 47/1/3
f 51/4/3 50/4/3 49/4/3
f 52/4/3 50/4/3 51/4/3
f 55/3/3 54/3/3 53/3/3
f 56/3/3 54/3/3 55/3/3
f 59/1/3 58/1/3 57/1/3
f 60/1/3 58/1/3 59/1/3
f 61/4/4 62/4/4 63/4/4
f 63/4/4 62/4/4 64/4/4
f 65/3/4 66/3/4 67/3/4
f 67/3/4 66/3/4 68/3/4
f 69/1/4 70/1/4 71/1/4
f 71/1/4 70/1/4 72/1/4
f 73/3/4 74/3/4 75/3/4
f 75/3/4 74/3/4 76/3/4
f 77/1/4 78/1/4 79/1/4
f 79/1/4 78/1/4 80/1/4
f 85/1/5 84/1/5 83/1/5
f 87/1/5 85/1/5 83/1/5
f 87/1/5 86/1/5 85/1/5
f 88/1/5 86/1/5 87/1/5
f 89/3/5 82/3/5 81/3/5
f 90/3/5 82/3/5 89/3/5
f 91/1/5 87/1/5 83/1/5
f 92/1/5 87/1/5 91/1/5
f 97/4/5 94/4/5 93/4/5
f 98/4/5 94/4/5 97/4/5
f 99/3/5 96/3/5 95/3/5
f 100/3/5 96/3/5 99/3/5
f 101/1/6 102/1/6 106/1/6
f 106/1/6 102/1/6 107/1/6
f 107/1/6 102/1/6 108/1/6
f 103/4/6 104/4/6 110/4/6
f 110/4/6 104/4/6 111/4/6
f 105/3/6 106/3/6 112/3/6
f 106/3/6 107/3/6 112/3/6
f 112/3/6 107/3/6 113/3/6
f 107/2/6 108/2/6 114/2/6
f 113/3/6 107/3/6 114/3/6
f 108/1/6 109/1/6 115/1/6
f 114/2/6 108/2/6 115/2/6
f 115/1/6 109/1/6 116/1/6
f 113/1/6 114/1/6 117/1/6
f 114/1/6 115/1/6 117/1/6
f 117/1/6 115/1/6 118/1/6
f 119/3/6 120/3/6 121/3/6
f 121/3/6 120/3/6 122/3/6
