# MagicaVoxel @ Ephtracy

# group
g obj_toilet_seat

# material
mtllib obj_toilet_seat.mtl
usemtl palette

# normals
vn -1 0 0
vn 1 0 0
vn 0 0 1
vn 0 0 -1
vn 0 -1 0
vn 0 1 0

# texcoords
vt 0.958984 0.5
vt 0.966797 0.5

# verts
v -4 3 -1
v -4 3 -4
v -4 5 -1
v -4 5 -4
v -4 6 -1
v -4 6 -4
v -3 2 1
v -3 2 -5
v -3 3 -1
v -3 3 -4
v -3 5 1
v -3 5 -1
v -3 5 -4
v -3 5 -5
v -3 6 1
v -3 6 -1
v -3 6 -4
v -3 6 -5
v -3 6 -6
v -3 6 -8
v -3 10 -6
v -3 10 -8
v -2 0 -0
v -2 0 -6
v -2 1 1
v -2 1 -0
v -2 1 -6
v -2 1 -7
v -2 2 2
v -2 2 1
v -2 2 -5
v -2 2 -7
v -2 2 -8
v -2 5 2
v -2 5 1
v -2 5 -5
v -2 5 -6
v -2 6 2
v -2 6 1
v -2 6 -5
v -2 6 -6
v -2 6 -8
v -1 10 -7
v -1 10 -8
v -1 11 -7
v -1 11 -8
v 1 1 -1
v 1 1 -4
v 1 2 -1
v 1 2 -4
v 2 2 -0
v 2 2 -4
v 2 3 -4
v 2 3 -5
v 2 5 -0
v 2 5 -5
v 2 6 -0
v 2 6 -5
v -2 2 -0
v -2 2 -4
v -2 3 -4
v -2 3 -5
v -2 5 -0
v -2 5 -5
v -2 6 -0
v -2 6 -5
v -1 1 -1
v -1 1 -4
v -1 2 -1
v -1 2 -4
v 1 10 -7
v 1 10 -8
v 1 11 -7
v 1 11 -8
v 2 0 -0
v 2 0 -6
v 2 1 1
v 2 1 -0
v 2 1 -6
v 2 1 -7
v 2 2 2
v 2 2 1
v 2 2 -5
v 2 2 -7
v 2 2 -8
v 2 5 2
v 2 5 1
v 2 5 -5
v 2 5 -6
v 2 6 2
v 2 6 1
v 2 6 -5
v 2 6 -6
v 2 6 -8
v 3 2 1
v 3 2 -5
v 3 3 -1
v 3 3 -4
v 3 5 1
v 3 5 -1
v 3 5 -4
v 3 5 -5
v 3 6 1
v 3 6 -1
v 3 6 -4
v 3 6 -5
v 3 6 -6
v 3 6 -8
v 3 10 -6
v 3 10 -8
v 4 3 -1
v 4 3 -4
v 4 5 -1
v 4 5 -4
v 4 6 -1
v 4 6 -4
v -2 2 2
v -2 5 2
v -2 6 2
v 2 2 2
v 2 5 2
v 2 6 2
v -3 2 1
v -3 5 1
v -3 6 1
v -2 1 1
v -2 2 1
v -2 5 1
v -2 6 1
v 2 1 1
v 2 2 1
v 2 5 1
v 2 6 1
v 3 2 1
v 3 5 1
v 3 6 1
v -2 0 -0
v -2 1 -0
v 2 0 -0
v 2 1 -0
v -4 3 -1
v -4 5 -1
v -4 6 -1
v -3 3 -1
v -3 5 -1
v -3 6 -1
v 3 3 -1
v 3 5 -1
v 3 6 -1
v 4 3 -1
v 4 5 -1
v 4 6 -1
v -2 2 -4
v -2 3 -4
v -1 1 -4
v -1 2 -4
v 1 1 -4
v 1 2 -4
v 2 2 -4
v 2 3 -4
v -2 3 -5
v -2 5 -5
v -2 6 -5
v 2 3 -5
v 2 5 -5
v 2 6 -5
v -3 6 -6
v -3 10 -6
v -2 6 -6
v 2 6 -6
v 3 6 -6
v 3 10 -6
v -1 10 -7
v -1 11 -7
v 1 10 -7
v 1 11 -7
v -2 2 -0
v -2 5 -0
v -2 6 -0
v 2 2 -0
v 2 5 -0
v 2 6 -0
v -1 1 -1
v -1 2 -1
v 1 1 -1
v 1 2 -1
v -4 3 -4
v -4 5 -4
v -4 6 -4
v -3 3 -4
v -3 5 -4
v -3 6 -4
v 3 3 -4
v 3 5 -4
v 3 6 -4
v 4 3 -4
v 4 5 -4
v 4 6 -4
v -3 2 -5
v -3 5 -5
v -3 6 -5
v -2 2 -5
v -2 5 -5
v -2 6 -5
v 2 2 -5
v 2 5 -5
v 2 6 -5
v 3 2 -5
v 3 5 -5
v 3 6 -5
v -2 0 -6
v -2 1 -6
v 2 0 -6
v 2 1 -6
v -2 1 -7
v -2 2 -7
v 2 1 -7
v 2 2 -7
v -3 6 -8
v -3 10 -8
v -2 2 -8
v -2 6 -8
v -1 10 -8
v -1 11 -8
v 1 10 -8
v 1 11 -8
v 2 2 -8
v 2 6 -8
v 3 6 -8
v 3 10 -8
v -2 0 -0
v 2 0 -0
v -2 0 -6
v 2 0 -6
v -2 1 1
v 2 1 1
v -2 1 -0
v 2 1 -0
v -2 1 -6
v 2 1 -6
v -2 1 -7
v 2 1 -7
v -2 2 2
v 2 2 2
v -3 2 1
v -2 2 1
v 2 2 1
v 3 2 1
v -3 2 -5
v -2 2 -5
v 2 2 -5
v 3 2 -5
v -2 2 -7
v 2 2 -7
v -2 2 -8
v 2 2 -8
v -4 3 -1
v -3 3 -1
v 3 3 -1
v 4 3 -1
v -4 3 -4
v -3 3 -4
v 3 3 -4
v 4 3 -4
v -3 6 -6
v -2 6 -6
v 2 6 -6
v 3 6 -6
v -3 6 -8
v -2 6 -8
v 2 6 -8
v 3 6 -8
v -1 1 -1
v 1 1 -1
v -1 1 -4
v 1 1 -4
v -2 2 -0
v 2 2 -0
v -1 2 -1
v 1 2 -1
v -2 2 -4
v -1 2 -4
v 1 2 -4
v 2 2 -4
v -2 3 -4
v 2 3 -4
v -2 3 -5
v 2 3 -5
v -2 6 2
v 2 6 2
v -3 6 1
v -2 6 1
v 2 6 1
v 3 6 1
v -2 6 -0
v 2 6 -0
v -4 6 -1
v -3 6 -1
v 3 6 -1
v 4 6 -1
v -4 6 -4
v -3 6 -4
v 3 6 -4
v 4 6 -4
v -3 6 -5
v -2 6 -5
v 2 6 -5
v 3 6 -5
v -2 6 -6
v 2 6 -6
v -3 10 -6
v 3 10 -6
v -1 10 -7
v 1 10 -7
v -3 10 -8
v -1 10 -8
v 1 10 -8
v 3 10 -8
v -1 11 -7
v 1 11 -7
v -1 11 -8
v 1 11 -8

# faces
f 3/1/1 2/1/1 1/1/1
f 4/1/1 2/1/1 3/1/1
f 5/2/1 4/2/1 3/2/1
f 6/2/1 4/2/1 5/2/1
f 9/1/1 8/1/1 7/1/1
f 10/1/1 8/1/1 9/1/1
f 11/1/1 9/1/1 7/1/1
f 12/1/1 9/1/1 11/1/1
f 13/1/1 8/1/1 10/1/1
f 14/1/1 8/1/1 13/1/1
f 15/2/1 12/2/1 11/2/1
f 16/2/1 12/2/1 15/2/1
f 17/2/1 14/2/1 13/2/1
f 18/2/1 14/2/1 17/2/1
f 21/1/1 20/1/1 19/1/1
f 22/1/1 20/1/1 21/1/1
f 26/1/1 24/1/1 23/1/1
f 27/1/1 24/1/1 26/1/1
f 30/1/1 26/1/1 25/1/1
f 30/1/1 28/1/1 27/1/1
f 30/1/1 27/1/1 26/1/1
f 31/1/1 28/1/1 30/1/1
f 32/1/1 28/1/1 31/1/1
f 34/1/1 30/1/1 29/1/1
f 35/1/1 30/1/1 34/1/1
f 36/1/1 33/1/1 32/1/1
f 36/1/1 32/1/1 31/1/1
f 37/1/1 33/1/1 36/1/1
f 38/2/1 35/2/1 34/2/1
f 39/2/1 35/2/1 38/2/1
f 40/2/1 37/2/1 36/2/1
f 41/1/1 33/1/1 37/1/1
f 41/2/1 37/2/1 40/2/1
f 42/1/1 33/1/1 41/1/1
f 45/1/1 44/1/1 43/1/1
f 46/1/1 44/1/1 45/1/1
f 49/1/1 48/1/1 47/1/1
f 50/1/1 48/1/1 49/1/1
f 53/1/1 52/1/1 51/1/1
f 55/1/1 53/1/1 51/1/1
f 55/1/1 54/1/1 53/1/1
f 56/1/1 54/1/1 55/1/1
f 57/2/1 56/2/1 55/2/1
f 58/2/1 56/2/1 57/2/1
f 59/1/2 60/1/2 61/1/2
f 59/1/2 61/1/2 63/1/2
f 61/1/2 62/1/2 63/1/2
f 63/1/2 62/1/2 64/1/2
f 63/2/2 64/2/2 65/2/2
f 65/2/2 64/2/2 66/2/2
f 67/1/2 68/1/2 69/1/2
f 69/1/2 68/1/2 70/1/2
f 71/1/2 72/1/2 73/1/2
f 73/1/2 72/1/2 74/1/2
f 75/1/2 76/1/2 78/1/2
f 78/1/2 76/1/2 79/1/2
f 77/1/2 78/1/2 82/1/2
f 79/1/2 80/1/2 82/1/2
f 78/1/2 79/1/2 82/1/2
f 82/1/2 80/1/2 83/1/2
f 83/1/2 80/1/2 84/1/2
f 81/1/2 82/1/2 86/1/2
f 86/1/2 82/1/2 87/1/2
f 84/1/2 85/1/2 88/1/2
f 83/1/2 84/1/2 88/1/2
f 88/1/2 85/1/2 89/1/2
f 86/2/2 87/2/2 90/2/2
f 90/2/2 87/2/2 91/2/2
f 88/2/2 89/2/2 92/2/2
f 89/1/2 85/1/2 93/1/2
f 92/2/2 89/2/2 93/2/2
f 93/1/2 85/1/2 94/1/2
f 95/1/2 96/1/2 97/1/2
f 97/1/2 96/1/2 98/1/2
f 95/1/2 97/1/2 99/1/2
f 99/1/2 97/1/2 100/1/2
f 98/1/2 96/1/2 101/1/2
f 101/1/2 96/1/2 102/1/2
f 99/2/2 100/2/2 103/2/2
f 103/2/2 100/2/2 104/2/2
f 101/2/2 102/2/2 105/2/2
f 105/2/2 102/2/2 106/2/2
f 107/1/2 108/1/2 109/1/2
f 109/1/2 108/1/2 110/1/2
f 111/1/2 112/1/2 113/1/2
f 113/1/2 112/1/2 114/1/2
f 113/2/2 114/2/2 115/2/2
f 115/2/2 114/2/2 116/2/2
f 120/1/3 118/1/3 117/1/3
f 121/2/3 119/2/3 118/2/3
f 121/1/3 118/1/3 120/1/3
f 122/2/3 119/2/3 121/2/3
f 127/1/3 124/1/3 123/1/3
f 128/2/3 125/2/3 124/2/3
f 128/1/3 124/1/3 127/1/3
f 129/2/3 125/2/3 128/2/3
f 130/1/3 127/1/3 126/1/3
f 131/1/3 127/1/3 130/1/3
f 134/1/3 132/1/3 131/1/3
f 135/2/3 133/2/3 132/2/3
f 135/1/3 132/1/3 134/1/3
f 136/2/3 133/2/3 135/2/3
f 139/1/3 138/1/3 137/1/3
f 140/1/3 138/1/3 139/1/3
f 144/1/3 142/1/3 141/1/3
f 145/2/3 143/2/3 142/2/3
f 145/1/3 142/1/3 144/1/3
f 146/2/3 143/2/3 145/2/3
f 150/1/3 148/1/3 147/1/3
f 151/2/3 149/2/3 148/2/3
f 151/1/3 148/1/3 150/1/3
f 152/2/3 149/2/3 151/2/3
f 156/1/3 154/1/3 153/1/3
f 157/1/3 156/1/3 155/1/3
f 158/1/3 154/1/3 156/1/3
f 158/1/3 156/1/3 157/1/3
f 159/1/3 154/1/3 158/1/3
f 160/1/3 154/1/3 159/1/3
f 164/1/3 162/1/3 161/1/3
f 165/2/3 163/2/3 162/2/3
f 165/1/3 162/1/3 164/1/3
f 166/2/3 163/2/3 165/2/3
f 169/1/3 168/1/3 167/1/3
f 170/1/3 168/1/3 169/1/3
f 171/1/3 168/1/3 170/1/3
f 172/1/3 168/1/3 171/1/3
f 175/1/3 174/1/3 173/1/3
f 176/1/3 174/1/3 175/1/3
f 177/1/4 178/1/4 180/1/4
f 178/2/4 179/2/4 181/2/4
f 180/1/4 178/1/4 181/1/4
f 181/2/4 179/2/4 182/2/4
f 183/1/4 184/1/4 185/1/4
f 185/1/4 184/1/4 186/1/4
f 187/1/4 188/1/4 190/1/4
f 188/2/4 189/2/4 191/2/4
f 190/1/4 188/1/4 191/1/4
f 191/2/4 189/2/4 192/2/4
f 193/1/4 194/1/4 196/1/4
f 194/2/4 195/2/4 197/2/4
f 196/1/4 194/1/4 197/1/4
f 197/2/4 195/2/4 198/2/4
f 199/1/4 200/1/4 202/1/4
f 200/2/4 201/2/4 203/2/4
f 202/1/4 200/1/4 203/1/4
f 203/2/4 201/2/4 204/2/4
f 205/1/4 206/1/4 208/1/4
f 206/2/4 207/2/4 209/2/4
f 208/1/4 206/1/4 209/1/4
f 209/2/4 207/2/4 210/2/4
f 211/1/4 212/1/4 213/1/4
f 213/1/4 212/1/4 214/1/4
f 215/1/4 216/1/4 217/1/4
f 217/1/4 216/1/4 218/1/4
f 219/1/4 220/1/4 222/1/4
f 222/1/4 220/1/4 223/1/4
f 221/1/4 222/1/4 223/1/4
f 221/1/4 223/1/4 225/1/4
f 223/1/4 224/1/4 225/1/4
f 225/1/4 224/1/4 226/1/4
f 221/1/4 225/1/4 227/1/4
f 227/1/4 225/1/4 228/1/4
f 228/1/4 225/1/4 229/1/4
f 229/1/4 225/1/4 230/1/4
f 233/1/5 232/1/5 231/1/5
f 234/1/5 232/1/5 233/1/5
f 237/1/5 236/1/5 235/1/5
f 238/1/5 236/1/5 237/1/5
f 241/1/5 240/1/5 239/1/5
f 242/1/5 240/1/5 241/1/5
f 246/1/5 244/1/5 243/1/5
f 247/1/5 244/1/5 246/1/5
f 249/1/5 246/1/5 245/1/5
f 250/1/5 246/1/5 249/1/5
f 251/1/5 248/1/5 247/1/5
f 252/1/5 248/1/5 251/1/5
f 255/1/5 254/1/5 253/1/5
f 256/1/5 254/1/5 255/1/5
f 261/1/5 258/1/5 257/1/5
f 262/1/5 258/1/5 261/1/5
f 263/1/5 260/1/5 259/1/5
f 264/1/5 260/1/5 263/1/5
f 269/1/5 266/1/5 265/1/5
f 270/1/5 266/1/5 269/1/5
f 271/1/5 268/1/5 267/1/5
f 272/1/5 268/1/5 271/1/5
f 273/1/6 274/1/6 275/1/6
f 275/1/6 274/1/6 276/1/6
f 277/1/6 278/1/6 279/1/6
f 279/1/6 278/1/6 280/1/6
f 277/1/6 279/1/6 281/1/6
f 281/1/6 279/1/6 282/1/6
f 280/1/6 278/1/6 283/1/6
f 283/1/6 278/1/6 284/1/6
f 285/1/6 286/1/6 287/1/6
f 287/1/6 286/1/6 288/1/6
f 289/2/6 290/2/6 292/2/6
f 292/2/6 290/2/6 293/2/6
f 291/2/6 292/2/6 295/2/6
f 293/2/6 294/2/6 295/2/6
f 292/2/6 293/2/6 295/2/6
f 295/2/6 294/2/6 296/2/6
f 291/2/6 295/2/6 298/2/6
f 296/2/6 294/2/6 299/2/6
f 297/2/6 298/2/6 301/2/6
f 298/2/6 295/2/6 302/2/6
f 301/2/6 298/2/6 302/2/6
f 299/2/6 300/2/6 303/2/6
f 296/2/6 299/2/6 303/2/6
f 303/2/6 300/2/6 304/2/6
f 302/2/6 295/2/6 305/2/6
f 305/2/6 295/2/6 306/2/6
f 296/2/6 303/2/6 307/2/6
f 307/2/6 303/2/6 308/2/6
f 306/2/6 307/2/6 309/2/6
f 309/2/6 307/2/6 310/2/6
f 311/1/6 312/1/6 313/1/6
f 313/1/6 312/1/6 314/1/6
f 311/1/6 313/1/6 315/1/6
f 315/1/6 313/1/6 316/1/6
f 314/1/6 312/1/6 317/1/6
f 317/1/6 312/1/6 318/1/6
f 319/1/6 320/1/6 321/1/6
f 321/1/6 320/1/6 322/1/6
